SplineFontDB: 3.0
FontName: Celtica-Bold
FullName: Celtica Bold
FamilyName: Celtica
Weight: Bold
Copyright: Copyright (c) 2020-2024 by Wojciech Kalinowski "wmk69" with Reserved Font Name "Celtica-Bold".\nThis Font Software is licensed under the SIL Open Font License, Version 1.1.
Version: 1.1.0; 2021-05-14
ItalicAngle: 0
UnderlinePosition: -80
UnderlineWidth: 320
Ascent: 1638
Descent: 410
InvalidEm: 0
LayerCount: 2
Layer: 0 1 "Warstwa t+AUIA-a" 1
Layer: 1 1 "Plan pierwszy" 0
XUID: [1021 783 23647091 2952791]
StyleMap: 0x0020
FSType: 0
OS2Version: 3
OS2_WeightWidthSlopeOnly: 0
OS2_UseTypoMetrics: 1
CreationTime: 1260698820
ModificationTime: 1620981707
PfmFamily: 17
TTFWeight: 700
TTFWidth: 5
LineGap: 300
VLineGap: 0
Panose: 2 14 8 2 5 5 8 6 7 4
OS2TypoAscent: 2000
OS2TypoAOffset: 0
OS2TypoDescent: -500
OS2TypoDOffset: 0
OS2TypoLinegap: 300
OS2WinAscent: 2000
OS2WinAOffset: 0
OS2WinDescent: 500
OS2WinDOffset: 0
HheadAscent: 2000
HheadAOffset: 0
HheadDescent: -500
HheadDOffset: 0
OS2SubXSize: 1434
OS2SubYSize: 1331
OS2SubXOff: 0
OS2SubYOff: 287
OS2SupXSize: 1434
OS2SupYSize: 1331
OS2SupXOff: 0
OS2SupYOff: 977
OS2StrikeYSize: 102
OS2StrikeYPos: 512
OS2CapHeight: 1530
OS2XHeight: 1120
OS2Vendor: '    '
OS2CodePages: 20000093.00000000
OS2UnicodeRanges: 8000002f.4000204b.00000000.00000000
Lookup: 258 0 0 "'kern' Horizontal Kerning lookup 0" { "'kern' Horizontal Kerning lookup 0-1" [307,0,4] } ['kern' ('DFLT' <'dflt' > 'grek' <'dflt' > 'latn' <'dflt' > ) ]
MarkAttachClasses: 1
DEI: 91125
KernClass2: 64 45 "'kern' Horizontal Kerning lookup 0-1"
 84 A Agrave Aacute Acircumflex Atilde Adieresis Aring Amacron Abreve Aogonek Aringacute
 28 B germandbls uni1E02 uni1E9E
 140 C E AE Ccedilla Egrave Eacute Ecircumflex Edieresis Cacute Ccircumflex Cdotaccent Ccaron Emacron Ebreve Edotaccent Eogonek Ecaron OE AEacute
 134 D M O P Q Eth Ograve Oacute Ocircumflex Otilde Odieresis Oslash Dcaron Dcroat Omacron Obreve Ohungarumlaut Oslashacute uni1E0A uni1E56
 9 F uni1E1E

StartChar: .notdef
Encoding: 65536 -1 0
Width: 1054
Flags: W
HStem: 0 118<308 746> 1392 118<308 746>
VStem: 120 188<118 1392> 746 188<118 1392>
LayerCount: 2
Fore
SplineSet
120 0 m 1,0,-1
 120 1510 l 1,1,-1
 934 1510 l 1,2,-1
 934 0 l 1,3,-1
 120 0 l 1,0,-1
308 118 m 1,4,-1
 746 118 l 1,5,-1
 746 1392 l 1,6,-1
 308 1392 l 1,7,-1
 308 118 l 1,4,-1
EndSplineSet
Validated: 19457
EndChar

StartChar: exclam
Encoding: 33 33 4
Width: 744
GlyphClass: 2
Flags: W
HStem: -20 370<229.14 466.86>
VStem: 166 364<42.5779 287.422> 228 293<444 737> 244 310<452.033 1458.85>
LayerCount: 2
Fore
SplineSet
348 -20 m 128,-1,1
 272 -20 272 -20 219 34 c 128,-1,2
 166 88 166 88 166 165 c 128,-1,3
 166 242 166 242 219 296 c 128,-1,4
 272 350 272 350 348 350 c 128,-1,5
 424 350 424 350 477 296 c 128,-1,6
 530 242 530 242 530 165 c 128,-1,7
 530 88 530 88 477 34 c 128,-1,0
 424 -20 424 -20 348 -20 c 128,-1,1
191 1510 m 1,8,-1
 533 1510 l 17,9,10
 554 1293 554 1293 554 1093 c 0,11,12
 554 758 554 758 521 444 c 1,13,-1
 228 444 l 1,14,15
 244 644 244 644 244 840 c 0,16,17
 244 1203 244 1203 191 1510 c 1,8,-1
EndSplineSet
Validated: 19457
EndChar

StartChar: quotedbl
Encoding: 34 34 5
Width: 605
GlyphClass: 2
Flags: W
HStem: 1120 473
VStem: 61 208<1185.46 1528.05> 377 208<1185.46 1528.05>
LayerCount: 2
Fore
SplineSet
336 1516 m 1,0,-1
 564 1593 l 1,1,2
 585 1487 585 1487 585 1388 c 0,3,4
 585 1288 585 1288 564 1187 c 1,5,-1
 366 1120 l 1,6,7
 377 1196 377 1196 377 1266 c 0,8,9
 377 1401 377 1401 336 1516 c 1,0,-1
20 1516 m 1,10,-1
 248 1593 l 1,11,12
 269 1487 269 1487 269 1388 c 0,13,14
 269 1288 269 1288 248 1187 c 1,15,-1
 50 1120 l 1,16,17
 61 1196 61 1196 61 1266 c 0,18,19
 61 1401 61 1401 20 1516 c 1,10,-1
EndSplineSet
Validated: 19457
EndChar

StartChar: numbersign
Encoding: 35 35 6
Width: 1438
GlyphClass: 2
Flags: W
HStem: 487 175<215.375 458 634 804 980 1225.5> 833 175<215.375 458 634 804 980 1225.5>
VStem: 458 176<243.375 487 662 833 1008 1250.91> 804 176<243.375 487 662 833 1008 1250.91>
LayerCount: 2
Fore
SplineSet
524 1296 m 1,0,1
 634 1264 634 1264 634 1082 c 2,2,-1
 634 1008 l 1,3,-1
 804 1008 l 1,4,-1
 804 1276 l 1,5,-1
 870 1296 l 1,6,7
 980 1264 980 1264 980 1082 c 2,8,-1
 980 1008 l 1,9,-1
 1247 1008 l 1,10,-1
 1268 942 l 1,11,12
 1236 833 1236 833 1053 833 c 2,13,-1
 980 833 l 1,14,-1
 980 662 l 1,15,-1
 1247 662 l 1,16,-1
 1268 596 l 1,17,18
 1236 487 1236 487 1053 487 c 2,19,-1
 980 487 l 1,20,-1
 980 220 l 1,21,-1
 914 198 l 1,22,23
 804 230 804 230 804 414 c 2,24,-1
 804 487 l 1,25,-1
 634 487 l 1,26,-1
 634 220 l 1,27,-1
 568 198 l 1,28,29
 458 230 458 230 458 414 c 2,30,-1
 458 487 l 1,31,-1
 191 487 l 1,32,-1
 170 552 l 1,33,34
 202 662 202 662 386 662 c 2,35,-1
 458 662 l 1,36,-1
 458 833 l 1,37,-1
 191 833 l 1,38,-1
 170 898 l 1,39,40
 202 1008 202 1008 386 1008 c 2,41,-1
 458 1008 l 1,42,-1
 458 1276 l 1,43,-1
 524 1296 l 1,0,1
804 833 m 1,44,-1
 634 833 l 1,45,-1
 634 662 l 1,46,-1
 804 662 l 1,47,-1
 804 833 l 1,44,-1
EndSplineSet
Validated: 19457
EndChar

StartChar: dollar
Encoding: 36 36 7
Width: 1303
GlyphClass: 2
Flags: W
HStem: -20 175<321.742 577> 1365 164<727 892.141>
VStem: 113 340<970.395 1254.65> 577 150<-161.325 -20 223 736 925 1328 1526.08 1670.88> 888 345<345.283 665.384>
LayerCount: 2
Fore
SplineSet
577 -20 m 1,0,1
 272 -20 272 -20 70 138 c 1,2,-1
 151 381 l 1,3,4
 270 155 270 155 494 155 c 0,5,6
 537 155 537 155 577 163 c 1,7,-1
 577 747 l 1,8,9
 384 761 384 761 259 855 c 0,10,11
 113 965 113 965 113 1132 c 0,12,13
 113 1307 113 1307 260 1412 c 0,14,15
 392 1505 392 1505 577 1525 c 1,16,-1
 577 1682 l 1,17,-1
 630 1699 l 1,18,19
 727 1666 727 1666 727 1573 c 2,20,-1
 727 1529 l 1,21,22
 940 1518 940 1518 1105 1409 c 1,23,-1
 1018 1147 l 1,24,25
 947 1365 947 1365 727 1365 c 1,26,-1
 727 914 l 1,27,28
 937 900 937 900 1064 805 c 0,29,30
 1233 680 1233 680 1233 480 c 0,31,32
 1233 261 1233 261 1048 126 c 0,33,34
 910 25 910 25 727 -6 c 1,35,-1
 727 -172 l 1,36,-1
 674 -189 l 1,37,38
 577 -157 577 -157 577 -63 c 2,39,-1
 577 -20 l 1,0,1
577 1328 m 1,40,41
 517 1295 517 1295 485 1234 c 128,-1,42
 453 1173 453 1173 453 1096 c 0,43,44
 453 1012 453 1012 503 964 c 0,45,46
 532 936 532 936 577 925 c 1,47,-1
 577 1328 l 1,40,41
727 223 m 1,48,49
 826 286 826 286 863 388 c 0,50,51
 888 458 888 458 888 531 c 0,52,53
 888 635 888 635 815 695 c 0,54,55
 779 724 779 724 727 736 c 1,56,-1
 727 223 l 1,48,49
EndSplineSet
Validated: 19457
EndChar

StartChar: percent
Encoding: 37 37 8
Width: 1841
GlyphClass: 2
Flags: W
HStem: -20 158<1247.82 1431.27> 0 21G<633.5 779.289> 539 151<1290 1469.96> 820 158<368.819 552.275> 1379 151<411.004 590.958>
VStem: 120 215<1011.07 1296.64> 627 215<1056.73 1346.53> 999 215<171.067 456.635> 1506 215<216.729 506.526>
DStem2: 1064 1510 772 0 0.342417 0.939548<-1423.41 -93.0426>
LayerCount: 2
Fore
SplineSet
674 0 m 1,0,1
 593 44 593 44 593 165 c 0,2,3
 593 218 593 218 615 278 c 2,4,-1
 1064 1510 l 1,5,-1
 1163 1510 l 1,6,7
 1244 1467 1244 1467 1244 1347 c 0,8,9
 1244 1295 1244 1295 1221 1232 c 2,10,-1
 772 0 l 1,11,-1
 674 0 l 1,0,1
1335 138 m 0,12,13
 1386 138 1386 138 1430 180 c 0,14,15
 1473 220 1473 220 1493 286 c 0,16,17
 1506 328 1506 328 1506 378 c 0,18,19
 1506 431 1506 431 1484 474 c 0,20,21
 1451 539 1451 539 1385 539 c 0,22,23
 1334 539 1334 539 1291 497 c 0,24,25
 1250 459 1250 459 1228 391 c 0,26,27
 1214 349 1214 349 1214 299 c 0,28,29
 1214 245 1214 245 1236 202 c 0,30,31
 1268 138 1268 138 1335 138 c 0,12,13
1360 690 m 0,32,33
 1515 690 1515 690 1613 596 c 0,34,35
 1721 491 1721 491 1721 335 c 128,-1,36
 1721 179 1721 179 1613 74 c 0,37,38
 1516 -20 1516 -20 1360 -20 c 0,39,40
 1205 -20 1205 -20 1107 75 c 0,41,42
 999 180 999 180 999 335 c 0,43,44
 999 495 999 495 1107 596 c 0,45,46
 1208 690 1208 690 1360 690 c 0,32,33
456 978 m 0,47,48
 507 978 507 978 551 1020 c 0,49,50
 594 1060 594 1060 614 1126 c 0,51,52
 627 1168 627 1168 627 1218 c 0,53,54
 627 1271 627 1271 605 1314 c 0,55,56
 572 1379 572 1379 506 1379 c 0,57,58
 455 1379 455 1379 412 1337 c 0,59,60
 371 1299 371 1299 349 1231 c 0,61,62
 335 1189 335 1189 335 1139 c 0,63,64
 335 1085 335 1085 357 1042 c 0,65,66
 389 978 389 978 456 978 c 0,47,48
481 1530 m 0,67,68
 636 1530 636 1530 734 1436 c 0,69,70
 842 1331 842 1331 842 1175 c 128,-1,71
 842 1019 842 1019 734 914 c 0,72,73
 637 820 637 820 481 820 c 0,74,75
 326 820 326 820 228 915 c 0,76,77
 120 1020 120 1020 120 1175 c 0,78,79
 120 1335 120 1335 228 1436 c 0,80,81
 329 1530 329 1530 481 1530 c 0,67,68
EndSplineSet
Validated: 19457
EndChar

StartChar: quotesingle
Encoding: 39 39 9
Width: 289
GlyphClass: 2
Flags: W
HStem: 1120 473
VStem: 61 208<1185.46 1528.05>
LayerCount: 2
Fore
SplineSet
20 1516 m 1,0,-1
 248 1593 l 1,1,2
 269 1487 269 1487 269 1388 c 0,3,4
 269 1288 269 1288 248 1187 c 1,5,-1
 50 1120 l 1,6,7
 61 1196 61 1196 61 1266 c 0,8,9
 61 1401 61 1401 20 1516 c 1,0,-1
EndSplineSet
Validated: 19457
EndChar

StartChar: parenleft
Encoding: 40 40 10
Width: 907
GlyphClass: 2
Flags: W
VStem: 170 300<398.868 1111.13>
LayerCount: 2
Fore
SplineSet
897 -250 m 1,0,1
 500 -250 l 1,2,3
 170 218 170 218 170 755 c 128,-1,4
 170 1292 170 1292 500 1760 c 1,5,-1
 897 1760 l 1,6,7
 470 1344 470 1344 470 755 c 128,-1,8
 470 166 470 166 897 -250 c 1,0,1
EndSplineSet
Validated: 19457
EndChar

StartChar: parenright
Encoding: 41 41 11
Width: 907
GlyphClass: 2
Flags: W
VStem: 437 300<398.868 1111.13>
LayerCount: 2
Fore
SplineSet
10 -250 m 1,0,1
 437 166 437 166 437 755 c 128,-1,2
 437 1344 437 1344 10 1760 c 1,3,-1
 407 1760 l 1,4,5
 737 1292 737 1292 737 755 c 128,-1,6
 737 218 737 218 407 -250 c 1,7,-1
 10 -250 l 1,0,1
EndSplineSet
Validated: 1
EndChar

StartChar: asterisk
Encoding: 42 42 12
Width: 1069
GlyphClass: 2
Flags: W
VStem: 447 175<712.375 964 1268 1522.5>
DStem2: 447 1268 120 1254 0.865909 -0.500202<-233.802 -0.169253 303.765 537.398> 288 1075 208 826 0.865909 0.500202<-170.196 81.9878 385.922 637.849>
LayerCount: 2
Fore
SplineSet
447 1544 m 1,0,-1
 513 1565 l 1,1,2
 622 1533 622 1533 622 1350 c 2,3,-1
 622 1268 l 1,4,-1
 861 1406 l 1,5,-1
 912 1360 l 1,6,7
 916 1344 916 1344 916 1328 c 0,8,9
 916 1235 916 1235 780 1157 c 2,10,-1
 710 1116 l 1,11,-1
 949 978 l 1,12,-1
 935 911 l 1,13,14
 897 874 897 874 842 874 c 0,15,16
 779 874 779 874 693 924 c 2,17,-1
 622 964 l 1,18,-1
 622 688 l 1,19,-1
 557 667 l 1,20,21
 447 699 447 699 447 883 c 2,22,-1
 447 964 l 1,23,-1
 208 826 l 1,24,-1
 156 873 l 1,25,26
 153 890 153 890 153 904 c 0,27,28
 153 996 153 996 288 1075 c 2,29,-1
 359 1116 l 1,30,-1
 120 1254 l 1,31,-1
 135 1322 l 1,32,33
 173 1358 173 1358 227 1358 c 0,34,35
 290 1358 290 1358 376 1309 c 2,36,-1
 447 1268 l 1,37,-1
 447 1544 l 1,0,-1
EndSplineSet
Validated: 19457
EndChar

StartChar: plus
Encoding: 43 43 13
Width: 1219
GlyphClass: 2
Flags: W
HStem: 639 211<172.985 504 715 1048.9>
VStem: 504 211<307.985 639 850 1183.9>
LayerCount: 2
Fore
SplineSet
589 1234 m 1,0,1
 715 1202 715 1202 715 1024 c 2,2,-1
 715 850 l 1,3,-1
 1072 850 l 1,4,-1
 1099 765 l 1,5,6
 1067 639 1067 639 889 639 c 2,7,-1
 715 639 l 1,8,-1
 715 281 l 1,9,-1
 633 255 l 1,10,11
 504 287 504 287 504 465 c 2,12,-1
 504 639 l 1,13,-1
 146 639 l 1,14,-1
 120 721 l 1,15,16
 152 850 152 850 330 850 c 2,17,-1
 504 850 l 1,18,-1
 504 1207 l 1,19,-1
 589 1234 l 1,0,1
EndSplineSet
Validated: 19457
EndChar

StartChar: comma
Encoding: 44 44 14
Width: 417
GlyphClass: 2
Flags: W
HStem: -322 602
VStem: 165 232<-122.94 106.59>
LayerCount: 2
Fore
SplineSet
274 280 m 1,0,1
 397 169 397 169 397 45 c 0,2,3
 397 -123 397 -123 242 -251 c 1,4,-1
 32 -322 l 1,5,6
 165 -164 165 -164 165 -27 c 128,-1,7
 165 110 165 110 20 194 c 1,8,-1
 274 280 l 1,0,1
EndSplineSet
Validated: 19457
EndChar

StartChar: hyphen
Encoding: 45 45 15
Width: 1219
GlyphClass: 2
Flags: W
HStem: 639 211<172.985 1048.9>
LayerCount: 2
Fore
SplineSet
1072 850 m 1,0,-1
 1099 765 l 1,1,2
 1067 639 1067 639 889 639 c 2,3,-1
 146 639 l 1,4,-1
 120 721 l 1,5,6
 152 850 152 850 330 850 c 2,7,-1
 1072 850 l 1,0,-1
EndSplineSet
Validated: 19457
EndChar

StartChar: period
Encoding: 46 46 16
Width: 404
GlyphClass: 2
Flags: W
HStem: -20 370<83.1396 320.86>
VStem: 20 364<42.5779 287.422>
LayerCount: 2
Fore
SplineSet
202 -20 m 128,-1,1
 126 -20 126 -20 73 34 c 128,-1,2
 20 88 20 88 20 165 c 128,-1,3
 20 242 20 242 73 296 c 128,-1,4
 126 350 126 350 202 350 c 128,-1,5
 278 350 278 350 331 296 c 128,-1,6
 384 242 384 242 384 165 c 128,-1,7
 384 88 384 88 331 34 c 128,-1,0
 278 -20 278 -20 202 -20 c 128,-1,1
EndSplineSet
Validated: 19457
EndChar

StartChar: slash
Encoding: 47 47 17
Width: 861
GlyphClass: 2
Flags: W
DStem2: 621 1690 239 -180 0.34179 0.939776<-1806.23 -79.5212>
LayerCount: 2
Fore
SplineSet
116 -180 m 1,0,1
 20 -121 20 -121 20 -15 c 0,2,3
 20 36 20 36 42 98 c 2,4,-1
 621 1690 l 1,5,-1
 745 1690 l 1,6,7
 841 1632 841 1632 841 1527 c 0,8,9
 841 1475 841 1475 818 1412 c 2,10,-1
 239 -180 l 1,11,-1
 116 -180 l 1,0,1
EndSplineSet
Validated: 19457
EndChar

StartChar: zero
Encoding: 48 48 18
Width: 1786
GlyphClass: 2
Flags: W
HStem: -20 180<621.515 1009.86> 1348 182<774.851 1161.72>
VStem: 70 327<481.44 921.987> 1389 327<587.451 1024.6>
LayerCount: 2
Fore
SplineSet
892 -20 m 128,-1,1
 548 -20 548 -20 310 191 c 0,2,3
 70 406 70 406 70 755 c 0,4,5
 70 1109 70 1109 310 1319 c 0,6,7
 551 1530 551 1530 892 1530 c 0,8,9
 1245 1530 1245 1530 1474 1319 c 0,10,11
 1716 1098 1716 1098 1716 755 c 0,12,13
 1716 406 1716 406 1474 191 c 0,14,0
 1236 -20 1236 -20 892 -20 c 128,-1,1
805 160 m 0,15,16
 976 160 976 160 1119 268 c 0,17,18
 1278 388 1278 388 1345 586 c 0,19,20
 1389 716 1389 716 1389 874 c 0,21,22
 1389 1035 1389 1035 1310 1162 c 0,23,24
 1195 1348 1195 1348 981 1348 c 0,25,26
 806 1348 806 1348 668 1240 c 0,27,28
 506 1114 506 1114 441 921 c 0,29,30
 397 792 397 792 397 631 c 0,31,32
 397 469 397 469 476 345 c 0,33,34
 594 160 594 160 805 160 c 0,15,16
EndSplineSet
Validated: 19457
EndChar

StartChar: one
Encoding: 49 49 19
Width: 760
GlyphClass: 2
Flags: W
HStem: -20 21G<316.5 465.727> 1510 20G<292.566 443.5>
VStem: 225 310<67.3501 1381.56>
LayerCount: 2
Fore
SplineSet
408 -20 m 1,0,1
 225 25 225 25 225 224 c 2,2,-1
 225 1281 l 2,3,4
 225 1399 225 1399 120 1399 c 0,5,6
 82 1399 82 1399 47 1390 c 1,7,-1
 37 1424 l 1,8,-1
 352 1530 l 1,9,10
 535 1481 535 1481 535 1281 c 2,11,-1
 535 24 l 1,12,-1
 408 -20 l 1,0,1
EndSplineSet
Validated: 19457
EndChar

StartChar: two
Encoding: 50 50 20
Width: 1473
GlyphClass: 2
Flags: W
HStem: 0 178<565 1264.94> 1360 170<637.022 893.222>
VStem: 149 324<826.656 1175.63> 959 324<888.005 1243.99>
LayerCount: 2
Fore
SplineSet
166 0 m 1,0,-1
 120 133 l 1,1,2
 801 516 801 516 934 936 c 0,3,4
 959 1015 959 1015 959 1121 c 128,-1,5
 959 1227 959 1227 920 1284 c 0,6,7
 869 1360 869 1360 778 1360 c 0,8,9
 695 1360 695 1360 628 1309 c 0,10,11
 533 1237 533 1237 499 1131 c 0,12,13
 473 1050 473 1050 473 968 c 0,14,15
 473 875 473 875 521 802 c 0,16,17
 554 750 554 750 609 720 c 1,18,-1
 673 540 l 1,19,20
 444 550 444 550 301 681 c 0,21,22
 149 820 149 820 149 1035 c 0,23,24
 149 1254 149 1254 301 1388 c 0,25,26
 462 1530 462 1530 725 1530 c 0,27,28
 975 1530 975 1530 1131 1388 c 0,29,30
 1283 1250 1283 1250 1283 1037 c 0,31,32
 1283 568 1283 568 565 178 c 1,33,-1
 1176 178 l 2,34,35
 1267 178 1267 178 1332 289 c 1,36,-1
 1353 289 l 1,37,-1
 1281 74 l 2,38,39
 1256 0 1256 0 1152 0 c 2,40,-1
 166 0 l 1,0,-1
EndSplineSet
Validated: 19457
EndChar

StartChar: three
Encoding: 51 51 21
Width: 1311
GlyphClass: 2
Flags: W
HStem: -20 170<452.004 701.542> 1332 178<256.058 766>
VStem: 867 324<337.476 680.557>
LayerCount: 2
Fore
SplineSet
615 -20 m 0,0,1
 364 -20 364 -20 209 123 c 0,2,3
 100 223 100 223 70 358 c 1,4,-1
 381 464 l 1,5,6
 381 323 381 323 415 248 c 0,7,8
 459 150 459 150 562 150 c 0,9,10
 644 150 644 150 712 202 c 0,11,12
 806 274 806 274 841 381 c 0,13,14
 867 463 867 463 867 544 c 0,15,16
 867 653 867 653 833 717 c 0,17,18
 788 803 788 803 682 803 c 0,19,20
 566 803 566 803 478 719 c 1,21,-1
 417 883 l 1,22,23
 694 1098 694 1098 766 1332 c 1,24,-1
 345 1332 l 2,25,26
 254 1332 254 1332 189 1221 c 1,27,-1
 168 1221 l 1,28,-1
 240 1436 l 2,29,30
 265 1510 265 1510 369 1510 c 2,31,-1
 1072 1510 l 1,32,-1
 1115 1384 l 1,33,34
 1021 1103 1021 1103 794 949 c 1,35,36
 941 914 941 914 1039 825 c 0,37,38
 1191 687 1191 687 1191 473 c 0,39,40
 1191 255 1191 255 1038 122 c 0,41,42
 876 -20 876 -20 615 -20 c 0,0,1
EndSplineSet
Validated: 19457
EndChar

StartChar: five
Encoding: 53 53 22
Width: 1311
GlyphClass: 2
Flags: W
HStem: -20 170<457.498 702.678> 799 171<540.818 795.498> 1332 178<549.922 1080.94>
VStem: 180 288<957.633 1215.82> 867 324<334.25 682.971>
LayerCount: 2
Fore
SplineSet
615 -20 m 0,0,1
 364 -20 364 -20 209 123 c 0,2,3
 106 218 106 218 70 357 c 1,4,-1
 381 458 l 1,5,6
 381 319 381 319 422 241 c 0,7,8
 470 150 470 150 562 150 c 0,9,10
 645 150 645 150 712 201 c 0,11,12
 806 271 806 271 841 379 c 0,13,14
 867 457 867 457 867 542 c 0,15,16
 867 651 867 651 829 714 c 0,17,18
 778 799 778 799 688 799 c 0,19,20
 596 799 596 799 529 746 c 0,21,22
 456 688 456 688 409 607 c 1,23,24
 180 847 180 847 180 1103 c 0,25,26
 180 1301 180 1301 317 1510 c 1,27,-1
 992 1510 l 2,28,29
 1083 1510 1083 1510 1148 1621 c 1,30,-1
 1169 1621 l 1,31,-1
 1097 1406 l 2,32,33
 1072 1332 1072 1332 968 1332 c 2,34,-1
 575 1332 l 1,35,36
 468 1169 468 1169 468 1018 c 0,37,38
 468 986 468 986 473 954 c 1,39,40
 551 970 551 970 633 970 c 0,41,42
 883 970 883 970 1039 828 c 0,43,44
 1191 690 1191 690 1191 475 c 0,45,46
 1191 257 1191 257 1038 122 c 0,47,48
 876 -20 876 -20 615 -20 c 0,0,1
EndSplineSet
Validated: 19457
EndChar

StartChar: six
Encoding: 54 54 23
Width: 1434
GlyphClass: 2
Flags: W
HStem: -20 170<567.51 820.993> 1510 20G<496 896.085>
VStem: 120 324<373.357 822.532> 990 324<338.934 694.122>
LayerCount: 2
Fore
SplineSet
738 -20 m 0,0,1
 488 -20 488 -20 332 126 c 0,2,3
 120 325 120 325 120 630 c 0,4,5
 120 1247 120 1247 872 1530 c 1,6,-1
 1043 1388 l 1,7,8
 748 1220 748 1220 613 1051 c 0,9,10
 444 840 444 840 444 560 c 0,11,12
 444 362 444 362 525 241 c 0,13,14
 586 150 586 150 685 150 c 0,15,16
 767 150 767 150 835 203 c 0,17,18
 927 274 927 274 965 385 c 0,19,20
 990 458 990 458 990 551 c 0,21,22
 990 658 990 658 947 725 c 0,23,24
 901 796 901 796 801 818 c 1,25,-1
 742 986 l 1,26,27
 1006 986 1006 986 1162 841 c 0,28,29
 1314 700 1314 700 1314 483 c 0,30,31
 1314 259 1314 259 1162 124 c 0,32,33
 1001 -20 1001 -20 738 -20 c 0,0,1
EndSplineSet
Validated: 19457
EndChar

StartChar: seven
Encoding: 55 55 24
Width: 1118
GlyphClass: 2
Flags: W
HStem: 1330 180<98.8352 724>
VStem: 265 327<68 229.961>
LayerCount: 2
Fore
SplineSet
265 -40 m 1,0,1
 379 857 379 857 724 1330 c 1,2,-1
 186 1330 l 2,3,4
 94 1330 94 1330 31 1221 c 1,5,-1
 10 1221 l 1,6,-1
 82 1436 l 2,7,8
 107 1510 107 1510 211 1510 c 2,9,-1
 1064 1510 l 1,10,-1
 1108 1381 l 1,11,12
 690 870 690 870 592 68 c 1,13,-1
 265 -40 l 1,0,1
EndSplineSet
Validated: 19457
EndChar

StartChar: eight
Encoding: 56 56 25
Width: 1401
GlyphClass: 2
Flags: W
HStem: -20 170<520.98 795.369> 745 171<526.946 875.869> 1360 170<583.893 865.086>
VStem: 120 317<233.044 549.288> 160 311<972.847 1252.66> 935 296<1020.19 1293.24> 956 325<332.656 664.7>
LayerCount: 2
Fore
SplineSet
651 -20 m 0,0,1
 437 -20 437 -20 288 90 c 0,2,3
 120 214 120 214 120 414 c 0,4,5
 120 631 120 631 304 766 c 1,6,-1
 635 687 l 1,7,8
 515 620 515 620 471 532 c 0,9,10
 437 464 437 464 437 367 c 0,11,12
 437 265 437 265 511 201 c 0,13,14
 569 150 569 150 656 150 c 0,15,16
 756 150 756 150 833 225 c 24,17,18
 897 287 897 287 927 367 c 0,19,20
 956 447 956 447 956 531 c 0,21,22
 956 637 956 637 885 694 c 0,23,24
 823 745 823 745 693 745 c 0,25,26
 454 745 454 745 307 855 c 0,27,28
 160 964 160 964 160 1132 c 0,29,30
 160 1304 160 1304 307 1412 c 0,31,32
 467 1530 467 1530 709 1530 c 0,33,34
 941 1530 941 1530 1085 1421 c 0,35,36
 1231 1311 1231 1311 1231 1146 c 0,37,38
 1231 1003 1231 1003 1123 900 c 1,39,-1
 806 947 l 1,40,41
 873 983 873 983 902 1038 c 0,42,43
 935 1099 935 1099 935 1176 c 0,44,45
 935 1260 935 1260 873.5 1310 c 128,-1,46
 812 1360 812 1360 744 1360 c 0,47,48
 667 1360 667 1360 615 1334 c 0,49,50
 543 1298 543 1298 512 1247 c 0,51,52
 471 1180 471 1180 471 1097 c 128,-1,53
 471 1014 471 1014 522 965 c 128,-1,54
 573 916 573 916 699 916 c 0,55,56
 967 916 967 916 1113 805 c 0,57,58
 1281 677 1281 677 1281 480 c 0,59,60
 1281 264 1281 264 1097 126 c 0,61,62
 902 -20 902 -20 651 -20 c 0,0,1
EndSplineSet
Validated: 19457
EndChar

StartChar: nine
Encoding: 57 57 26
Width: 1434
GlyphClass: 2
Flags: W
HStem: -20 21G<537.915 938> 1360 170<613.007 866.49>
VStem: 120 324<815.878 1171.07> 990 324<687.468 1136.64>
LayerCount: 2
Fore
SplineSet
562 -20 m 1,0,-1
 391 122 l 1,1,2
 686 290 686 290 821 459 c 0,3,4
 990 670 990 670 990 950 c 0,5,6
 990 1148 990 1148 909 1269 c 0,7,8
 848 1360 848 1360 749 1360 c 0,9,10
 667 1360 667 1360 599 1307 c 0,11,12
 507 1236 507 1236 469 1125 c 0,13,14
 444 1052 444 1052 444 959 c 0,15,16
 444 852 444 852 487 785 c 0,17,18
 533 714 533 714 633 692 c 1,19,-1
 692 524 l 1,20,21
 428 524 428 524 272 669 c 0,22,23
 120 810 120 810 120 1027 c 0,24,25
 120 1251 120 1251 272 1386 c 0,26,27
 433 1530 433 1530 696 1530 c 0,28,29
 946 1530 946 1530 1102 1384 c 0,30,31
 1314 1185 1314 1185 1314 880 c 0,32,33
 1314 263 1314 263 562 -20 c 1,0,-1
EndSplineSet
Validated: 19457
EndChar

StartChar: colon
Encoding: 58 58 27
Width: 404
GlyphClass: 2
Flags: W
HStem: -19 370<83.1396 320.86> 569 370<83.1396 320.86>
VStem: 20 364<43.5779 288.422 631.578 876.422>
LayerCount: 2
Fore
SplineSet
202 939 m 128,-1,1
 278 939 278 939 331 885 c 128,-1,2
 384 831 384 831 384 754 c 128,-1,3
 384 677 384 677 331 623 c 128,-1,4
 278 569 278 569 202 569 c 128,-1,5
 126 569 126 569 73 623 c 128,-1,6
 20 677 20 677 20 754 c 128,-1,7
 20 831 20 831 73 885 c 128,-1,0
 126 939 126 939 202 939 c 128,-1,1
202 -19 m 128,-1,9
 126 -19 126 -19 73 35 c 128,-1,10
 20 89 20 89 20 166 c 128,-1,11
 20 243 20 243 73 297 c 128,-1,12
 126 351 126 351 202 351 c 128,-1,13
 278 351 278 351 331 297 c 128,-1,14
 384 243 384 243 384 166 c 128,-1,15
 384 89 384 89 331 35 c 128,-1,8
 278 -19 278 -19 202 -19 c 128,-1,9
EndSplineSet
Validated: 19457
EndChar

StartChar: semicolon
Encoding: 59 59 28
Width: 417
GlyphClass: 2
Flags: W
HStem: 569 370<83.1396 320.86>
VStem: 20 364<631.578 876.422> 165 232<-122.94 106.59>
LayerCount: 2
Fore
SplineSet
202 939 m 128,-1,1
 278 939 278 939 331 885 c 128,-1,2
 384 831 384 831 384 754 c 128,-1,3
 384 677 384 677 331 623 c 128,-1,4
 278 569 278 569 202 569 c 128,-1,5
 126 569 126 569 73 623 c 128,-1,6
 20 677 20 677 20 754 c 128,-1,7
 20 831 20 831 73 885 c 128,-1,0
 126 939 126 939 202 939 c 128,-1,1
274 280 m 1,8,9
 397 169 397 169 397 45 c 0,10,11
 397 -123 397 -123 242 -251 c 1,12,-1
 32 -322 l 1,13,14
 165 -164 165 -164 165 -27 c 128,-1,15
 165 110 165 110 20 194 c 1,16,-1
 274 280 l 1,8,9
EndSplineSet
Validated: 19457
EndChar

StartChar: less
Encoding: 60 60 29
Width: 1311
GlyphClass: 2
Flags: W
DStem2: 516 742 120 675 0.906252 -0.422738<0 596.09> 285 886 516 742 0.906273 0.422693<148.481 829.307>
LayerCount: 2
Fore
SplineSet
1059 1247 m 1,0,-1
 1140 1161 l 1,1,2
 1140 1033 1140 1033 975 956 c 2,3,-1
 516 742 l 1,4,-1
 1141 451 l 1,5,-1
 1132 376 l 1,6,7
 1076 320 1076 320 980 320 c 0,8,9
 881 320 881 320 791 362 c 2,10,-1
 120 675 l 1,11,12
 120 809 120 809 285 886 c 2,13,-1
 1059 1247 l 1,0,-1
EndSplineSet
Validated: 19457
EndChar

StartChar: equal
Encoding: 61 61 30
Width: 1219
GlyphClass: 2
Flags: W
HStem: 438 211<172.985 1048.9> 840 211<172.985 1048.9>
LayerCount: 2
Fore
SplineSet
1072 649 m 1,0,-1
 1099 564 l 1,1,2
 1067 438 1067 438 889 438 c 2,3,-1
 146 438 l 1,4,-1
 120 520 l 1,5,6
 152 649 152 649 330 649 c 2,7,-1
 1072 649 l 1,0,-1
1072 1051 m 1,8,-1
 1099 966 l 1,9,10
 1067 840 1067 840 889 840 c 2,11,-1
 146 840 l 1,12,-1
 120 922 l 1,13,14
 152 1051 152 1051 330 1051 c 2,15,-1
 1072 1051 l 1,8,-1
EndSplineSet
Validated: 19457
EndChar

StartChar: greater
Encoding: 62 62 31
Width: 1311
GlyphClass: 2
Flags: W
DStem2: 1191 870 170 1094 0.906252 -0.422738<-925.286 -331.459> 336 589 252 298 0.906273 0.422693<-174.39 505.529>
LayerCount: 2
Fore
SplineSet
332 1224 m 0,0,1
 432 1224 432 1224 520 1183 c 2,2,-1
 1191 870 l 1,3,4
 1191 736 1191 736 1026 659 c 2,5,-1
 252 298 l 1,6,-1
 171 384 l 1,7,8
 171 512 171 512 336 589 c 2,9,-1
 794 803 l 1,10,-1
 170 1094 l 1,11,-1
 179 1169 l 1,12,13
 234 1224 234 1224 332 1224 c 0,0,1
EndSplineSet
Validated: 19457
EndChar

StartChar: question
Encoding: 63 63 32
Width: 1374
GlyphClass: 2
Flags: W
HStem: -20 370<544.14 781.86> 1360 170<608.022 864.222>
VStem: 120 324<968 1175.52> 481 364<42.5779 287.422> 930 324<884.781 1243.99>
LayerCount: 2
Fore
SplineSet
663 -20 m 128,-1,1
 587 -20 587 -20 534 34 c 128,-1,2
 481 88 481 88 481 165 c 128,-1,3
 481 242 481 242 534 296 c 128,-1,4
 587 350 587 350 663 350 c 128,-1,5
 739 350 739 350 792 296 c 128,-1,6
 845 242 845 242 845 165 c 128,-1,7
 845 88 845 88 792 34 c 128,-1,0
 739 -20 739 -20 663 -20 c 128,-1,1
696 1530 m 0,8,9
 946 1530 946 1530 1102 1388 c 0,10,11
 1254 1250 1254 1250 1254 1037 c 0,12,13
 1254 672 1254 672 844 444 c 1,14,-1
 485 444 l 1,15,16
 833 708 833 708 905 936 c 0,17,18
 930 1015 930 1015 930 1121 c 128,-1,19
 930 1227 930 1227 891 1284 c 0,20,21
 840 1360 840 1360 749 1360 c 0,22,23
 666 1360 666 1360 599 1309 c 0,24,25
 504 1237 504 1237 470 1131 c 0,26,27
 444 1050 444 1050 444 968 c 1,28,-1
 147 868 l 1,29,30
 120 949 120 949 120 1035 c 0,31,32
 120 1254 120 1254 272 1388 c 0,33,34
 433 1530 433 1530 696 1530 c 0,8,9
EndSplineSet
Validated: 19457
EndChar

StartChar: at
Encoding: 64 64 33
Width: 1639
GlyphClass: 2
Flags: W
HStem: -430 148<599.41 1009.44> -20 21G<1414 1533.31> 0 30<978.932 1014> 962 158<726.084 921.887>
VStem: 70 269<71.4825 511.582> 444 315<162.526 451.387>
LayerCount: 2
Fore
SplineSet
1472 -20 m 1,0,1
 1356 5 1356 5 1327 104 c 0,2,3
 1191 567 1191 567 913 939 c 0,4,5
 896 962 896 962 867 962 c 0,6,7
 801 962 801 962 714 911 c 0,8,9
 670 885 670 885 628 852 c 0,10,11
 454 715 454 715 386 519 c 0,12,13
 339 384 339 384 339 225 c 0,14,15
 339 57 339 57 428 -84 c 0,16,17
 475 -159 475 -159 531 -202 c 0,18,19
 634 -282 634 -282 801 -282 c 0,20,21
 999 -282 999 -282 1152 -142 c 1,22,-1
 1502 -186 l 1,23,24
 1241 -430 1241 -430 892 -430 c 0,25,26
 546 -430 546 -430 310 -219 c 24,27,28
 70 -4 70 -4 70 345 c 0,29,30
 70 698 70 698 310 909 c 128,-1,31
 550 1120 550 1120 892 1120 c 0,32,33
 1137 1120 1137 1120 1253 971 c 0,34,35
 1493 663 1493 663 1659 41 c 1,36,-1
 1472 -20 l 1,0,1
1014 0 m 1,37,38
 444 0 444 0 444 300 c 0,39,40
 444 559 444 559 934 815 c 1,41,-1
 952 791 l 1,42,43
 759 568 759 568 759 304 c 0,44,45
 759 106 759 106 1014 30 c 1,46,-1
 1014 0 l 1,37,38
EndSplineSet
Validated: 19457
EndChar

StartChar: A
Encoding: 65 65 34
Width: 1626
GlyphClass: 2
Flags: W
HStem: -20 21G<1368 1485.55> 0 30<728.811 772> 1100 20G<406.5 758> 1383 34<489.784 528.023> 1510 20G<769.584 877>
VStem: 70 343<227.456 570.089>
LayerCount: 2
Fore
SplineSet
1425 -20 m 1,0,1
 1311 -1 1311 -1 1279 96 c 0,2,3
 1055 779 1055 779 667 1328 c 0,4,5
 621 1393 621 1393 557 1393 c 0,6,7
 522 1393 522 1393 494 1383 c 1,8,-1
 484 1417 l 1,9,-1
 831 1530 l 1,10,11
 923 1514 923 1514 995 1420 c 0,12,13
 1394 894 1394 894 1646 53 c 1,14,-1
 1425 -20 l 1,0,1
743 1120 m 1,15,-1
 761 1096 l 1,16,17
 413 705 413 705 413 402 c 0,18,19
 413 110 413 110 772 30 c 1,20,-1
 772 0 l 1,21,22
 70 0 70 0 70 390 c 0,23,24
 70 751 70 751 743 1120 c 1,15,-1
EndSplineSet
Validated: 19457
EndChar

StartChar: C
Encoding: 67 67 35
Width: 1568
GlyphClass: 2
Flags: W
HStem: -20 180<628.113 1011.9> 1348 182<767.907 1163.67>
VStem: 70 327<480.622 921.987>
LayerCount: 2
Fore
SplineSet
891 -20 m 0,0,1
 548 -20 548 -20 310 191 c 0,2,3
 70 404 70 404 70 755 c 0,4,5
 70 1109 70 1109 310 1319 c 0,6,7
 551 1530 551 1530 892 1530 c 0,8,9
 1236 1530 1236 1530 1474 1319 c 1,10,-1
 1370 1014 l 1,11,12
 1271 1348 1271 1348 979 1348 c 0,13,14
 801 1348 801 1348 665 1239 c 0,15,16
 505 1111 505 1111 441 921 c 0,17,18
 397 792 397 792 397 641 c 0,19,20
 397 480 397 480 481 347 c 0,21,22
 600 160 600 160 805 160 c 0,23,24
 1022 160 1022 160 1170 319 c 1,25,-1
 1498 213 l 1,26,27
 1238 -20 1238 -20 891 -20 c 0,0,1
EndSplineSet
Validated: 19457
EndChar

StartChar: E
Encoding: 69 69 36
Width: 1568
GlyphClass: 2
Flags: W
HStem: -20 180<628.113 1011.9> 622 178<410 1249.94> 1348 182<767.907 1163.67>
VStem: 70 327<483.405 622>
LayerCount: 2
Fore
SplineSet
891 -20 m 0,0,1
 548 -20 548 -20 310 191 c 0,2,3
 70 404 70 404 70 755 c 0,4,5
 70 1109 70 1109 310 1319 c 0,6,7
 551 1530 551 1530 892 1530 c 0,8,9
 1236 1530 1236 1530 1474 1319 c 1,10,-1
 1370 1014 l 1,11,12
 1271 1348 1271 1348 979 1348 c 0,13,14
 801 1348 801 1348 665 1239 c 0,15,16
 505 1111 505 1111 441 921 c 0,17,18
 421 863 421 863 410 800 c 1,19,-1
 1161 800 l 2,20,21
 1252 800 1252 800 1317 911 c 1,22,-1
 1338 911 l 1,23,-1
 1266 696 l 2,24,25
 1241 622 1241 622 1137 622 c 2,26,-1
 397 622 l 1,27,28
 402 472 402 472 481 347 c 0,29,30
 600 160 600 160 805 160 c 0,31,32
 1022 160 1022 160 1170 319 c 1,33,-1
 1498 213 l 1,34,35
 1238 -20 1238 -20 891 -20 c 0,0,1
EndSplineSet
Validated: 19457
EndChar

StartChar: F
Encoding: 70 70 37
Width: 1454
GlyphClass: 2
Flags: W
HStem: -430 21G<261.5 410.727> 309 178<480 1146.94> 1348 182<762.524 1164.08>
VStem: 170 310<-342.65 309 487 1062>
LayerCount: 2
Fore
SplineSet
353 -430 m 1,0,1
 170 -385 170 -385 170 -186 c 2,2,-1
 170 1281 l 2,3,4
 170 1399 170 1399 65 1399 c 0,5,6
 27 1399 27 1399 -8 1390 c 1,7,-1
 -18 1424 l 1,8,-1
 297 1530 l 1,9,10
 410 1500 410 1500 454 1411 c 1,11,12
 641 1530 641 1530 892 1530 c 0,13,14
 1236 1530 1236 1530 1474 1319 c 1,15,-1
 1370 1014 l 1,16,17
 1271 1348 1271 1348 981 1348 c 0,18,19
 793 1348 793 1348 658 1240 c 0,20,21
 480 1097 480 1097 480 814 c 2,22,-1
 480 487 l 1,23,-1
 1058 487 l 2,24,25
 1149 487 1149 487 1214 598 c 1,26,-1
 1235 598 l 1,27,-1
 1163 383 l 2,28,29
 1138 309 1138 309 1034 309 c 2,30,-1
 480 309 l 1,31,-1
 480 -386 l 1,32,-1
 353 -430 l 1,0,1
EndSplineSet
Validated: 19457
EndChar

StartChar: G
Encoding: 71 71 38
Width: 1749
GlyphClass: 2
Flags: W
HStem: -430 21G<1360.5 1509.73> -20 180<628.113 1015.83> 1348 182<767.907 1163.67>
VStem: 70 327<480.622 921.987> 1269 310<-342.65 61 287 608.65>
LayerCount: 2
Fore
SplineSet
891 -20 m 0,0,1
 548 -20 548 -20 310 191 c 0,2,3
 70 404 70 404 70 755 c 0,4,5
 70 1109 70 1109 310 1319 c 0,6,7
 551 1530 551 1530 892 1530 c 0,8,9
 1236 1530 1236 1530 1474 1319 c 1,10,-1
 1370 1014 l 1,11,12
 1271 1348 1271 1348 979 1348 c 0,13,14
 801 1348 801 1348 665 1239 c 0,15,16
 505 1111 505 1111 441 921 c 0,17,18
 397 792 397 792 397 641 c 0,19,20
 397 480 397 480 481 347 c 0,21,22
 600 160 600 160 805 160 c 0,23,24
 1022 160 1022 160 1170 319 c 1,25,-1
 1269 287 l 1,26,-1
 1269 652 l 1,27,-1
 1396 696 l 1,28,29
 1579 651 1579 651 1579 452 c 2,30,-1
 1579 -386 l 1,31,-1
 1452 -430 l 1,32,33
 1269 -385 1269 -385 1269 -186 c 2,34,-1
 1269 61 l 1,35,36
 1095 -20 1095 -20 891 -20 c 0,0,1
EndSplineSet
Validated: 19457
EndChar

StartChar: I
Encoding: 73 73 39
Width: 660
GlyphClass: 2
Flags: W
HStem: -20 21G<266.5 415.727> 1510 20G<242.566 393.5>
VStem: 175 310<67.3501 1381.56>
LayerCount: 2
Fore
SplineSet
358 -20 m 1,0,1
 175 25 175 25 175 224 c 2,2,-1
 175 1281 l 2,3,4
 175 1399 175 1399 70 1399 c 0,5,6
 32 1399 32 1399 -3 1390 c 1,7,-1
 -13 1424 l 1,8,-1
 302 1530 l 1,9,10
 485 1481 485 1481 485 1281 c 2,11,-1
 485 24 l 1,12,-1
 358 -20 l 1,0,1
EndSplineSet
Validated: 19457
EndChar

StartChar: J
Encoding: 74 74 40
Width: 660
GlyphClass: 2
Flags: W
HStem: -430 30<-5 22.0264> 1510 20G<242.566 393.5>
VStem: 175 310<-266.359 1381.56>
LayerCount: 2
Fore
SplineSet
-5 -430 m 1,0,1
 -5 -400 l 1,2,3
 175 -327 175 -327 175 -96 c 2,4,-1
 175 1281 l 2,5,6
 175 1399 175 1399 70 1399 c 0,7,8
 32 1399 32 1399 -3 1390 c 1,9,-1
 -13 1424 l 1,10,-1
 302 1530 l 1,11,12
 485 1481 485 1481 485 1281 c 2,13,-1
 485 -99 l 2,14,15
 485 -430 485 -430 -5 -430 c 1,0,1
EndSplineSet
Validated: 19457
EndChar

StartChar: L
Encoding: 76 76 41
Width: 1044
GlyphClass: 2
Flags: W
HStem: 0 178<480.005 975.942> 1510 20G<237.566 388.5>
VStem: 170 310<181.344 1381.56>
LayerCount: 2
Fore
SplineSet
294 0 m 1,0,1
 170 45 170 45 170 224 c 2,2,-1
 170 1281 l 2,3,4
 170 1399 170 1399 65 1399 c 0,5,6
 27 1399 27 1399 -8 1390 c 1,7,-1
 -18 1424 l 1,8,-1
 297 1530 l 1,9,10
 480 1481 480 1481 480 1281 c 2,11,-1
 480 224 l 2,12,13
 480 178 480 178 501 178 c 2,14,-1
 887 178 l 2,15,16
 978 178 978 178 1043 289 c 1,17,-1
 1064 289 l 1,18,-1
 992 74 l 2,19,20
 967 0 967 0 863 0 c 2,21,-1
 294 0 l 1,0,1
EndSplineSet
Validated: 19457
EndChar

StartChar: O
Encoding: 79 79 42
Width: 1786
GlyphClass: 2
Flags: W
HStem: -20 180<621.515 1009.86> 1348 182<774.851 1161.72>
VStem: 70 327<481.44 921.987> 1389 327<587.451 1024.6>
LayerCount: 2
Fore
SplineSet
892 -20 m 128,-1,1
 548 -20 548 -20 310 191 c 0,2,3
 70 406 70 406 70 755 c 0,4,5
 70 1109 70 1109 310 1319 c 0,6,7
 551 1530 551 1530 892 1530 c 0,8,9
 1245 1530 1245 1530 1474 1319 c 0,10,11
 1716 1098 1716 1098 1716 755 c 0,12,13
 1716 406 1716 406 1474 191 c 0,14,0
 1236 -20 1236 -20 892 -20 c 128,-1,1
805 160 m 0,15,16
 976 160 976 160 1119 268 c 0,17,18
 1278 388 1278 388 1345 586 c 0,19,20
 1389 716 1389 716 1389 874 c 0,21,22
 1389 1035 1389 1035 1310 1162 c 0,23,24
 1195 1348 1195 1348 981 1348 c 0,25,26
 806 1348 806 1348 668 1240 c 0,27,28
 506 1114 506 1114 441 921 c 0,29,30
 397 792 397 792 397 631 c 0,31,32
 397 469 397 469 476 345 c 0,33,34
 594 160 594 160 805 160 c 0,15,16
EndSplineSet
Validated: 19457
EndChar

StartChar: Q
Encoding: 81 81 43
Width: 1786
GlyphClass: 2
Flags: W
HStem: -430 24<1453.21 1478> -20 180<617.544 771> 1348 182<777.454 1159.63>
VStem: 70 327<480.622 921.987> 894 317<-239.217 -15.428> 1389 327<587.451 1023.76>
LayerCount: 2
Fore
SplineSet
832 -20 m 1,0,1
 548 -20 548 -20 310 191 c 0,2,3
 70 404 70 404 70 755 c 0,4,5
 70 1109 70 1109 310 1319 c 0,6,7
 551 1530 551 1530 892 1530 c 0,8,9
 1243 1530 1243 1530 1474 1319 c 0,10,11
 1716 1098 1716 1098 1716 755 c 0,12,13
 1716 406 1716 406 1474 191 c 0,14,15
 1274 14 1274 14 1242.5 -31 c 128,-1,16
 1211 -76 1211 -76 1211 -137 c 0,17,18
 1211 -347 1211 -347 1496 -406 c 1,19,-1
 1478 -430 l 1,20,21
 977 -408 977 -408 906 -172 c 0,22,23
 894 -132 894 -132 894 -82 c 0,24,25
 894 15 894 15 939 90 c 0,26,27
 992 178 992 178 1115 271 c 0,28,29
 1283 397 1283 397 1345 586 c 0,30,31
 1389 721 1389 721 1389 867 c 0,32,33
 1389 1027 1389 1027 1307 1160 c 0,34,35
 1190 1348 1190 1348 981 1348 c 0,36,37
 807 1348 807 1348 668 1237 c 0,38,39
 504 1106 504 1106 441 921 c 0,40,41
 397 792 397 792 397 641 c 0,42,43
 397 480 397 480 481 347 c 0,44,45
 600 160 600 160 771 160 c 1,46,-1
 832 -20 l 1,0,1
EndSplineSet
Validated: 19457
EndChar

StartChar: T
Encoding: 84 84 44
Width: 1608
GlyphClass: 2
Flags: W
HStem: -20 180<628.113 1011.9> 1330 180<68.8352 368 756.762 1497.93>
VStem: 70 327<480.622 918.831>
LayerCount: 2
Fore
SplineSet
891 -20 m 0,0,1
 548 -20 548 -20 310 191 c 0,2,3
 70 404 70 404 70 755 c 0,4,5
 70 1095 70 1095 331 1302 c 0,6,7
 349 1317 349 1317 368 1330 c 1,8,-1
 156 1330 l 2,9,10
 64 1330 64 1330 1 1221 c 1,11,-1
 -20 1221 l 1,12,-1
 52 1436 l 2,13,14
 77 1510 77 1510 181 1510 c 2,15,-1
 1411 1510 l 2,16,17
 1502 1510 1502 1510 1567 1621 c 1,18,-1
 1588 1621 l 1,19,-1
 1516 1406 l 2,20,21
 1491 1330 1491 1330 1387 1330 c 2,22,-1
 985 1330 l 2,23,24
 796 1330 796 1330 664 1232 c 0,25,26
 509 1117 509 1117 441 921 c 0,27,28
 397 792 397 792 397 641 c 0,29,30
 397 480 397 480 481 347 c 0,31,32
 600 160 600 160 805 160 c 0,33,34
 1022 160 1022 160 1170 319 c 1,35,-1
 1498 213 l 1,36,37
 1238 -20 1238 -20 891 -20 c 0,0,1
EndSplineSet
Validated: 19457
EndChar

StartChar: V
Encoding: 86 86 45
Width: 1866
GlyphClass: 2
Flags: W
HStem: -20 21G<908 1019.62> 1379 34<-14.2165 24.1108> 1480 30<1029 1076.19> 1510 20G<278.462 397>
VStem: 1453 343<770.59 1224.02>
LayerCount: 2
Fore
SplineSet
958 -20 m 1,0,1
 858 -20 858 -20 775 84 c 0,2,3
 370 589 370 589 171 1319 c 0,4,5
 152 1389 152 1389 53 1389 c 0,6,7
 18 1389 18 1389 -10 1379 c 1,8,-1
 -20 1413 l 1,9,-1
 340 1530 l 1,10,11
 454 1505 454 1505 491 1363 c 0,12,13
 667 700 667 700 1186 54 c 1,14,-1
 958 -20 l 1,0,1
1029 1510 m 1,15,16
 1796 1510 1796 1510 1796 1023 c 0,17,18
 1796 544 1796 544 1202 131 c 1,19,-1
 1184 155 l 1,20,21
 1453 640 1453 640 1453 1011 c 0,22,23
 1453 1399 1453 1399 1029 1480 c 1,24,-1
 1029 1510 l 1,15,16
EndSplineSet
Validated: 19457
EndChar

StartChar: Y
Encoding: 89 89 46
Width: 1866
GlyphClass: 2
Flags: W
HStem: -430 21G<423 1121.5> 1379 34<-14.2165 24.1108> 1480 30<1029 1076.19> 1510 20G<278.462 402>
VStem: 1453 343<790.075 1223.38>
LayerCount: 2
Fore
SplineSet
340 1530 m 1,0,1
 464 1503 464 1503 491 1363 c 0,2,3
 597 815 597 815 1018 262 c 1,4,-1
 790 188 l 1,5,6
 689 188 689 188 607 292 c 0,7,8
 265 726 265 726 171 1319 c 0,9,10
 159 1389 159 1389 53 1389 c 0,11,12
 18 1389 18 1389 -10 1379 c 1,13,-1
 -20 1413 l 1,14,-1
 340 1530 l 1,0,1
1029 1510 m 1,15,16
 1796 1510 1796 1510 1796 1023 c 0,17,18
 1796 296 1796 296 447 -430 c 1,19,-1
 423 -411 l 1,20,21
 1453 492 1453 492 1453 1011 c 0,22,23
 1453 1396 1453 1396 1029 1480 c 1,24,-1
 1029 1510 l 1,15,16
EndSplineSet
Validated: 19457
EndChar

StartChar: bracketleft
Encoding: 91 91 47
Width: 876
GlyphClass: 2
Flags: W
HStem: -250 174<490 814.656> 1586 174<490 812.594>
VStem: 170 320<-76 1586>
LayerCount: 2
Fore
SplineSet
170 -250 m 1,0,-1
 170 1702 l 1,1,-1
 341 1760 l 1,2,-1
 835 1760 l 1,3,-1
 856 1696 l 1,4,5
 824 1586 824 1586 654 1586 c 2,6,-1
 490 1586 l 1,7,-1
 490 -76 l 1,8,-1
 835 -76 l 1,9,-1
 856 -140 l 1,10,11
 826 -250 826 -250 662 -250 c 2,12,-1
 170 -250 l 1,0,-1
EndSplineSet
Validated: 19457
EndChar

StartChar: backslash
Encoding: 92 92 48
Width: 861
GlyphClass: 2
Flags: W
DStem2: 240 1690 43 1412 0.34179 -0.939776<79.5212 1806.23>
LayerCount: 2
Fore
SplineSet
745 -180 m 1,0,1
 622 -180 l 1,2,-1
 43 1412 l 2,3,4
 20 1475 20 1475 20 1527 c 0,5,6
 20 1632 20 1632 116 1690 c 1,7,-1
 240 1690 l 1,8,-1
 819 98 l 2,9,10
 841 36 841 36 841 -15 c 0,11,12
 841 -121 841 -121 745 -180 c 1,0,1
EndSplineSet
Validated: 19457
EndChar

StartChar: bracketright
Encoding: 93 93 49
Width: 876
GlyphClass: 2
Flags: W
HStem: -250 174<63.4062 386> 1586 174<61.3438 386>
VStem: 386 320<-76 1586>
LayerCount: 2
Fore
SplineSet
706 1760 m 1,0,-1
 706 -192 l 1,1,-1
 535 -250 l 1,2,-1
 41 -250 l 1,3,-1
 20 -186 l 1,4,5
 52 -76 52 -76 222 -76 c 2,6,-1
 386 -76 l 1,7,-1
 386 1586 l 1,8,-1
 41 1586 l 1,9,-1
 20 1650 l 1,10,11
 50 1760 50 1760 214 1760 c 2,12,-1
 706 1760 l 1,0,-1
EndSplineSet
Validated: 19457
EndChar

StartChar: asciicircum
Encoding: 94 94 50
Width: 888
GlyphClass: 2
Flags: W
HStem: 1159 432
LayerCount: 2
Fore
SplineSet
569 1591 m 1,0,1
 654 1380 654 1380 868 1242 c 1,2,-1
 622 1159 l 1,3,4
 486 1270 486 1270 444 1418 c 1,5,6
 405 1268 405 1268 266 1159 c 1,7,-1
 20 1242 l 1,8,9
 205 1350 205 1350 276 1493 c 1,10,-1
 569 1591 l 1,0,1
EndSplineSet
Validated: 19457
EndChar

StartChar: underscore
Encoding: 95 95 51
Width: 1219
GlyphClass: 2
Flags: W
HStem: -245 175<165.375 1056.5>
LayerCount: 2
Fore
SplineSet
1078 -70 m 1,0,-1
 1099 -136 l 1,1,2
 1067 -245 1067 -245 884 -245 c 2,3,-1
 141 -245 l 1,4,-1
 120 -180 l 1,5,6
 152 -70 152 -70 336 -70 c 2,7,-1
 1078 -70 l 1,0,-1
EndSplineSet
Validated: 19457
EndChar

StartChar: grave
Encoding: 96 96 52
Width: 478
GlyphClass: 2
Flags: W
HStem: 1160 400
VStem: 20 438
LayerCount: 2
Fore
SplineSet
277 1560 m 1,0,1
 408 1403 408 1403 458 1219 c 1,2,-1
 282 1160 l 1,3,4
 202 1337 202 1337 20 1473 c 1,5,-1
 277 1560 l 1,0,1
EndSplineSet
Validated: 19457
EndChar

StartChar: a
Encoding: 97 97 53
Width: 1280
GlyphClass: 2
Flags: W
HStem: -20 21G<1038.5 1159.21> 0 30<604.932 640> 971 34<367.784 405.881> 1100 20G<652.783 751.5>
VStem: 70 315<162.526 451.387>
LayerCount: 2
Fore
SplineSet
1098 -20 m 1,0,1
 979 6 979 6 953 104 c 0,2,3
 834 545 834 545 539 934 c 0,4,5
 504 980 504 980 445 980 c 0,6,7
 407 980 407 980 372 971 c 1,8,-1
 362 1005 l 1,9,-1
 714 1120 l 1,10,11
 789 1106 789 1106 849 1024 c 0,12,13
 1128 637 1128 637 1300 46 c 1,14,-1
 1098 -20 l 1,0,1
640 0 m 1,15,16
 70 0 70 0 70 300 c 0,17,18
 70 559 70 559 560 815 c 1,19,-1
 578 791 l 1,20,21
 385 568 385 568 385 304 c 0,22,23
 385 106 385 106 640 30 c 1,24,-1
 640 0 l 1,15,16
EndSplineSet
Validated: 19457
EndChar

StartChar: b
Encoding: 98 98 54
Width: 1388
GlyphClass: 2
Flags: W
HStem: -20 149<528.691 772.245> 971 149<643.208 897.088> 1510 20G<227.196 378.5>
VStem: 170 300<259.814 1386.44> 1010 308<401.172 772.818>
LayerCount: 2
Fore
SplineSet
691 -20 m 0,0,1
 426 -20 426 -20 283 145 c 0,2,3
 170 275 170 275 170 519 c 2,4,-1
 170 1285 l 2,5,6
 170 1403 170 1403 65 1403 c 0,7,8
 27 1403 27 1403 -8 1394 c 1,9,-1
 -18 1428 l 1,10,-1
 287 1530 l 1,11,12
 470 1481 470 1481 470 1281 c 2,13,-1
 470 519 l 2,14,15
 470 341 470 341 486 264 c 0,16,17
 514 129 514 129 629 129 c 0,18,19
 723 129 723 129 821 208 c 0,20,21
 931 298 931 298 978 435 c 0,22,23
 1010 529 1010 529 1010 636 c 0,24,25
 1010 754 1010 754 962 848 c 0,26,27
 899 971 899 971 759 971 c 0,28,29
 717 971 717 971 673 954 c 1,30,-1
 525 1102 l 1,31,32
 604 1120 604 1120 694 1120 c 0,33,34
 962 1120 962 1120 1135 964 c 0,35,36
 1318 799 1318 799 1318 550 c 0,37,38
 1318 297 1318 297 1135 136 c 0,39,40
 958 -20 958 -20 691 -20 c 0,0,1
EndSplineSet
Validated: 19457
EndChar

StartChar: c
Encoding: 99 99 55
Width: 1232
GlyphClass: 2
Flags: W
HStem: -20 149<491.395 775.246> 971 149<618.423 895.717>
VStem: 70 308<325.076 698.828>
LayerCount: 2
Fore
SplineSet
694 -20 m 0,0,1
 428 -20 428 -20 253 136 c 0,2,3
 70 299 70 299 70 550 c 0,4,5
 70 803 70 803 253 964 c 0,6,7
 430 1120 430 1120 694 1120 c 0,8,9
 922 1120 922 1120 1090 998 c 1,10,-1
 1001 736 l 1,11,12
 945 971 945 971 759 971 c 0,13,14
 664 971 664 971 567 892 c 0,15,16
 457 802 457 802 410 665 c 0,17,18
 378 571 378 571 378 464 c 0,19,20
 378 346 378 346 426 252 c 0,21,22
 489 129 489 129 629 129 c 0,23,24
 767 129 767 129 865 257 c 1,25,-1
 1162 161 l 1,26,27
 959 -20 959 -20 694 -20 c 0,0,1
EndSplineSet
Validated: 19457
EndChar

StartChar: e
Encoding: 101 101 56
Width: 1232
GlyphClass: 2
Flags: W
HStem: -20 149<491.395 775.246> 435 158<391 908.942> 971 149<618.423 895.717>
LayerCount: 2
Fore
SplineSet
694 -20 m 0,0,1
 428 -20 428 -20 253 136 c 0,2,3
 70 299 70 299 70 550 c 0,4,5
 70 803 70 803 253 964 c 0,6,7
 430 1120 430 1120 694 1120 c 0,8,9
 922 1120 922 1120 1090 998 c 1,10,-1
 1001 736 l 1,11,12
 945 971 945 971 759 971 c 0,13,14
 664 971 664 971 567 892 c 0,15,16
 457 802 457 802 410 665 c 0,17,18
 398 630 398 630 391 593 c 1,19,-1
 813 593 l 2,20,21
 904 593 904 593 969 704 c 1,22,-1
 990 704 l 1,23,-1
 925 509 l 2,24,25
 900 435 900 435 796 435 c 2,26,-1
 379 435 l 1,27,28
 384 334 384 334 426 252 c 0,29,30
 489 129 489 129 629 129 c 0,31,32
 767 129 767 129 865 257 c 1,33,-1
 1162 161 l 1,34,35
 959 -20 959 -20 694 -20 c 0,0,1
EndSplineSet
Validated: 19457
EndChar

StartChar: h
Encoding: 104 104 57
Width: 1388
GlyphClass: 2
Flags: W
HStem: -20 149<694 773.188> 971 149<610.271 895.882> 1510 20G<217.404 368.5>
VStem: 170 290<70.6775 806.71 1080 1390.76> 1010 308<404.478 772.872>
LayerCount: 2
Fore
SplineSet
353 -20 m 1,0,1
 170 29 170 29 170 229 c 2,2,-1
 170 1288 l 2,3,4
 170 1406 170 1406 65 1406 c 0,5,6
 27 1406 27 1406 -8 1397 c 1,7,-1
 -18 1431 l 1,8,-1
 277 1530 l 1,9,10
 460 1481 460 1481 460 1281 c 2,11,-1
 460 1080 l 1,12,13
 562 1120 562 1120 694 1120 c 0,14,15
 962 1120 962 1120 1135 964 c 0,16,17
 1318 799 1318 799 1318 550 c 0,18,19
 1318 296 1318 296 1135 136 c 0,20,21
 957 -20 957 -20 694 -20 c 1,22,-1
 644 129 l 1,23,24
 723 129 723 129 821 208 c 0,25,26
 931 298 931 298 978 435 c 0,27,28
 1010 529 1010 529 1010 636 c 0,29,30
 1010 761 1010 761 962 848 c 0,31,32
 894 971 894 971 759 971 c 0,33,34
 651 971 651 971 566 892 c 0,35,36
 460 794 460 794 460 581 c 2,37,-1
 460 16 l 1,38,-1
 353 -20 l 1,0,1
EndSplineSet
Validated: 19457
EndChar

StartChar: i
Encoding: 105 105 58
Width: 640
GlyphClass: 2
Flags: W
HStem: -20 21G<266.5 417.596> 1100 20G<222.404 373.5> 1170 370<181.14 418.86>
VStem: 118 364<1232.58 1477.42> 175 290<119.24 980.76>
LayerCount: 2
Fore
SplineSet
300 1540 m 128,-1,1
 376 1540 376 1540 429 1486 c 128,-1,2
 482 1432 482 1432 482 1355 c 128,-1,3
 482 1278 482 1278 429 1224 c 128,-1,4
 376 1170 376 1170 300 1170 c 128,-1,5
 224 1170 224 1170 171 1224 c 128,-1,6
 118 1278 118 1278 118 1355 c 128,-1,7
 118 1432 118 1432 171 1486 c 128,-1,0
 224 1540 224 1540 300 1540 c 128,-1,1
358 -20 m 1,8,9
 175 29 175 29 175 229 c 2,10,-1
 175 878 l 2,11,12
 175 996 175 996 70 996 c 0,13,14
 32 996 32 996 -3 987 c 1,15,-1
 -13 1021 l 1,16,-1
 282 1120 l 1,17,18
 465 1071 465 1071 465 871 c 2,19,-1
 465 222 l 2,20,21
 465 104 465 104 570 104 c 0,22,23
 608 104 608 104 643 113 c 1,24,-1
 653 79 l 1,25,-1
 358 -20 l 1,8,9
EndSplineSet
Validated: 19457
EndChar

StartChar: j
Encoding: 106 106 59
Width: 640
GlyphClass: 2
Flags: W
HStem: -430 21G<10 237.5> 1100 20G<222.404 373.5> 1170 370<181.14 418.86>
VStem: 118 364<1232.58 1477.42> 175 290<-152.034 980.76>
LayerCount: 2
Fore
SplineSet
300 1540 m 128,-1,1
 376 1540 376 1540 429 1486 c 128,-1,2
 482 1432 482 1432 482 1355 c 128,-1,3
 482 1278 482 1278 429 1224 c 128,-1,4
 376 1170 376 1170 300 1170 c 128,-1,5
 224 1170 224 1170 171 1224 c 128,-1,6
 118 1278 118 1278 118 1355 c 128,-1,7
 118 1432 118 1432 171 1486 c 128,-1,0
 224 1540 224 1540 300 1540 c 128,-1,1
10 -430 m 1,8,9
 10 -410 l 1,10,11
 175 -248 175 -248 175 77 c 2,12,-1
 175 878 l 2,13,14
 175 996 175 996 70 996 c 0,15,16
 32 996 32 996 -3 987 c 1,17,-1
 -13 1021 l 1,18,-1
 282 1120 l 1,19,20
 465 1071 465 1071 465 871 c 2,21,-1
 465 74 l 2,22,23
 465 -348 465 -348 10 -430 c 1,8,9
EndSplineSet
Validated: 19457
EndChar

StartChar: l
Encoding: 108 108 60
Width: 640
GlyphClass: 2
Flags: W
HStem: -20 21G<266.5 417.596> 1510 20G<222.404 373.5>
VStem: 175 290<119.24 1390.76>
LayerCount: 2
Fore
SplineSet
358 -20 m 1,0,1
 175 29 175 29 175 229 c 2,2,-1
 175 1288 l 2,3,4
 175 1406 175 1406 70 1406 c 0,5,6
 32 1406 32 1406 -3 1397 c 1,7,-1
 -13 1431 l 1,8,-1
 282 1530 l 1,9,10
 465 1481 465 1481 465 1281 c 2,11,-1
 465 222 l 2,12,13
 465 104 465 104 570 104 c 0,14,15
 608 104 608 104 643 113 c 1,16,-1
 653 79 l 1,17,-1
 358 -20 l 1,0,1
EndSplineSet
Validated: 19457
EndChar

StartChar: m
Encoding: 109 109 61
Width: 2136
GlyphClass: 2
Flags: W
HStem: -20 149<492.894 644 1442 1521.19> 971 149<615.755 859.385 1369.24 1643.88>
VStem: 70 308<327.182 698.828> 918 300<66.5203 806.71> 1758 308<404.478 772.872>
CounterMasks: 1 38
LayerCount: 2
Fore
SplineSet
1104 -20 m 1,0,1
 918 26 918 26 918 219 c 2,2,-1
 918 581 l 2,3,4
 918 759 918 759 902 836 c 0,5,6
 874 971 874 971 759 971 c 0,7,8
 665 971 665 971 567 892 c 0,9,10
 457 802 457 802 410 665 c 0,11,12
 378 571 378 571 378 464 c 0,13,14
 378 346 378 346 426 252 c 0,15,16
 489 129 489 129 644 129 c 1,17,-1
 694 -20 l 1,18,19
 428 -20 428 -20 253 136 c 0,20,21
 70 301 70 301 70 550 c 0,22,23
 70 803 70 803 253 964 c 0,24,25
 430 1120 430 1120 697 1120 c 0,26,27
 929 1120 929 1120 1068 993 c 1,28,29
 1208 1120 1208 1120 1442 1120 c 0,30,31
 1710 1120 1710 1120 1883 964 c 0,32,33
 2066 799 2066 799 2066 550 c 0,34,35
 2066 296 2066 296 1883 136 c 0,36,37
 1705 -20 1705 -20 1442 -20 c 1,38,-1
 1392 129 l 1,39,40
 1471 129 1471 129 1569 208 c 0,41,42
 1679 298 1679 298 1726 435 c 0,43,44
 1758 529 1758 529 1758 636 c 0,45,46
 1758 761 1758 761 1710 848 c 0,47,48
 1642 971 1642 971 1507 971 c 0,49,50
 1409 971 1409 971 1324 892 c 0,51,52
 1218 794 1218 794 1218 581 c 2,53,-1
 1218 16 l 1,54,-1
 1104 -20 l 1,0,1
EndSplineSet
Validated: 19457
EndChar

StartChar: n
Encoding: 110 110 62
Width: 1432
GlyphClass: 2
Flags: W
HStem: -20 21G<223 335.448 821.5 1061.7> 989 34<-9.21647 28.747> 1100 20G<219.969 337 1095 1208.5>
VStem: 174 190<17.9189 618> 1072 190<243 1019.02>
LayerCount: 2
Fore
SplineSet
272 -20 m 1,0,1
 174 24 174 24 174 152 c 2,2,-1
 174 910 l 2,3,4
 174 998 174 998 68 998 c 0,5,6
 30 998 30 998 -5 989 c 1,7,-1
 -15 1023 l 1,8,-1
 281 1120 l 1,9,10
 393 1104 393 1104 451 985 c 0,11,12
 690 502 690 502 1072 243 c 1,13,-1
 1072 960 l 2,14,15
 1072 1021 1072 1021 1016 1021 c 0,16,17
 978 1021 978 1021 943 1012 c 1,18,-1
 933 1046 l 1,19,-1
 1155 1120 l 1,20,21
 1262 1072 1262 1072 1262 950 c 2,22,-1
 1262 66 l 1,23,-1
 1001 -20 l 1,24,25
 642 172 642 172 364 618 c 1,26,-1
 364 9 l 1,27,-1
 272 -20 l 1,0,1
EndSplineSet
Validated: 1
EndChar

StartChar: o
Encoding: 111 111 63
Width: 1388
GlyphClass: 2
Flags: W
HStem: -20 149<491.395 769.269> 971 149<618.61 895.882>
VStem: 70 308<327.182 698.828> 1010 308<404.478 772.872>
LayerCount: 2
Fore
SplineSet
629 129 m 0,0,1
 723 129 723 129 821 208 c 0,2,3
 931 298 931 298 978 435 c 0,4,5
 1010 529 1010 529 1010 636 c 0,6,7
 1010 761 1010 761 962 848 c 0,8,9
 894 971 894 971 759 971 c 0,10,11
 665 971 665 971 567 892 c 0,12,13
 456 802 456 802 410 665 c 0,14,15
 378 571 378 571 378 464 c 0,16,17
 378 346 378 346 426 252 c 0,18,19
 489 129 489 129 629 129 c 0,0,1
694 -20 m 0,20,21
 428 -20 428 -20 253 136 c 0,22,23
 70 301 70 301 70 550 c 0,24,25
 70 803 70 803 253 964 c 0,26,27
 430 1120 430 1120 694 1120 c 0,28,29
 962 1120 962 1120 1135 964 c 0,30,31
 1318 799 1318 799 1318 550 c 0,32,33
 1318 296 1318 296 1135 136 c 0,34,35
 957 -20 957 -20 694 -20 c 0,20,21
EndSplineSet
Validated: 19457
EndChar

StartChar: p
Encoding: 112 112 64
Width: 1388
GlyphClass: 2
Flags: W
HStem: -430 21G<261.5 412.444> -20 149<694 773.188> 971 149<610.344 895.882>
VStem: 170 290<-339.323 806.71> 1010 308<404.478 772.872>
LayerCount: 2
Fore
SplineSet
353 -430 m 1,0,1
 170 -381 170 -381 170 -181 c 2,2,-1
 170 878 l 2,3,4
 170 996 170 996 65 996 c 0,5,6
 27 996 27 996 -8 987 c 1,7,-1
 -18 1021 l 1,8,-1
 277 1120 l 1,9,10
 355 1099 355 1099 400 1051 c 1,11,12
 521 1120 521 1120 694 1120 c 0,13,14
 962 1120 962 1120 1135 964 c 0,15,16
 1318 799 1318 799 1318 550 c 0,17,18
 1318 296 1318 296 1135 136 c 0,19,20
 957 -20 957 -20 694 -20 c 1,21,-1
 644 129 l 1,22,23
 723 129 723 129 821 208 c 0,24,25
 931 298 931 298 978 435 c 0,26,27
 1010 529 1010 529 1010 636 c 0,28,29
 1010 761 1010 761 962 848 c 0,30,31
 894 971 894 971 759 971 c 0,32,33
 651 971 651 971 566 892 c 0,34,35
 460 794 460 794 460 581 c 2,36,-1
 460 -394 l 1,37,-1
 353 -430 l 1,0,1
EndSplineSet
Validated: 19457
EndChar

StartChar: v
Encoding: 118 118 65
Width: 1443
GlyphClass: 2
Flags: W
HStem: -20 21G<689 799.394> 1070 30<739 778.006> 1100 20G<265.826 372.5>
VStem: 1048 325<546.879 885.092>
LayerCount: 2
Fore
SplineSet
740 -20 m 1,0,1
 638 -20 638 -20 587 44 c 0,2,3
 271 440 271 440 167 897 c 0,4,5
 148 980 148 980 63 980 c 0,6,7
 25 980 25 980 -10 971 c 1,8,-1
 -20 1005 l 1,9,-1
 326 1120 l 1,10,11
 419 1089 419 1089 449 975 c 0,12,13
 570 501 570 501 936 46 c 1,14,-1
 740 -20 l 1,0,1
739 1100 m 1,15,16
 1373 1100 1373 1100 1373 735 c 0,17,18
 1373 442 1373 442 935 121 c 1,19,-1
 917 145 l 1,20,21
 1048 458 1048 458 1048 689 c 0,22,23
 1048 991 1048 991 739 1070 c 1,24,-1
 739 1100 l 1,15,16
EndSplineSet
Validated: 19457
EndChar

StartChar: w
Encoding: 119 119 66
Width: 2078
GlyphClass: 2
Flags: W
HStem: -20 21G<689 799.394 1324 1434.39> 1070 30<1374 1413.01> 1100 20G<265.826 372.5 900.826 1007.5>
VStem: 1683 325<546.879 885.092>
LayerCount: 2
Fore
SplineSet
1375 -20 m 1,0,1
 1273 -20 1273 -20 1222 44 c 0,2,3
 906 440 906 440 802 897 c 0,4,5
 783 980 783 980 698 980 c 0,6,7
 660 980 660 980 625 971 c 1,8,-1
 615 1005 l 1,9,-1
 961 1120 l 1,10,11
 1054 1089 1054 1089 1084 975 c 0,12,13
 1205 501 1205 501 1571 46 c 1,14,-1
 1375 -20 l 1,0,1
740 -20 m 1,15,16
 638 -20 638 -20 587 44 c 0,17,18
 271 440 271 440 167 897 c 0,19,20
 148 980 148 980 63 980 c 0,21,22
 25 980 25 980 -10 971 c 1,23,-1
 -20 1005 l 1,24,-1
 326 1120 l 1,25,26
 419 1089 419 1089 449 975 c 0,27,28
 570 501 570 501 936 46 c 1,29,-1
 740 -20 l 1,15,16
1374 1100 m 1,30,31
 2008 1100 2008 1100 2008 735 c 0,32,33
 2008 442 2008 442 1570 121 c 1,34,-1
 1552 145 l 1,35,36
 1683 458 1683 458 1683 689 c 0,37,38
 1683 991 1683 991 1374 1070 c 1,39,-1
 1374 1100 l 1,30,31
EndSplineSet
Validated: 19457
EndChar

StartChar: braceleft
Encoding: 123 123 67
Width: 856
GlyphClass: 2
Flags: W
HStem: 734 50<131.094 274.777>
VStem: 308 290<-110.76 717.376 800.594 1621.25>
LayerCount: 2
Fore
SplineSet
491 -250 m 1,0,1
 308 -201 308 -201 308 -1 c 2,2,-1
 308 616 l 2,3,4
 308 734 308 734 203 734 c 0,5,6
 165 734 165 734 130 725 c 1,7,-1
 120 759 l 1,8,-1
 130 793 l 1,9,10
 165 784 165 784 202 784 c 0,11,12
 307 784 307 784 307 902 c 2,13,-1
 307 1511 l 2,14,15
 307 1711 307 1711 490 1760 c 1,16,-1
 785 1661 l 1,17,-1
 775 1627 l 1,18,19
 740 1636 740 1636 702 1636 c 0,20,21
 597 1636 597 1636 597 1518 c 2,22,-1
 597 909 l 2,23,24
 597 804 597 804 491 762 c 1,25,26
 598 708 598 708 598 609 c 2,27,-1
 598 -8 l 2,28,29
 598 -126 598 -126 703 -126 c 0,30,31
 741 -126 741 -126 776 -117 c 1,32,-1
 786 -151 l 1,33,-1
 491 -250 l 1,0,1
EndSplineSet
Validated: 19457
EndChar

StartChar: bar
Encoding: 124 124 68
Width: 720
GlyphClass: 2
Flags: W
VStem: 220 280<-108.116 1617.88>
LayerCount: 2
Fore
SplineSet
383 -180 m 1,0,1
 220 -146 220 -146 220 54 c 2,2,-1
 220 1649 l 1,3,-1
 337 1690 l 1,4,5
 500 1656 500 1656 500 1455 c 2,6,-1
 500 -140 l 1,7,-1
 383 -180 l 1,0,1
EndSplineSet
Validated: 19457
EndChar

StartChar: braceright
Encoding: 125 125 69
Width: 856
GlyphClass: 2
Flags: W
HStem: 734 50<581.223 724.906>
VStem: 258 290<-110.76 717.376 800.594 1621.25>
LayerCount: 2
Fore
SplineSet
365 -250 m 1,0,1
 70 -151 l 1,2,-1
 80 -117 l 1,3,4
 115 -126 115 -126 153 -126 c 0,5,6
 258 -126 258 -126 258 -8 c 2,7,-1
 258 609 l 2,8,9
 258 708 258 708 365 762 c 1,10,11
 259 804 259 804 259 909 c 2,12,-1
 259 1518 l 2,13,14
 259 1636 259 1636 154 1636 c 0,15,16
 116 1636 116 1636 81 1627 c 1,17,-1
 71 1661 l 1,18,-1
 366 1760 l 1,19,20
 549 1711 549 1711 549 1511 c 2,21,-1
 549 902 l 2,22,23
 549 784 549 784 654 784 c 0,24,25
 691 784 691 784 726 793 c 1,26,-1
 736 759 l 1,27,-1
 726 725 l 1,28,29
 691 734 691 734 653 734 c 0,30,31
 548 734 548 734 548 616 c 2,32,-1
 548 -1 l 2,33,34
 548 -201 548 -201 365 -250 c 1,0,1
EndSplineSet
Validated: 19457
EndChar

StartChar: asciitilde
Encoding: 126 126 70
Width: 1307
GlyphClass: 2
Flags: W
HStem: 497 237<735.537 960.178> 743 237<344.954 569.15>
LayerCount: 2
Fore
SplineSet
1187 952 m 1,0,-1
 1058 565 l 1,1,2
 962 497 962 497 855 497 c 0,3,4
 729 497 729 497 633 668 c 2,5,-1
 624 684 l 2,6,7
 591 743 591 743 514 743 c 256,8,9
 304 743 304 743 192 525 c 1,10,-1
 120 525 l 1,11,-1
 250 913 l 1,12,13
 337 980 337 980 448 980 c 0,14,15
 576 980 576 980 676 802 c 2,16,-1
 685 786 l 2,17,18
 714 734 714 734 791 734 c 256,19,20
 1000 734 1000 734 1115 952 c 1,21,-1
 1187 952 l 1,0,-1
EndSplineSet
Validated: 19457
EndChar

StartChar: exclamdown
Encoding: 161 161 72
Width: 774
GlyphClass: 2
Flags: W
HStem: 750 370<277.14 514.86>
VStem: 190 310<-358.853 647.967> 214 364<812.578 1057.42> 223 293<363 656>
LayerCount: 2
Fore
SplineSet
396 1120 m 128,-1,1
 472 1120 472 1120 525 1066 c 128,-1,2
 578 1012 578 1012 578 935 c 128,-1,3
 578 858 578 858 525 804 c 128,-1,4
 472 750 472 750 396 750 c 128,-1,5
 320 750 320 750 267 804 c 128,-1,6
 214 858 214 858 214 935 c 128,-1,7
 214 1012 214 1012 267 1066 c 128,-1,0
 320 1120 320 1120 396 1120 c 128,-1,1
553 -410 m 1,8,-1
 211 -410 l 17,9,10
 190 -193 190 -193 190 7 c 0,11,12
 190 342 190 342 223 656 c 1,13,-1
 516 656 l 1,14,15
 500 456 500 456 500 260 c 0,16,17
 500 -103 500 -103 553 -410 c 1,8,-1
EndSplineSet
Validated: 19457
EndChar

StartChar: cent
Encoding: 162 162 73
Width: 1232
GlyphClass: 2
Flags: W
HStem: -17 146<489.261 617> 971 146<767 892.517>
VStem: 70 308<325.076 698.828> 617 150<-161.325 -12.2568 167 928 1112.26 1260.88>
LayerCount: 2
Fore
SplineSet
617 -17 m 1,0,1
 402 3 402 3 253 136 c 0,2,3
 70 299 70 299 70 550 c 0,4,5
 70 803 70 803 253 964 c 0,6,7
 404 1097 404 1097 617 1117 c 1,8,-1
 617 1272 l 1,9,-1
 670 1289 l 1,10,11
 767 1256 767 1256 767 1163 c 2,12,-1
 767 1117 l 1,13,14
 949 1100 949 1100 1090 998 c 1,15,-1
 1001 736 l 1,16,17
 946 966 946 966 767 971 c 1,18,-1
 767 167 l 1,19,20
 820 199 820 199 865 257 c 1,21,-1
 1162 161 l 1,22,23
 987 5 987 5 767 -16 c 1,24,-1
 767 -172 l 1,25,-1
 714 -189 l 1,26,27
 617 -157 617 -157 617 -63 c 2,28,-1
 617 -17 l 1,0,1
617 928 m 1,29,30
 592 913 592 913 567 892 c 0,31,32
 457 802 457 802 410 665 c 0,33,34
 378 571 378 571 378 464 c 0,35,36
 378 346 378 346 426 252 c 0,37,38
 486 134 486 134 617 129 c 1,39,-1
 617 928 l 1,29,30
EndSplineSet
Validated: 19457
EndChar

StartChar: sterling
Encoding: 163 163 74
Width: 1283
GlyphClass: 2
Flags: W
HStem: 0 178<480.005 1174.94> 487 150<47.6753 170 480 943.884> 708 150<47.6753 170 480 943.884> 1381 149<630.422 897.299>
VStem: 170 310<179.69 487 637 708 858 1215.25>
LayerCount: 2
Fore
SplineSet
294 0 m 1,0,1
 170 59 170 59 170 224 c 2,2,-1
 170 487 l 1,3,-1
 37 487 l 1,4,-1
 20 540 l 1,5,6
 52 637 52 637 146 637 c 2,7,-1
 170 637 l 1,8,-1
 170 708 l 1,9,-1
 37 708 l 1,10,-1
 20 761 l 1,11,12
 52 858 52 858 146 858 c 2,13,-1
 170 858 l 1,14,-1
 170 991 l 2,15,16
 170 1246 170 1246 294 1378 c 0,17,18
 437 1530 437 1530 694 1530 c 0,19,20
 922 1530 922 1530 1090 1408 c 1,21,-1
 1001 1146 l 1,22,23
 945 1381 945 1381 769 1381 c 0,24,25
 671 1381 671 1381 586 1302 c 0,26,27
 480 1204 480 1204 480 991 c 2,28,-1
 480 858 l 1,29,-1
 955 858 l 1,30,-1
 972 805 l 1,31,32
 939 708 939 708 846 708 c 2,33,-1
 480 708 l 1,34,-1
 480 637 l 1,35,-1
 955 637 l 1,36,-1
 972 584 l 1,37,38
 939 487 939 487 846 487 c 2,39,-1
 480 487 l 1,40,-1
 480 224 l 2,41,42
 480 178 480 178 501 178 c 2,43,-1
 1086 178 l 2,44,45
 1177 178 1177 178 1242 289 c 1,46,-1
 1263 289 l 1,47,-1
 1191 74 l 2,48,49
 1166 0 1166 0 1062 0 c 2,50,-1
 294 0 l 1,0,1
EndSplineSet
Validated: 19457
EndChar

StartChar: currency
Encoding: 164 164 75
Width: 1664
GlyphClass: 2
Flags: W
HStem: 185 149<637.058 919.214> 1176 149<762.435 1043.55>
VStem: 217 308<531.648 902.478> 1157 308<608.531 979.031>
DStem2: 299 1466 120 1287 0.703992 -0.710207<1.11249 294.718 1482.59 1768.49> 120 208 298 30 0.703995 0.710205<0 303.215 1489.61 1768.8>
LayerCount: 2
Fore
SplineSet
776 334 m 0,0,1
 870 334 870 334 968 413 c 0,2,3
 1078 503 1078 503 1125 640 c 0,4,5
 1157 734 1157 734 1157 841 c 0,6,7
 1157 966 1157 966 1109 1053 c 0,8,9
 1041 1176 1041 1176 906 1176 c 0,10,11
 812 1176 812 1176 714 1097 c 0,12,13
 604 1007 604 1007 557 870 c 0,14,15
 525 776 525 776 525 669 c 0,16,17
 525 551 525 551 573 457 c 0,18,19
 636 334 636 334 776 334 c 0,0,1
841 1325 m 0,20,21
 1021 1325 1021 1325 1158 1255 c 1,22,-1
 1367 1466 l 1,23,-1
 1544 1287 l 1,24,-1
 1353 1094 l 1,25,26
 1465 950 1465 950 1465 755 c 0,27,28
 1465 551 1465 551 1347 408 c 1,29,-1
 1544 210 l 1,30,-1
 1366 30 l 1,31,-1
 1147 251 l 1,32,33
 1012 185 1012 185 841 185 c 0,34,35
 661 185 661 185 523 256 c 1,36,-1
 298 30 l 1,37,-1
 120 208 l 1,38,-1
 328 418 l 1,39,40
 217 561 217 561 217 755 c 0,41,42
 217 946 217 946 321 1084 c 1,43,-1
 120 1287 l 1,44,-1
 299 1466 l 1,45,-1
 514 1249 l 1,46,47
 656 1325 656 1325 841 1325 c 0,20,21
EndSplineSet
Validated: 19457
EndChar

StartChar: yen
Encoding: 165 165 76
Width: 1615
GlyphClass: 2
Flags: W
HStem: -20 21G<826.5 921.93> 203 150<299.675 688 1082 1360.88> 424 150<299.675 605 1008 1360.88> 1370 34<-9.21647 28.8044> 1480 30<911 950.006> 1510 20G<308.889 400.5>
VStem: 1197 348<992.922 1322.2>
LayerCount: 2
Fore
SplineSet
861 -20 m 1,0,1
 792 4 792 4 775 67 c 0,2,3
 757 136 757 136 737 203 c 1,4,-1
 289 203 l 1,5,-1
 272 256 l 1,6,7
 304 353 304 353 398 353 c 2,8,-1
 688 353 l 1,9,10
 676 389 676 389 663 424 c 1,11,-1
 289 424 l 1,12,-1
 272 477 l 1,13,14
 304 574 304 574 398 574 c 2,15,-1
 605 574 l 1,16,17
 428 999 428 999 162 1333 c 0,18,19
 126 1379 126 1379 68 1379 c 0,20,21
 30 1379 30 1379 -5 1370 c 1,22,-1
 -15 1404 l 1,23,-1
 370 1530 l 1,24,25
 431 1508 431 1508 478 1445 c 0,26,27
 752 1078 752 1078 951 574 c 1,28,-1
 1372 574 l 1,29,-1
 1389 521 l 1,30,31
 1356 424 1356 424 1263 424 c 2,32,-1
 1008 424 l 1,33,34
 1021 389 1021 389 1033 353 c 1,35,-1
 1372 353 l 1,36,-1
 1389 300 l 1,37,38
 1356 203 1356 203 1263 203 c 2,39,-1
 1082 203 l 1,40,41
 1103 136 1103 136 1123 66 c 1,42,-1
 861 -20 l 1,0,1
911 1510 m 1,43,44
 1545 1510 1545 1510 1545 1165 c 0,45,46
 1545 844 1545 844 1013 631 c 1,47,-1
 995 655 l 1,48,49
 1197 888 1197 888 1197 1158 c 0,50,51
 1197 1408 1197 1408 911 1480 c 1,52,-1
 911 1510 l 1,43,44
EndSplineSet
Validated: 19457
EndChar

StartChar: brokenbar
Encoding: 166 166 77
Width: 720
GlyphClass: 2
Flags: W
VStem: 220 280<-108.615 605.381 904.385 1618.38>
LayerCount: 2
Fore
SplineSet
383 -180 m 1,0,1
 220 -147 220 -147 220 54 c 2,2,-1
 220 636 l 1,3,-1
 337 677 l 1,4,5
 500 644 500 644 500 442 c 2,6,-1
 500 -140 l 1,7,-1
 383 -180 l 1,0,1
337 1690 m 1,8,9
 500 1657 500 1657 500 1455 c 2,10,-1
 500 873 l 1,11,-1
 383 833 l 1,12,13
 220 866 220 866 220 1067 c 2,14,-1
 220 1649 l 1,15,-1
 337 1690 l 1,8,9
EndSplineSet
Validated: 19457
EndChar

StartChar: section
Encoding: 167 167 78
Width: 1199
GlyphClass: 2
Flags: W
HStem: -20 143<403.888 650.329> 413 159<496.1 676.086> 938 159<522.914 702.9> 1387 143<548.671 795.112>
VStem: 120 324<605.801 852.604> 179 309<1120.72 1326.29> 711 309<183.715 389.278> 755 324<657.396 904.199>
LayerCount: 2
Fore
SplineSet
565 -20 m 0,0,1
 386 -20 386 -20 241 60 c 1,2,-1
 325 306 l 1,3,4
 376 123 376 123 523 123 c 0,5,6
 567 123 567 123 613 144 c 0,7,8
 657 164 657 164 681 201 c 0,9,10
 711 248 711 248 711 303 c 0,11,12
 711 357 711 357 677 387 c 0,13,14
 648 413 648 413 586 413 c 0,15,16
 370 413 370 413 249 501 c 0,17,18
 120 595 120 595 120 739 c 128,-1,19
 120 883 120 883 235 979 c 1,20,-1
 512 885 l 1,21,22
 487 856 487 856 469 816 c 0,23,24
 444 760 444 760 444 705 c 0,25,26
 444 639 444 639 495 599 c 0,27,28
 530 572 530 572 591 572 c 0,29,30
 792 572 792 572 908 486 c 0,31,32
 1020 402 1020 402 1020 280 c 0,33,34
 1020 154 1020 154 908 72 c 0,35,36
 783 -20 783 -20 565 -20 c 0,0,1
634 1530 m 0,37,38
 813 1530 813 1530 958 1450 c 1,39,-1
 874 1204 l 1,40,41
 823 1387 823 1387 676 1387 c 0,42,43
 632 1387 632 1387 586 1366 c 0,44,45
 542 1346 542 1346 518 1309 c 0,46,47
 488 1262 488 1262 488 1207 c 0,48,49
 488 1153 488 1153 522 1123 c 0,50,51
 551 1097 551 1097 613 1097 c 0,52,53
 829 1097 829 1097 950 1009 c 0,54,55
 1079 915 1079 915 1079 771 c 128,-1,56
 1079 627 1079 627 964 531 c 1,57,-1
 687 625 l 1,58,59
 712 654 712 654 730 694 c 0,60,61
 755 750 755 750 755 805 c 0,62,63
 755 871 755 871 704 911 c 0,64,65
 669 938 669 938 608 938 c 0,66,67
 407 938 407 938 291 1024 c 0,68,69
 179 1108 179 1108 179 1230 c 0,70,71
 179 1356 179 1356 291 1438 c 0,72,73
 416 1530 416 1530 634 1530 c 0,37,38
EndSplineSet
Validated: 19457
EndChar

StartChar: dieresis
Encoding: 168 168 79
Width: 698
GlyphClass: 2
Flags: W
HStem: 1180 314<66.4111 283.589 414.411 631.589>
VStem: 20 310<1226.93 1446.56> 368 310<1226.93 1446.56>
LayerCount: 2
Fore
SplineSet
523 1494 m 128,-1,1
 588 1494 588 1494 633 1448 c 128,-1,2
 678 1402 678 1402 678 1336.5 c 128,-1,3
 678 1271 678 1271 633 1225.5 c 128,-1,4
 588 1180 588 1180 523 1180 c 128,-1,5
 458 1180 458 1180 413 1225.5 c 128,-1,6
 368 1271 368 1271 368 1336.5 c 128,-1,7
 368 1402 368 1402 413 1448 c 128,-1,0
 458 1494 458 1494 523 1494 c 128,-1,1
175 1494 m 128,-1,9
 240 1494 240 1494 285 1448 c 128,-1,10
 330 1402 330 1402 330 1336.5 c 128,-1,11
 330 1271 330 1271 285 1225.5 c 128,-1,12
 240 1180 240 1180 175 1180 c 128,-1,13
 110 1180 110 1180 65 1225.5 c 128,-1,14
 20 1271 20 1271 20 1336.5 c 128,-1,15
 20 1402 20 1402 65 1448 c 128,-1,8
 110 1494 110 1494 175 1494 c 128,-1,9
EndSplineSet
Validated: 19457
EndChar

StartChar: copyright
Encoding: 169 169 80
Width: 1341
GlyphClass: 2
Flags: W
HStem: 386 73<484.363 848.202> 546 130<531.552 790.507> 1230 130<593.843 859.565> 1453 77<486.855 854.866>
VStem: 120 74<768.815 1151.31> 254 203<760.206 1084.11> 1146 75<757.376 1158.43>
LayerCount: 2
Fore
SplineSet
686 1360 m 0,0,1
 865 1360 865 1360 999 1241 c 1,2,-1
 937 1058 l 1,3,4
 888 1230 888 1230 729 1230 c 0,5,6
 648 1230 648 1230 577 1174 c 0,7,8
 457 1078 457 1078 457 896 c 0,9,10
 457 821 457 821 496 760 c 0,11,12
 551 676 551 676 646.5 676 c 128,-1,13
 742 676 742 676 818 758 c 1,14,-1
 1027 690 l 1,15,16
 886 546 886 546 685 546 c 0,17,18
 505 546 505 546 379 658 c 0,19,20
 254 769 254 769 254 954 c 128,-1,21
 254 1139 254 1139 381 1250 c 0,22,23
 508 1360 508 1360 686 1360 c 0,0,1
671 1530 m 0,24,25
 913 1530 913 1530 1069 1357 c 0,26,27
 1221 1188 1221 1188 1221 953 c 0,28,29
 1221 701 1221 701 1060 549 c 0,30,31
 889 386 889 386 669 386 c 0,32,33
 446 386 446 386 281 549 c 0,34,35
 120 708 120 708 120 953 c 0,36,37
 120 1197 120 1197 278 1362 c 0,38,39
 439 1530 439 1530 671 1530 c 0,24,25
669 1453 m 0,40,41
 479 1453 479 1453 337 1312 c 0,42,43
 194 1170 194 1170 194 953 c 0,44,45
 194 760 194 760 334 605 c 0,46,47
 465 459 465 459 671 459 c 0,48,49
 862 459 862 459 1007 605 c 0,50,51
 1146 745 1146 745 1146 953 c 0,52,53
 1146 1174 1146 1174 1009 1309 c 0,54,55
 863 1453 863 1453 669 1453 c 0,40,41
EndSplineSet
Validated: 19457
EndChar

StartChar: ordfeminine
Encoding: 170 170 81
Width: 692
GlyphClass: 2
Flags: W
HStem: 710 174<58.6272 632.912> 929 30<305.645 345> 1413 54<172.752 204.691> 1510 20G<292.048 378>
VStem: 20 197<1002.02 1205.58> 462 210<951.344 1091.14>
LayerCount: 2
Fore
SplineSet
651 884 m 1,0,-1
 672 819 l 1,1,2
 639 710 639 710 487 710 c 2,3,-1
 41 710 l 1,4,-1
 20 775 l 1,5,6
 52 884 52 884 205 884 c 2,7,-1
 651 884 l 1,0,-1
555 918 m 1,8,9
 479 934 479 934 462 996 c 0,10,11
 401 1217 401 1217 258 1406 c 24,12,13
 247 1421 247 1421 228 1421 c 0,14,15
 210 1421 210 1421 177 1413 c 1,16,-1
 161 1467 l 1,17,-1
 353 1530 l 1,18,19
 403 1521 403 1521 438 1473 c 0,20,21
 579 1279 579 1279 672 956 c 1,22,-1
 555 918 l 1,8,9
345 929 m 1,23,24
 20 929 20 929 20 1099 c 0,25,26
 20 1226 20 1226 261 1349 c 1,27,-1
 279 1326 l 1,28,29
 217 1212 217 1212 217 1101 c 0,30,31
 217 995 217 995 345 959 c 1,32,-1
 345 929 l 1,23,24
EndSplineSet
Validated: 19457
EndChar

StartChar: guillemotleft
Encoding: 171 171 82
Width: 1175
GlyphClass: 2
Flags: W
DStem2: 332 766 141 668 0.573038 -0.819529<0 461.33> 456 1296 332 766 0.575133 0.81806<-504.888 -19.7172> 733 766 542 668 0.573038 -0.819529<0 461.33> 857 1296 733 766 0.575133 0.81806<-504.888 -19.7172>
LayerCount: 2
Fore
SplineSet
857 1296 m 1,0,-1
 957 1268 l 1,1,2
 978 1232 978 1232 978 1189 c 0,3,4
 978 1120 978 1120 918 1033 c 2,5,-1
 733 766 l 1,6,-1
 1005 377 l 1,7,-1
 937 286 l 1,8,9
 923 283 923 283 909 283 c 0,10,11
 814 283 814 283 730 402 c 2,12,-1
 542 668 l 1,13,14
 521 705 521 705 521 747 c 0,15,16
 521 818 521 818 580 902 c 2,17,-1
 857 1296 l 1,0,-1
456 1296 m 1,18,-1
 556 1268 l 1,19,20
 577 1232 577 1232 577 1189 c 0,21,22
 577 1120 577 1120 517 1033 c 2,23,-1
 332 766 l 1,24,-1
 604 377 l 1,25,-1
 536 286 l 1,26,27
 522 283 522 283 508 283 c 0,28,29
 413 283 413 283 329 402 c 2,30,-1
 141 668 l 1,31,32
 120 705 120 705 120 747 c 0,33,34
 120 818 120 818 179 902 c 2,35,-1
 456 1296 l 1,18,-1
EndSplineSet
Validated: 19457
EndChar

StartChar: logicalnot
Encoding: 172 172 83
Width: 1219
GlyphClass: 2
Flags: W
HStem: 639 211<172.985 941.604>
LayerCount: 2
Fore
SplineSet
146 850 m 1,0,-1
 889 850 l 2,1,2
 1052 850 1052 850 1099 724 c 1,3,-1
 993 409 l 1,4,-1
 959 419 l 1,5,6
 968 454 968 454 968 492 c 0,7,8
 968 639 968 639 846 639 c 2,9,-1
 330 639 l 2,10,11
 152 639 152 639 120 768 c 1,12,-1
 146 850 l 1,0,-1
EndSplineSet
Validated: 19457
EndChar

StartChar: uni00AD
Encoding: 173 173 84
Width: 1219
GlyphClass: 2
Flags: W
HStem: 639 211<172.985 1048.9>
LayerCount: 2
Fore
SplineSet
1072 850 m 1,0,-1
 1099 765 l 1,1,2
 1067 639 1067 639 889 639 c 2,3,-1
 146 639 l 1,4,-1
 120 721 l 1,5,6
 152 850 152 850 330 850 c 2,7,-1
 1072 850 l 1,0,-1
EndSplineSet
Validated: 19457
EndChar

StartChar: registered
Encoding: 174 174 85
Width: 1341
GlyphClass: 2
Flags: W
HStem: 386 73<484.363 847.204> 1219 124<603.108 751.539> 1453 77<486.855 854.866>
VStem: 120 74<768.815 1151.5> 390 188<561.703 1184.96> 764 193<965.838 1209.65> 1146 75<757.249 1158.43>
LayerCount: 2
Fore
SplineSet
669 1453 m 0,0,1
 479 1453 479 1453 337 1312 c 0,2,3
 327 1302 327 1302 318 1292 c 1,4,-1
 473 1344 l 1,5,6
 509 1334 509 1334 531 1315 c 1,7,8
 590 1343 590 1343 660 1343 c 0,9,10
 790 1342 790 1342 874 1266 c 0,11,12
 957 1188 957 1188 957 1059 c 0,13,14
 957 918 957 918 842 840 c 1,15,16
 940 716 940 716 1046 649 c 1,17,18
 1146 777 1146 777 1146 953 c 0,19,20
 1146 1174 1146 1174 1009 1309 c 0,21,22
 863 1453 863 1453 669 1453 c 0,0,1
671 1530 m 0,23,24
 913 1530 913 1530 1069 1357 c 0,25,26
 1221 1188 1221 1188 1221 953 c 0,27,28
 1221 701 1221 701 1060 549 c 0,29,30
 889 386 889 386 669 386 c 0,31,32
 446 386 446 386 281 549 c 0,33,34
 120 708 120 708 120 953 c 0,35,36
 120 1197 120 1197 278 1362 c 0,37,38
 439 1530 439 1530 671 1530 c 0,23,24
502 528 m 1,39,40
 390 557 390 557 390 671 c 2,41,-1
 390 1199 l 2,42,43
 390 1262 390 1262 351 1262 c 0,44,45
 323 1262 323 1262 300 1253 c 1,46,-1
 296 1266 l 1,47,48
 194 1136 194 1136 194 953 c 0,49,50
 194 760 194 760 334 605 c 0,51,52
 465 459 465 459 671 459 c 0,53,54
 808 459 808 459 922 534 c 1,55,56
 742 643 742 643 583 917 c 1,57,58
 660 917 660 917 694 942 c 0,59,60
 764 995 764 995 764 1105 c 0,61,62
 764 1219 764 1219 679 1219 c 0,63,64
 635 1219 635 1219 606.5 1186 c 128,-1,65
 578 1153 578 1153 578 1089 c 2,66,-1
 578 554 l 1,67,-1
 502 528 l 1,39,40
EndSplineSet
Validated: 19457
EndChar

StartChar: macron
Encoding: 175 175 86
Width: 698
GlyphClass: 2
Flags: W
HStem: 1230 174<58.6272 638.912>
VStem: 20 658
LayerCount: 2
Fore
SplineSet
657 1404 m 1,0,-1
 678 1339 l 1,1,2
 645 1230 645 1230 493 1230 c 2,3,-1
 41 1230 l 1,4,-1
 20 1295 l 1,5,6
 52 1404 52 1404 205 1404 c 2,7,-1
 657 1404 l 1,0,-1
EndSplineSet
Validated: 19457
EndChar

StartChar: degree
Encoding: 176 176 87
Width: 654
GlyphClass: 2
Flags: W
HStem: 926 139<229.323 394.078> 1398 132<261.29 423.67>
VStem: 20 186<1083.39 1340.29> 448 186<1120.7 1378.05>
LayerCount: 2
Fore
SplineSet
306 1065 m 0,0,1
 349 1065 349 1065 385 1100 c 0,2,3
 420 1134 420 1134 437 1188 c 0,4,5
 448 1223 448 1223 448 1264 c 0,6,7
 448 1308 448 1308 430 1344 c 0,8,9
 403 1398 403 1398 348 1398 c 0,10,11
 305 1398 305 1398 270 1363 c 0,12,13
 233 1326 233 1326 217 1275 c 0,14,15
 206 1240 206 1240 206 1199 c 0,16,17
 206 1155 206 1155 224 1118 c 0,18,19
 250 1065 250 1065 306 1065 c 0,0,1
327 1530 m 0,20,21
 459 1530 459 1530 542 1450 c 0,22,23
 634 1361 634 1361 634 1228.5 c 128,-1,24
 634 1096 634 1096 542 1006 c 0,25,26
 459 926 459 926 327 926 c 0,27,28
 193 926 193 926 112 1007 c 0,29,30
 20 1096 20 1096 20 1228 c 0,31,32
 20 1361 20 1361 112 1450 c 0,33,34
 198 1530 198 1530 327 1530 c 0,20,21
EndSplineSet
Validated: 19457
EndChar

StartChar: plusminus
Encoding: 177 177 88
Width: 1219
GlyphClass: 2
Flags: W
HStem: 176 211<172.985 1048.9> 782 211<172.985 504 715 1048.9>
VStem: 504 211<450.985 782 993 1326.9>
LayerCount: 2
Fore
SplineSet
1072 387 m 1,0,-1
 1099 302 l 1,1,2
 1067 176 1067 176 889 176 c 2,3,-1
 146 176 l 1,4,-1
 120 258 l 1,5,6
 152 387 152 387 330 387 c 2,7,-1
 1072 387 l 1,0,-1
589 1377 m 1,8,9
 715 1345 715 1345 715 1167 c 2,10,-1
 715 993 l 1,11,-1
 1072 993 l 1,12,-1
 1099 908 l 1,13,14
 1067 782 1067 782 889 782 c 2,15,-1
 715 782 l 1,16,-1
 715 424 l 1,17,-1
 633 398 l 1,18,19
 504 430 504 430 504 608 c 2,20,-1
 504 782 l 1,21,-1
 146 782 l 1,22,-1
 120 864 l 1,23,24
 152 993 152 993 330 993 c 2,25,-1
 504 993 l 1,26,-1
 504 1350 l 1,27,-1
 589 1377 l 1,8,9
EndSplineSet
Validated: 19457
EndChar

StartChar: uni00B2
Encoding: 178 178 89
Width: 709
GlyphClass: 2
Flags: W
HStem: 853 130<342 640.763> 1533 105<285.254 436.091>
VStem: 39 202<1260.23 1490.2> 444 202<1276.39 1522.51>
LayerCount: 2
Fore
SplineSet
344 1638 m 0,0,1
 482 1638 482 1638 563 1565 c 0,2,3
 646 1490 646 1490 646 1380 c 0,4,5
 646 1164 646 1164 342 983 c 1,6,-1
 592 983 l 2,7,8
 627 983 627 983 659 1038 c 1,9,-1
 689 1038 l 1,10,-1
 644 904 l 2,11,12
 627 853 627 853 560 853 c 2,13,-1
 53 853 l 1,14,-1
 20 947 l 1,15,16
 444 1183 444 1183 444 1434 c 0,17,18
 444 1533 444 1533 373 1533 c 0,19,20
 338 1533 338 1533 303 1506 c 0,21,22
 241 1459 241 1459 241 1357 c 0,23,24
 241 1282 241 1282 305 1247 c 1,25,-1
 251 1127 l 1,26,27
 178 1140 178 1140 111 1200 c 0,28,29
 39 1264 39 1264 39 1378 c 128,-1,30
 39 1492 39 1492 124 1565 c 0,31,32
 208 1638 208 1638 344 1638 c 0,0,1
EndSplineSet
Validated: 19457
EndChar

StartChar: uni00B3
Encoding: 179 179 90
Width: 643
GlyphClass: 2
Flags: W
HStem: 823 125<236.681 374.788> 1498 130<112.237 363>
VStem: 421 202<993.863 1228.74>
LayerCount: 2
Fore
SplineSet
193 1628 m 2,0,1
 559 1628 l 1,2,-1
 587 1545 l 1,3,4
 543 1414 543 1414 449 1335 c 1,5,6
 503 1315 503 1315 541 1280 c 0,7,8
 623 1204 623 1204 623 1087.5 c 128,-1,9
 623 971 623 971 538 897 c 128,-1,10
 453 823 453 823 317.5 823 c 128,-1,11
 182 823 182 823 99 899 c 0,12,13
 40 954 40 954 20 1045 c 1,14,-1
 219 1112 l 1,15,16
 219 948 219 948 289 948 c 0,17,18
 330 948 330 948 359 975 c 0,19,20
 421 1033 421 1033 421 1128 c 0,21,22
 421 1234 421 1234 349 1234 c 0,23,24
 297 1234 297 1234 258 1197 c 1,25,-1
 193 1301 l 1,26,27
 321 1400 321 1400 363 1498 c 1,28,-1
 161 1498 l 2,29,30
 126 1498 126 1498 94 1443 c 1,31,-1
 64 1443 l 1,32,-1
 109 1577 l 2,33,34
 126 1628 126 1628 193 1628 c 2,0,1
EndSplineSet
Validated: 19457
EndChar

StartChar: acute
Encoding: 180 180 91
Width: 478
GlyphClass: 2
Flags: W
HStem: 1160 400
VStem: 20 438
LayerCount: 2
Fore
SplineSet
201 1560 m 1,0,1
 458 1473 l 1,2,3
 276 1337 276 1337 196 1160 c 1,4,-1
 20 1219 l 1,5,6
 70 1403 70 1403 201 1560 c 1,0,1
EndSplineSet
Validated: 19457
EndChar

StartChar: uni00B5
Encoding: 181 181 92
Width: 1388
GlyphClass: 2
Flags: W
HStem: -430 21G<148 289.333> -20 149<492.15 777.656> 971 149<614.812 694>
VStem: 70 308<257.475 692.528> 70 270<-354.575 71> 928 290<293.29 1029.32>
LayerCount: 2
Fore
SplineSet
694 -20 m 0,0,1
 489 -20 489 -20 340 71 c 1,2,-1
 340 -394 l 1,3,-1
 226 -430 l 1,4,5
 70 -384 70 -384 70 -191 c 2,6,-1
 70 550 l 2,7,8
 70 804 70 804 253 964 c 0,9,10
 431 1120 431 1120 694 1120 c 1,11,-1
 744 971 l 1,12,13
 665 971 665 971 567 892 c 0,14,15
 457 802 457 802 410 665 c 0,16,17
 378 571 378 571 378 464 c 0,18,19
 378 339 378 339 426 252 c 0,20,21
 494 129 494 129 629 129 c 0,22,23
 737 129 737 129 822 208 c 0,24,25
 928 306 928 306 928 519 c 2,26,-1
 928 1084 l 1,27,-1
 1035 1120 l 1,28,29
 1218 1071 1218 1071 1218 871 c 2,30,-1
 1218 222 l 2,31,32
 1218 104 1218 104 1323 104 c 0,33,34
 1361 104 1361 104 1396 113 c 1,35,-1
 1406 79 l 1,36,-1
 1111 -20 l 1,37,38
 1033 1 1033 1 988 49 c 1,39,40
 867 -20 867 -20 694 -20 c 0,0,1
EndSplineSet
Validated: 19457
EndChar

StartChar: paragraph
Encoding: 182 182 93
Width: 1162
GlyphClass: 2
Flags: W
HStem: -20 21G<925 982.073>
VStem: 742 117<140.806 732> 925 117<21 1120>
LayerCount: 2
Fore
SplineSet
925 -20 m 1,0,-1
 925 1120 l 1,1,-1
 859 1120 l 1,2,-1
 859 17 l 1,3,4
 742 90 742 90 742 228 c 2,5,-1
 742 732 l 1,6,7
 658 709 658 709 559 709 c 0,8,9
 322 709 322 709 202 824 c 0,10,11
 70 950 70 950 70 1121 c 0,12,13
 70 1296 70 1296 192 1407 c 0,14,15
 328 1530 328 1530 553 1530 c 0,16,17
 790 1530 790 1530 910 1415 c 0,18,19
 1042 1289 1042 1289 1042 1119 c 2,20,-1
 1042 21 l 1,21,-1
 925 -20 l 1,0,-1
EndSplineSet
Validated: 19457
EndChar

StartChar: periodcentered
Encoding: 183 183 94
Width: 404
GlyphClass: 2
Flags: W
HStem: 569 370<83.1396 320.86>
VStem: 20 364<631.578 876.422>
LayerCount: 2
Fore
SplineSet
202 939 m 128,-1,1
 278 939 278 939 331 885 c 128,-1,2
 384 831 384 831 384 754 c 128,-1,3
 384 677 384 677 331 623 c 128,-1,4
 278 569 278 569 202 569 c 128,-1,5
 126 569 126 569 73 623 c 128,-1,6
 20 677 20 677 20 754 c 128,-1,7
 20 831 20 831 73 885 c 128,-1,0
 126 939 126 939 202 939 c 128,-1,1
EndSplineSet
Validated: 19457
EndChar

StartChar: cedilla
Encoding: 184 184 95
Width: 422
GlyphClass: 2
Flags: W
HStem: -486 189<31 166.411> -144 144<107 164.988>
VStem: 177 225<-275.507 -164.186>
LayerCount: 2
Fore
SplineSet
107 0 m 1,0,-1
 286 0 l 1,1,-1
 255 -75 l 1,2,3
 402 -130 402 -130 402 -252 c 0,4,5
 402 -486 402 -486 31 -486 c 1,6,-1
 -11 -297 l 1,7,8
 177 -297 177 -297 177 -224 c 0,9,10
 177 -159 177 -159 54 -144 c 1,11,-1
 107 0 l 1,0,-1
EndSplineSet
Validated: 19457
EndChar

StartChar: uni00B9
Encoding: 185 185 96
Width: 383
GlyphClass: 2
Flags: W
VStem: 119 194<827 1545.89>
LayerCount: 2
Fore
SplineSet
201 1631 m 1,0,1
 313 1607 313 1607 313 1505 c 2,2,-1
 313 827 l 1,3,-1
 231 799 l 1,4,5
 119 821 119 821 119 923 c 2,6,-1
 119 1505 l 2,7,8
 119 1546 119 1546 71 1546 c 0,9,10
 53 1546 53 1546 28 1540 c 1,11,-1
 20 1570 l 1,12,-1
 201 1631 l 1,0,1
EndSplineSet
Validated: 19457
EndChar

StartChar: ordmasculine
Encoding: 186 186 97
Width: 705
GlyphClass: 2
Flags: W
HStem: 710 174<58.6272 645.912> 920 115<241.064 413.685> 1415 115<293.12 465.138>
VStem: 20 194<1066.43 1332.35> 491 194<1114.93 1385.59>
LayerCount: 2
Fore
SplineSet
664 884 m 1,0,-1
 685 819 l 1,1,2
 652 710 652 710 500 710 c 2,3,-1
 41 710 l 1,4,-1
 20 775 l 1,5,6
 52 884 52 884 205 884 c 2,7,-1
 664 884 l 1,0,-1
392.5 1415 m 128,-1,9
 345 1415 345 1415 298.5 1376.5 c 128,-1,10
 252 1338 252 1338 230 1276 c 0,11,12
 214 1229 214 1229 214 1185 c 0,13,14
 214 1130 214 1130 240 1081 c 0,15,16
 264 1035 264 1035 312.5 1035 c 128,-1,17
 361 1035 361 1035 408 1074 c 0,18,19
 491 1142 491 1142 491 1268 c 0,20,21
 491 1326 491 1326 465.5 1370.5 c 128,-1,8
 440 1415 440 1415 392.5 1415 c 128,-1,9
354 1530 m 0,22,23
 495 1530 495 1530 590 1444 c 128,-1,24
 685 1358 685 1358 685 1224 c 0,25,26
 685 1089 685 1089 588 1005 c 0,27,28
 491 920 491 920 351 920 c 0,29,30
 212 920 212 920 116 1006 c 128,-1,31
 20 1092 20 1092 20 1225 c 128,-1,32
 20 1358 20 1358 118 1445 c 0,33,34
 214 1530 214 1530 354 1530 c 0,22,23
EndSplineSet
Validated: 19457
EndChar

StartChar: guillemotright
Encoding: 187 187 98
Width: 1175
GlyphClass: 2
Flags: W
DStem2: 445 1177 170 1202 0.573038 -0.819529<-167.177 296.589> 442 813 318 283 0.575133 0.81806<-485.171 0> 846 1177 571 1202 0.573038 -0.819529<-167.177 296.589> 843 813 719 283 0.575133 0.81806<-485.171 0>
LayerCount: 2
Fore
SplineSet
318 283 m 1,0,-1
 218 311 l 1,1,2
 197 347 197 347 197 390 c 0,3,4
 197 459 197 459 257 546 c 2,5,-1
 442 813 l 1,6,-1
 170 1202 l 1,7,-1
 238 1293 l 1,8,9
 252 1296 252 1296 266 1296 c 0,10,11
 361 1296 361 1296 445 1177 c 2,12,-1
 633 911 l 1,13,14
 654 874 654 874 654 832 c 0,15,16
 654 761 654 761 595 677 c 2,17,-1
 318 283 l 1,0,-1
719 283 m 1,18,-1
 619 311 l 1,19,20
 598 347 598 347 598 390 c 0,21,22
 598 459 598 459 658 546 c 2,23,-1
 843 813 l 1,24,-1
 571 1202 l 1,25,-1
 639 1293 l 1,26,27
 653 1296 653 1296 667 1296 c 0,28,29
 762 1296 762 1296 846 1177 c 2,30,-1
 1034 911 l 1,31,32
 1055 874 1055 874 1055 832 c 0,33,34
 1055 761 1055 761 996 677 c 2,35,-1
 719 283 l 1,18,-1
EndSplineSet
Validated: 19457
EndChar

StartChar: onequarter
Encoding: 188 188 99
Width: 1554
GlyphClass: 2
Flags: W
HStem: 0 1G<395.5 541.289 1212 1327.29> 157 129<1023 1156 1351 1391> 1510 20G<241.656 357>
VStem: 219 194<726 1444.89> 1028 210<619.391 742> 1156 195<13.7031 157 286 471.547>
DStem2: 826 1510 534 0 0.342417 0.939548<-1423.41 -93.0426>
LayerCount: 2
Fore
SplineSet
301 1530 m 1,0,1
 413 1506 413 1506 413 1404 c 2,2,-1
 413 726 l 1,3,-1
 331 698 l 1,4,5
 219 720 219 720 219 822 c 2,6,-1
 219 1404 l 2,7,8
 219 1445 219 1445 171 1445 c 0,9,10
 153 1445 153 1445 128 1439 c 1,11,-1
 120 1469 l 1,12,-1
 301 1530 l 1,0,1
1268 -20 m 1,13,14
 1156 9 1156 9 1156 123 c 2,15,-1
 1156 157 l 1,16,-1
 796 157 l 1,17,-1
 765 244 l 1,18,19
 960 453 960 453 1028 742 c 1,20,-1
 1238 812 l 1,21,22
 1189 492 1189 492 1023 286 c 1,23,-1
 1156 286 l 1,24,-1
 1156 475 l 1,25,-1
 1239 503 l 1,26,27
 1351 477 1351 477 1351 366 c 2,28,-1
 1351 286 l 1,29,-1
 1434 286 l 1,30,-1
 1391 157 l 1,31,-1
 1351 157 l 1,32,-1
 1351 8 l 1,33,-1
 1268 -20 l 1,13,14
436 0 m 1,34,35
 355 44 355 44 355 165 c 0,36,37
 355 218 355 218 377 278 c 2,38,-1
 826 1510 l 1,39,-1
 925 1510 l 1,40,41
 1006 1467 1006 1467 1006 1347 c 0,42,43
 1006 1295 1006 1295 983 1232 c 2,44,-1
 534 0 l 1,45,-1
 436 0 l 1,34,35
EndSplineSet
Validated: 19457
EndChar

StartChar: onehalf
Encoding: 189 189 100
Width: 1656
GlyphClass: 2
Flags: W
HStem: 0 130<1189 1487.76> 680 105<1132.25 1283.09> 1510 20G<241.656 357>
VStem: 219 194<726 1444.89> 886 202<407.232 637.198> 1291 202<423.389 669.514>
DStem2: 826 1510 534 0 0.342417 0.939548<-1423.41 -93.0426>
LayerCount: 2
Fore
SplineSet
301 1530 m 1,0,1
 413 1506 413 1506 413 1404 c 2,2,-1
 413 726 l 1,3,-1
 331 698 l 1,4,5
 219 720 219 720 219 822 c 2,6,-1
 219 1404 l 2,7,8
 219 1445 219 1445 171 1445 c 0,9,10
 153 1445 153 1445 128 1439 c 1,11,-1
 120 1469 l 1,12,-1
 301 1530 l 1,0,1
1191 785 m 0,13,14
 1329 785 1329 785 1410 712 c 0,15,16
 1493 637 1493 637 1493 527 c 0,17,18
 1493 311 1493 311 1189 130 c 1,19,-1
 1439 130 l 2,20,21
 1474 130 1474 130 1506 185 c 1,22,-1
 1536 185 l 1,23,-1
 1491 51 l 2,24,25
 1474 0 1474 0 1407 0 c 2,26,-1
 900 0 l 1,27,-1
 867 94 l 1,28,29
 1291 330 1291 330 1291 581 c 0,30,31
 1291 680 1291 680 1220 680 c 0,32,33
 1185 680 1185 680 1150 653 c 0,34,35
 1088 606 1088 606 1088 504 c 0,36,37
 1088 429 1088 429 1152 394 c 1,38,-1
 1098 274 l 1,39,40
 1025 287 1025 287 958 347 c 0,41,42
 886 411 886 411 886 525 c 128,-1,43
 886 639 886 639 971 712 c 0,44,45
 1055 785 1055 785 1191 785 c 0,13,14
436 0 m 1,46,47
 355 44 355 44 355 165 c 0,48,49
 355 218 355 218 377 278 c 2,50,-1
 826 1510 l 1,51,-1
 925 1510 l 1,52,53
 1006 1467 1006 1467 1006 1347 c 0,54,55
 1006 1295 1006 1295 983 1232 c 2,56,-1
 534 0 l 1,57,-1
 436 0 l 1,46,47
EndSplineSet
Validated: 19457
EndChar

StartChar: threequarters
Encoding: 190 190 101
Width: 1828
GlyphClass: 2
Flags: W
HStem: 0 1G<669.5 815.289 1486 1601.29> 157 129<1297 1430 1625 1665> 705 125<336.681 474.788> 1380 130<212.237 463>
VStem: 521 202<875.863 1110.74> 1302 210<619.391 742> 1430 195<13.7031 157 286 471.547>
DStem2: 1100 1510 808 0 0.342417 0.939548<-1423.41 -93.0426>
LayerCount: 2
Fore
SplineSet
1542 -20 m 1,0,1
 1430 9 1430 9 1430 123 c 2,2,-1
 1430 157 l 1,3,-1
 1070 157 l 1,4,-1
 1039 244 l 1,5,6
 1234 453 1234 453 1302 742 c 1,7,-1
 1512 812 l 1,8,9
 1463 492 1463 492 1297 286 c 1,10,-1
 1430 286 l 1,11,-1
 1430 475 l 1,12,-1
 1513 503 l 1,13,14
 1625 477 1625 477 1625 366 c 2,15,-1
 1625 286 l 1,16,-1
 1708 286 l 1,17,-1
 1665 157 l 1,18,-1
 1625 157 l 1,19,-1
 1625 8 l 1,20,-1
 1542 -20 l 1,0,1
293 1510 m 2,21,-1
 659 1510 l 1,22,-1
 687 1427 l 1,23,24
 643 1296 643 1296 549 1217 c 1,25,26
 603 1197 603 1197 641 1162 c 0,27,28
 723 1086 723 1086 723 969.5 c 128,-1,29
 723 853 723 853 638 779 c 128,-1,30
 553 705 553 705 417.5 705 c 128,-1,31
 282 705 282 705 199 781 c 0,32,33
 140 836 140 836 120 927 c 1,34,-1
 319 994 l 1,35,36
 319 830 319 830 389 830 c 0,37,38
 430 830 430 830 459 857 c 0,39,40
 521 915 521 915 521 1010 c 0,41,42
 521 1116 521 1116 449 1116 c 0,43,44
 397 1116 397 1116 358 1079 c 1,45,-1
 293 1183 l 1,46,47
 421 1282 421 1282 463 1380 c 1,48,-1
 261 1380 l 2,49,50
 226 1380 226 1380 194 1325 c 1,51,-1
 164 1325 l 1,52,-1
 209 1459 l 2,53,54
 226 1510 226 1510 293 1510 c 2,21,-1
710 0 m 1,55,56
 629 44 629 44 629 165 c 0,57,58
 629 218 629 218 651 278 c 2,59,-1
 1100 1510 l 1,60,-1
 1199 1510 l 1,61,62
 1280 1467 1280 1467 1280 1347 c 0,63,64
 1280 1295 1280 1295 1257 1232 c 2,65,-1
 808 0 l 1,66,-1
 710 0 l 1,55,56
EndSplineSet
Validated: 19457
EndChar

StartChar: questiondown
Encoding: 191 191 102
Width: 1374
GlyphClass: 2
Flags: W
HStem: -430 170<509.778 765.978> 750 370<592.14 829.86>
VStem: 120 324<-143.992 215.219> 529 364<812.578 1057.42> 930 324<-75.5186 132>
LayerCount: 2
Fore
SplineSet
711 1120 m 128,-1,1
 787 1120 787 1120 840 1066 c 128,-1,2
 893 1012 893 1012 893 935 c 128,-1,3
 893 858 893 858 840 804 c 128,-1,4
 787 750 787 750 711 750 c 128,-1,5
 635 750 635 750 582 804 c 128,-1,6
 529 858 529 858 529 935 c 128,-1,7
 529 1012 529 1012 582 1066 c 128,-1,0
 635 1120 635 1120 711 1120 c 128,-1,1
678 -430 m 0,8,9
 428 -430 428 -430 272 -288 c 0,10,11
 120 -150 120 -150 120 63 c 0,12,13
 120 428 120 428 530 656 c 1,14,-1
 889 656 l 1,15,16
 541 392 541 392 469 164 c 0,17,18
 444 85 444 85 444 -21 c 128,-1,19
 444 -127 444 -127 483 -184 c 0,20,21
 534 -260 534 -260 625 -260 c 0,22,23
 708 -260 708 -260 775 -209 c 0,24,25
 870 -137 870 -137 904 -31 c 0,26,27
 930 50 930 50 930 132 c 1,28,-1
 1227 232 l 1,29,30
 1254 151 1254 151 1254 65 c 0,31,32
 1254 -154 1254 -154 1102 -288 c 0,33,34
 941 -430 941 -430 678 -430 c 0,8,9
EndSplineSet
Validated: 19457
EndChar

StartChar: multiply
Encoding: 215 215 103
Width: 1144
GlyphClass: 2
Flags: W
DStem2: 572 894 170 997 0.707107 -0.707107<-333.738 0 211.425 543.054> 422 744 318 342 0.707107 0.707107<-331.629 0 212.132 545.163>
LayerCount: 2
Fore
SplineSet
211 1076 m 1,0,1
 250 1099 250 1099 290 1099 c 0,2,3
 366 1099 366 1099 448 1017 c 2,4,-1
 572 894 l 1,5,-1
 824 1146 l 1,6,-1
 903 1105 l 1,7,8
 926 1066 926 1066 926 1026 c 0,9,10
 926 950 926 950 844 868 c 2,11,-1
 721 744 l 1,12,-1
 974 491 l 1,13,-1
 934 415 l 1,14,15
 894 391 894 391 852 391 c 0,16,17
 776 391 776 391 695 472 c 2,18,-1
 572 595 l 1,19,-1
 318 342 l 1,20,-1
 242 382 l 1,21,22
 218 422 218 422 218 464 c 0,23,24
 218 540 218 540 299 621 c 2,25,-1
 422 744 l 1,26,-1
 170 997 l 1,27,-1
 211 1076 l 1,0,1
EndSplineSet
Validated: 19457
EndChar

StartChar: divide
Encoding: 247 247 104
Width: 1219
GlyphClass: 2
Flags: W
HStem: 100 370<483.14 720.86> 639 211<172.985 1048.9> 998 370<498.14 735.86>
VStem: 420 364<162.578 407.422> 435 364<1060.58 1305.42>
LayerCount: 2
Fore
SplineSet
617 1368 m 128,-1,1
 693 1368 693 1368 746 1314 c 128,-1,2
 799 1260 799 1260 799 1183 c 128,-1,3
 799 1106 799 1106 746 1052 c 128,-1,4
 693 998 693 998 617 998 c 128,-1,5
 541 998 541 998 488 1052 c 128,-1,6
 435 1106 435 1106 435 1183 c 128,-1,7
 435 1260 435 1260 488 1314 c 128,-1,0
 541 1368 541 1368 617 1368 c 128,-1,1
602 100 m 128,-1,9
 526 100 526 100 473 154 c 128,-1,10
 420 208 420 208 420 285 c 128,-1,11
 420 362 420 362 473 416 c 128,-1,12
 526 470 526 470 602 470 c 128,-1,13
 678 470 678 470 731 416 c 128,-1,14
 784 362 784 362 784 285 c 128,-1,15
 784 208 784 208 731 154 c 128,-1,8
 678 100 678 100 602 100 c 128,-1,9
1072 850 m 1,16,-1
 1099 765 l 1,17,18
 1067 639 1067 639 889 639 c 2,19,-1
 146 639 l 1,20,-1
 120 721 l 1,21,22
 152 850 152 850 330 850 c 2,23,-1
 1072 850 l 1,16,-1
EndSplineSet
Validated: 19457
EndChar

StartChar: endash
Encoding: 8211 8211 105
Width: 1219
GlyphClass: 2
Flags: W
HStem: 639 211<172.985 1048.9>
LayerCount: 2
Fore
SplineSet
1072 850 m 1,0,-1
 1099 765 l 1,1,2
 1067 639 1067 639 889 639 c 2,3,-1
 146 639 l 1,4,-1
 120 721 l 1,5,6
 152 850 152 850 330 850 c 2,7,-1
 1072 850 l 1,0,-1
EndSplineSet
Validated: 19457
EndChar

StartChar: emdash
Encoding: 8212 8212 106
Width: 1592
GlyphClass: 2
Flags: W
HStem: 639 211<172.985 1421.9>
LayerCount: 2
Fore
SplineSet
1445 850 m 1,0,-1
 1472 765 l 1,1,2
 1440 639 1440 639 1262 639 c 2,3,-1
 146 639 l 1,4,-1
 120 721 l 1,5,6
 152 850 152 850 330 850 c 2,7,-1
 1445 850 l 1,0,-1
EndSplineSet
Validated: 19457
EndChar

StartChar: afii00208
Encoding: 8213 8213 107
Width: 1592
GlyphClass: 2
Flags: W
HStem: 639 211<172.985 1421.9>
LayerCount: 2
Fore
SplineSet
1445 850 m 1,0,-1
 1472 765 l 1,1,2
 1440 639 1440 639 1262 639 c 2,3,-1
 146 639 l 1,4,-1
 120 721 l 1,5,6
 152 850 152 850 330 850 c 2,7,-1
 1445 850 l 1,0,-1
EndSplineSet
Validated: 19457
EndChar

StartChar: quoteleft
Encoding: 8216 8216 108
Width: 417
GlyphClass: 2
Flags: W
HStem: 968 602
VStem: 20 232<1141.41 1370.94>
LayerCount: 2
Fore
SplineSet
385 1570 m 1,0,1
 252 1412 252 1412 252 1275 c 128,-1,2
 252 1138 252 1138 397 1054 c 1,3,-1
 143 968 l 1,4,5
 20 1079 20 1079 20 1203 c 0,6,7
 20 1371 20 1371 175 1499 c 1,8,-1
 385 1570 l 1,0,1
EndSplineSet
Validated: 19457
EndChar

StartChar: quoteright
Encoding: 8217 8217 109
Width: 417
GlyphClass: 2
Flags: W
HStem: 968 602
VStem: 165 232<1167.06 1396.59>
LayerCount: 2
Fore
SplineSet
274 1570 m 1,0,1
 397 1459 397 1459 397 1335 c 0,2,3
 397 1167 397 1167 242 1039 c 1,4,-1
 32 968 l 1,5,6
 165 1126 165 1126 165 1263 c 128,-1,7
 165 1400 165 1400 20 1484 c 1,8,-1
 274 1570 l 1,0,1
EndSplineSet
Validated: 19457
EndChar

StartChar: quotesinglbase
Encoding: 8218 8218 110
Width: 417
GlyphClass: 2
Flags: W
HStem: -322 602
VStem: 165 232<-122.94 106.59>
LayerCount: 2
Fore
SplineSet
274 280 m 1,0,1
 397 169 397 169 397 45 c 0,2,3
 397 -123 397 -123 242 -251 c 1,4,-1
 32 -322 l 1,5,6
 165 -164 165 -164 165 -27 c 128,-1,7
 165 110 165 110 20 194 c 1,8,-1
 274 280 l 1,0,1
EndSplineSet
Validated: 19457
EndChar

StartChar: quotereversed
Encoding: 8219 8219 111
Width: 417
GlyphClass: 2
Flags: W
HStem: 968 602
VStem: 20 232<1167.06 1396.59>
LayerCount: 2
Fore
SplineSet
143 1570 m 1,0,1
 397 1484 l 1,2,3
 252 1400 252 1400 252 1263 c 128,-1,4
 252 1126 252 1126 385 968 c 1,5,6
 175 1039 l 1,7,8
 20 1167 20 1167 20 1335 c 0,9,10
 20 1459 20 1459 143 1570 c 1,0,1
EndSplineSet
Validated: 19457
EndChar

StartChar: quotedblleft
Encoding: 8220 8220 112
Width: 805
GlyphClass: 2
Flags: W
HStem: 968 602
VStem: 20 232<1141.41 1370.94> 408 232<1141.41 1370.94>
LayerCount: 2
Fore
SplineSet
385 1570 m 1,0,1
 252 1412 252 1412 252 1275 c 128,-1,2
 252 1138 252 1138 397 1054 c 1,3,-1
 143 968 l 1,4,5
 20 1079 20 1079 20 1203 c 0,6,7
 20 1371 20 1371 175 1499 c 1,8,-1
 385 1570 l 1,0,1
773 1570 m 1,9,10
 640 1412 640 1412 640 1275 c 128,-1,11
 640 1138 640 1138 785 1054 c 1,12,-1
 531 968 l 1,13,14
 408 1079 408 1079 408 1203 c 0,15,16
 408 1371 408 1371 563 1499 c 1,17,-1
 773 1570 l 1,9,10
EndSplineSet
Validated: 19457
EndChar

StartChar: quotedblright
Encoding: 8221 8221 113
Width: 805
GlyphClass: 2
Flags: W
HStem: 968 602
VStem: 165 232<1167.06 1396.59> 553 232<1167.06 1396.59>
LayerCount: 2
Fore
SplineSet
662 1570 m 1,0,1
 785 1459 785 1459 785 1335 c 0,2,3
 785 1167 785 1167 630 1039 c 1,4,-1
 420 968 l 1,5,6
 553 1126 553 1126 553 1263 c 128,-1,7
 553 1400 553 1400 408 1484 c 1,8,-1
 662 1570 l 1,0,1
274 1570 m 1,9,10
 397 1459 397 1459 397 1335 c 0,11,12
 397 1167 397 1167 242 1039 c 1,13,-1
 32 968 l 1,14,15
 165 1126 165 1126 165 1263 c 128,-1,16
 165 1400 165 1400 20 1484 c 1,17,-1
 274 1570 l 1,9,10
EndSplineSet
Validated: 19457
EndChar

StartChar: quotedblbase
Encoding: 8222 8222 114
Width: 805
GlyphClass: 2
Flags: W
HStem: -322 602
VStem: 165 232<-122.94 106.59> 553 232<-122.94 106.59>
LayerCount: 2
Fore
SplineSet
662 280 m 1,0,1
 785 169 785 169 785 45 c 0,2,3
 785 -123 785 -123 630 -251 c 1,4,-1
 420 -322 l 1,5,6
 553 -164 553 -164 553 -27 c 128,-1,7
 553 110 553 110 408 194 c 1,8,-1
 662 280 l 1,0,1
274 280 m 1,9,10
 397 169 397 169 397 45 c 0,11,12
 397 -123 397 -123 242 -251 c 1,13,-1
 32 -322 l 1,14,15
 165 -164 165 -164 165 -27 c 128,-1,16
 165 110 165 110 20 194 c 1,17,-1
 274 280 l 1,9,10
EndSplineSet
Validated: 19457
EndChar

StartChar: dagger
Encoding: 8224 8224 115
Width: 1219
GlyphClass: 2
Flags: W
HStem: -20 21G<550.5 702> 951 280<182.5 459 759 1034.5> 1510 20G<517.5 667.5>
VStem: 459 300<49.7947 951 1231 1460.94>
LayerCount: 2
Fore
SplineSet
642 -20 m 1,0,1
 459 17 459 17 459 173 c 2,2,-1
 459 951 l 1,3,-1
 159 951 l 1,4,-1
 120 1068 l 1,5,6
 154 1231 154 1231 314 1231 c 2,7,-1
 459 1231 l 1,8,-1
 459 1490 l 1,9,-1
 576 1530 l 1,10,11
 759 1495 759 1495 759 1336 c 2,12,-1
 759 1231 l 1,13,-1
 1060 1231 l 1,14,-1
 1099 1114 l 1,15,16
 1061 951 1061 951 905 951 c 2,17,-1
 759 951 l 1,18,-1
 759 19 l 1,19,-1
 642 -20 l 1,0,1
EndSplineSet
Validated: 19457
EndChar

StartChar: daggerdbl
Encoding: 8225 8225 116
Width: 1219
GlyphClass: 2
Flags: W
HStem: -20 21G<551.5 701.5> 279 280<184.498 460 760 1036.5> 951 280<182.5 460 760 1034> 1510 20G<517 668.5>
VStem: 460 300<49.0615 279 559 951 1231 1460.21>
LayerCount: 2
Fore
SplineSet
643 -20 m 1,0,1
 460 15 460 15 460 174 c 2,2,-1
 460 279 l 1,3,-1
 159 279 l 1,4,-1
 120 396 l 1,5,6
 158 559 158 559 314 559 c 2,7,-1
 460 559 l 1,8,-1
 460 951 l 1,9,-1
 159 951 l 1,10,-1
 120 1068 l 1,11,12
 154 1231 154 1231 314 1231 c 2,13,-1
 460 1231 l 1,14,-1
 460 1491 l 1,15,-1
 577 1530 l 1,16,17
 760 1493 760 1493 760 1337 c 2,18,-1
 760 1231 l 1,19,-1
 1060 1231 l 1,20,-1
 1099 1114 l 1,21,22
 1060 951 1060 951 905 951 c 2,23,-1
 760 951 l 1,24,-1
 760 559 l 1,25,-1
 1060 559 l 1,26,-1
 1099 442 l 1,27,28
 1065 279 1065 279 905 279 c 2,29,-1
 760 279 l 1,30,-1
 760 20 l 1,31,-1
 643 -20 l 1,0,1
EndSplineSet
Validated: 19457
EndChar

StartChar: bullet
Encoding: 8226 8226 117
Width: 968
GlyphClass: 2
Flags: W
HStem: 384 740<308.128 659.872>
VStem: 120 728<575.566 932.434>
LayerCount: 2
Fore
SplineSet
484 1124 m 132,-1,1
 636 1124 636 1124 742 1016 c 132,-1,2
 848 908 848 908 848 754 c 132,-1,3
 848 600 848 600 742 492 c 132,-1,4
 636 384 636 384 484 384 c 132,-1,5
 332 384 332 384 226 492 c 132,-1,6
 120 600 120 600 120 754 c 132,-1,7
 120 908 120 908 226 1016 c 132,-1,0
 332 1124 332 1124 484 1124 c 132,-1,1
EndSplineSet
Validated: 19457
EndChar

StartChar: ellipsis
Encoding: 8230 8230 118
Width: 1234
GlyphClass: 2
Flags: W
HStem: -20 370<83.1396 320.86 499.14 736.86 913.14 1150.86>
VStem: 20 364<42.5779 287.422> 436 364<42.5779 287.422> 850 364<42.5779 287.422>
LayerCount: 2
Fore
SplineSet
1032 -20 m 132,-1,1
 956 -20 956 -20 903 34 c 132,-1,2
 850 88 850 88 850 165 c 132,-1,3
 850 242 850 242 903 296 c 132,-1,4
 956 350 956 350 1032 350 c 132,-1,5
 1108 350 1108 350 1161 296 c 132,-1,6
 1214 242 1214 242 1214 165 c 132,-1,7
 1214 88 1214 88 1161 34 c 132,-1,0
 1108 -20 1108 -20 1032 -20 c 132,-1,1
618 -20 m 132,-1,9
 542 -20 542 -20 489 34 c 132,-1,10
 436 88 436 88 436 165 c 132,-1,11
 436 242 436 242 489 296 c 132,-1,12
 542 350 542 350 618 350 c 132,-1,13
 694 350 694 350 747 296 c 132,-1,14
 800 242 800 242 800 165 c 132,-1,15
 800 88 800 88 747 34 c 132,-1,8
 694 -20 694 -20 618 -20 c 132,-1,9
202 -20 m 132,-1,17
 126 -20 126 -20 73 34 c 132,-1,18
 20 88 20 88 20 165 c 132,-1,19
 20 242 20 242 73 296 c 132,-1,20
 126 350 126 350 202 350 c 132,-1,21
 278 350 278 350 331 296 c 132,-1,22
 384 242 384 242 384 165 c 132,-1,23
 384 88 384 88 331 34 c 132,-1,16
 278 -20 278 -20 202 -20 c 132,-1,17
EndSplineSet
Validated: 19457
EndChar

StartChar: perthousand
Encoding: 8240 8240 119
Width: 2611
GlyphClass: 2
Flags: W
HStem: -20 158<1247.82 1431.27 2017.82 2201.27> 0 21G<633.5 779.289> 539 151<1290 1469.96 2060 2239.96> 820 158<368.819 552.275> 1379 151<411.004 590.958>
VStem: 120 215<1011.07 1296.64> 627 215<1056.73 1346.53> 999 215<171.067 456.635> 1506 215<216.729 506.526> 1769 215<171.067 456.635> 2276 215<216.729 506.526>
DStem2: 1064 1510 772 0 0.342417 0.939548<-1423.41 -93.0426>
LayerCount: 2
Fore
SplineSet
2105 138 m 0,0,1
 2156 138 2156 138 2200 180 c 0,2,3
 2243 220 2243 220 2263 286 c 0,4,5
 2276 328 2276 328 2276 378 c 0,6,7
 2276 431 2276 431 2254 474 c 0,8,9
 2221 539 2221 539 2155 539 c 0,10,11
 2104 539 2104 539 2061 497 c 0,12,13
 2020 459 2020 459 1998 391 c 0,14,15
 1984 349 1984 349 1984 299 c 0,16,17
 1984 245 1984 245 2006 202 c 0,18,19
 2038 138 2038 138 2105 138 c 0,0,1
2130 690 m 0,20,21
 2285 690 2285 690 2383 596 c 0,22,23
 2491 491 2491 491 2491 335 c 128,-1,24
 2491 179 2491 179 2383 74 c 0,25,26
 2286 -20 2286 -20 2130 -20 c 0,27,28
 1975 -20 1975 -20 1877 75 c 0,29,30
 1769 180 1769 180 1769 335 c 0,31,32
 1769 495 1769 495 1877 596 c 0,33,34
 1978 690 1978 690 2130 690 c 0,20,21
674 0 m 1,35,36
 593 44 593 44 593 165 c 0,37,38
 593 218 593 218 615 278 c 2,39,-1
 1064 1510 l 1,40,-1
 1163 1510 l 1,41,42
 1244 1467 1244 1467 1244 1347 c 0,43,44
 1244 1295 1244 1295 1221 1232 c 2,45,-1
 772 0 l 1,46,-1
 674 0 l 1,35,36
1335 138 m 0,47,48
 1386 138 1386 138 1430 180 c 0,49,50
 1473 220 1473 220 1493 286 c 0,51,52
 1506 328 1506 328 1506 378 c 0,53,54
 1506 431 1506 431 1484 474 c 0,55,56
 1451 539 1451 539 1385 539 c 0,57,58
 1334 539 1334 539 1291 497 c 0,59,60
 1250 459 1250 459 1228 391 c 0,61,62
 1214 349 1214 349 1214 299 c 0,63,64
 1214 245 1214 245 1236 202 c 0,65,66
 1268 138 1268 138 1335 138 c 0,47,48
1360 690 m 0,67,68
 1515 690 1515 690 1613 596 c 0,69,70
 1721 491 1721 491 1721 335 c 128,-1,71
 1721 179 1721 179 1613 74 c 0,72,73
 1516 -20 1516 -20 1360 -20 c 0,74,75
 1205 -20 1205 -20 1107 75 c 0,76,77
 999 180 999 180 999 335 c 0,78,79
 999 495 999 495 1107 596 c 0,80,81
 1208 690 1208 690 1360 690 c 0,67,68
456 978 m 0,82,83
 507 978 507 978 551 1020 c 0,84,85
 594 1060 594 1060 614 1126 c 0,86,87
 627 1168 627 1168 627 1218 c 0,88,89
 627 1271 627 1271 605 1314 c 0,90,91
 572 1379 572 1379 506 1379 c 0,92,93
 455 1379 455 1379 412 1337 c 0,94,95
 371 1299 371 1299 349 1231 c 0,96,97
 335 1189 335 1189 335 1139 c 0,98,99
 335 1085 335 1085 357 1042 c 0,100,101
 389 978 389 978 456 978 c 0,82,83
481 1530 m 0,102,103
 636 1530 636 1530 734 1436 c 0,104,105
 842 1331 842 1331 842 1175 c 128,-1,106
 842 1019 842 1019 734 914 c 0,107,108
 637 820 637 820 481 820 c 0,109,110
 326 820 326 820 228 915 c 0,111,112
 120 1020 120 1020 120 1175 c 0,113,114
 120 1335 120 1335 228 1436 c 0,115,116
 329 1530 329 1530 481 1530 c 0,102,103
EndSplineSet
Validated: 19457
EndChar

StartChar: minute
Encoding: 8242 8242 120
Width: 388
GlyphClass: 2
Flags: W
HStem: 1137 442
VStem: 126 242<1376.43 1502.8>
LayerCount: 2
Fore
SplineSet
126 1579 m 1,0,-1
 368 1498 l 1,1,2
 305 1283 305 1283 181 1137 c 1,3,-1
 20 1190 l 1,4,5
 107 1363 107 1363 126 1579 c 1,0,-1
EndSplineSet
Validated: 19457
EndChar

StartChar: second
Encoding: 8243 8243 121
Width: 715
GlyphClass: 2
Flags: W
HStem: 1137 442
VStem: 126 242<1376.43 1502.8> 453 242<1376.43 1502.8>
LayerCount: 2
Fore
SplineSet
453 1579 m 1,0,-1
 695 1498 l 1,1,2
 632 1283 632 1283 508 1137 c 1,3,-1
 347 1190 l 1,4,5
 434 1363 434 1363 453 1579 c 1,0,-1
126 1579 m 1,6,-1
 368 1498 l 1,7,8
 305 1283 305 1283 181 1137 c 1,9,-1
 20 1190 l 1,10,11
 107 1363 107 1363 126 1579 c 1,6,-1
EndSplineSet
Validated: 19457
EndChar

StartChar: guilsinglleft
Encoding: 8249 8249 122
Width: 774
GlyphClass: 2
Flags: W
VStem: 120 484
DStem2: 332 766 141 668 0.573038 -0.819529<0 461.33> 456 1296 332 766 0.575133 0.81806<-504.888 -19.7172>
LayerCount: 2
Fore
SplineSet
456 1296 m 1,0,-1
 556 1268 l 1,1,2
 577 1232 577 1232 577 1189 c 0,3,4
 577 1120 577 1120 517 1033 c 2,5,-1
 332 766 l 1,6,-1
 604 377 l 1,7,-1
 536 286 l 1,8,9
 522 283 522 283 508 283 c 0,10,11
 413 283 413 283 329 402 c 2,12,-1
 141 668 l 1,13,14
 120 705 120 705 120 747 c 0,15,16
 120 818 120 818 179 902 c 2,17,-1
 456 1296 l 1,0,-1
EndSplineSet
Validated: 19457
EndChar

StartChar: guilsinglright
Encoding: 8250 8250 123
Width: 774
GlyphClass: 2
Flags: W
VStem: 170 484
DStem2: 445 1177 170 1202 0.573038 -0.819529<-167.177 296.589> 442 813 318 283 0.575133 0.81806<-485.171 0>
LayerCount: 2
Fore
SplineSet
318 283 m 1,0,-1
 218 311 l 1,1,2
 197 347 197 347 197 390 c 0,3,4
 197 459 197 459 257 546 c 2,5,-1
 442 813 l 1,6,-1
 170 1202 l 1,7,-1
 238 1293 l 1,8,9
 252 1296 252 1296 266 1296 c 0,10,11
 361 1296 361 1296 445 1177 c 2,12,-1
 633 911 l 1,13,14
 654 874 654 874 654 832 c 0,15,16
 654 761 654 761 595 677 c 2,17,-1
 318 283 l 1,0,-1
EndSplineSet
Validated: 19457
EndChar

StartChar: fraction
Encoding: 8260 8260 124
Width: 791
GlyphClass: 2
Flags: W
HStem: 0 21G<110.5 256.289>
VStem: 70 651
DStem2: 541 1510 249 0 0.342417 0.939548<-1423.41 -93.0426>
LayerCount: 2
Fore
SplineSet
151 0 m 1,0,1
 70 44 70 44 70 165 c 0,2,3
 70 218 70 218 92 278 c 2,4,-1
 541 1510 l 1,5,-1
 640 1510 l 1,6,7
 721 1467 721 1467 721 1347 c 0,8,9
 721 1295 721 1295 698 1232 c 2,10,-1
 249 0 l 1,11,-1
 151 0 l 1,0,1
EndSplineSet
Validated: 19457
EndChar

StartChar: Euro
Encoding: 8364 8364 125
Width: 1812
GlyphClass: 2
Flags: W
HStem: -20 180<772.113 1155.9> 586 150<47.6753 215 546 1108.88> 807 150<47.6753 215 598 1108.88> 1348 182<911.907 1307.67>
VStem: 215 331<479.605 586 736 807>
LayerCount: 2
Fore
SplineSet
1035 -20 m 0,0,1
 692 -20 692 -20 454 191 c 0,2,3
 275 350 275 350 229 586 c 1,4,-1
 37 586 l 1,5,-1
 20 639 l 1,6,7
 52 736 52 736 146 736 c 2,8,-1
 215 736 l 1,9,-1
 215 807 l 1,10,-1
 37 807 l 1,11,-1
 20 860 l 1,12,13
 52 957 52 957 146 957 c 2,14,-1
 236 957 l 1,15,16
 287 1173 287 1173 454 1319 c 0,17,18
 695 1530 695 1530 1036 1530 c 0,19,20
 1380 1530 1380 1530 1618 1319 c 1,21,-1
 1514 1014 l 1,22,23
 1415 1348 1415 1348 1123 1348 c 0,24,25
 945 1348 945 1348 809 1239 c 0,26,27
 664 1123 664 1123 598 957 c 1,28,-1
 1120 957 l 1,29,-1
 1137 904 l 1,30,31
 1104 807 1104 807 1011 807 c 2,32,-1
 555 807 l 1,33,34
 549 772 549 772 546 736 c 1,35,-1
 1120 736 l 1,36,-1
 1137 683 l 1,37,38
 1104 586 1104 586 1011 586 c 2,39,-1
 544 586 l 1,40,41
 556 457 556 457 625 347 c 0,42,43
 744 160 744 160 949 160 c 0,44,45
 1166 160 1166 160 1314 319 c 1,46,-1
 1642 213 l 1,47,48
 1382 -20 1382 -20 1035 -20 c 0,0,1
EndSplineSet
Validated: 19457
EndChar

StartChar: afii61248
Encoding: 8453 8453 126
Width: 2200
GlyphClass: 2
Flags: W
HStem: -20 130<1494.45 1740.17> 0 21G<773.5 919.289> 664 130<1556.62 1802.55> 716 130<397.552 656.507> 1400 130<459.843 725.565>
VStem: 120 203<930.206 1254.11> 1217 203<194.206 518.075> 1877 203<255.889 579.794>
DStem2: 1204 1510 912 0 0.342417 0.939548<-1423.41 -93.0426>
LayerCount: 2
Fore
SplineSet
1690 664 m 0,0,1
 1611 664 1611 664 1540 608 c 0,2,3
 1420 512 1420 512 1420 330 c 0,4,5
 1420 255 1420 255 1459 194 c 0,6,7
 1514 110 1514 110 1607 110 c 0,8,9
 1686 110 1686 110 1757 166 c 0,10,11
 1877 262 1877 262 1877 444 c 0,12,13
 1877 519 1877 519 1838 580 c 0,14,15
 1783 664 1783 664 1690 664 c 0,0,1
1648 -20 m 0,16,17
 1468 -20 1468 -20 1342 92 c 0,18,19
 1217 203 1217 203 1217 388 c 128,-1,20
 1217 573 1217 573 1343.5 683.5 c 128,-1,21
 1470 794 1470 794 1649 794 c 0,22,23
 1829 794 1829 794 1955 682 c 0,24,25
 2080 571 2080 571 2080 386 c 128,-1,26
 2080 201 2080 201 1953 90 c 0,27,28
 1826 -20 1826 -20 1648 -20 c 0,16,17
552 1530 m 0,29,30
 731 1530 731 1530 865 1411 c 1,31,-1
 803 1228 l 1,32,33
 754 1400 754 1400 595 1400 c 0,34,35
 514 1400 514 1400 443 1344 c 0,36,37
 323 1248 323 1248 323 1066 c 0,38,39
 323 991 323 991 362 930 c 0,40,41
 417 846 417 846 512.5 846 c 128,-1,42
 608 846 608 846 684 928 c 1,43,-1
 893 860 l 1,44,45
 752 716 752 716 551 716 c 0,46,47
 371 716 371 716 245 828 c 0,48,49
 120 939 120 939 120 1124 c 128,-1,50
 120 1309 120 1309 247 1420 c 0,51,52
 374 1530 374 1530 552 1530 c 0,29,30
814 0 m 1,53,54
 733 44 733 44 733 165 c 0,55,56
 733 218 733 218 755 278 c 2,57,-1
 1204 1510 l 1,58,-1
 1303 1510 l 1,59,60
 1384 1467 1384 1467 1384 1347 c 0,61,62
 1384 1295 1384 1295 1361 1232 c 2,63,-1
 912 0 l 1,64,-1
 814 0 l 1,53,54
EndSplineSet
Validated: 19457
EndChar

StartChar: afii61289
Encoding: 8467 8467 127
Width: 1267
GlyphClass: 2
Flags: W
HStem: 0 1G<120 496.273 646 755> 1510 20G<814.5 912>
LayerCount: 2
Fore
SplineSet
700 -20 m 4,0,1
 592 -20 592 -20 511 44 c 5,2,-1
 484 0 l 5,3,-1
 120 0 l 5,4,5
 282 162 282 162 385 325 c 5,6,7
 374 420 374 420 374 524 c 4,8,9
 374 686 374 686 421 865 c 4,10,11
 519 1240 519 1240 671 1423 c 4,12,13
 759 1530 759 1530 870 1530 c 4,14,15
 954 1530 954 1530 1004 1480 c 4,16,17
 1068 1416 1068 1416 1068 1281 c 4,18,19
 1068 1186 1068 1186 1039 1041 c 4,20,21
 969 688 969 688 686 272 c 5,22,23
 688 216 688 216 709 216 c 132,-1,24
 730 216 730 216 755 260 c 4,25,26
 770 286 770 286 781 319 c 5,27,-1
 1097 319 l 5,28,29
 1004 144 1004 144 907 62 c 132,-1,30
 810 -20 810 -20 700 -20 c 4,0,1
EndSplineSet
Validated: 19457
EndChar

StartChar: trademark
Encoding: 8482 8482 128
Width: 2372
GlyphClass: 2
Flags: W
HStem: 726 128<380.837 622.696> 746 130<1101.25 1228 1821 1912.35> 1400 130<97.7539 216 434.57 862.045> 1429 111<1166.94 1400.68 1728.61 1982.4>
VStem: 104 202<939.04 1261.38> 827 203<957.772 1282.6> 1440 200<777.766 1339.89> 2050 202<1018.47 1328.38>
LayerCount: 2
Fore
SplineSet
1554 745 m 1,0,1
 1440 772 1440 772 1440 888 c 2,2,-1
 1440 1182 l 2,3,4
 1440 1307 1440 1307 1421 1351 c 0,5,6
 1387 1429 1387 1429 1304 1429 c 0,7,8
 1222 1429 1222 1429 1152 1374 c 0,9,10
 1030 1278 1030 1278 1030 1091 c 0,11,12
 1030 1014 1030 1014 1067 959 c 0,13,14
 1122 876 1122 876 1228 876 c 1,15,-1
 1272 746 l 1,16,17
 1088 746 1088 746 957 855 c 0,18,19
 827 963 827 963 827 1144 c 0,20,21
 827 1326 827 1326 954 1433 c 128,-1,22
 1081 1540 1081 1540 1256 1540 c 128,-1,23
 1431 1540 1431 1540 1537 1437 c 1,24,25
 1653 1540 1653 1540 1828.5 1540 c 128,-1,26
 2004 1540 2004 1540 2128 1429 c 128,-1,27
 2252 1318 2252 1318 2252 1141 c 128,-1,28
 2252 964 2252 964 2126 855 c 128,-1,29
 2000 746 2000 746 1821 746 c 1,30,-1
 1777 876 l 1,31,32
 1855 876 1855 876 1927 929 c 0,33,34
 2050 1019 2050 1019 2050 1212 c 0,35,36
 2050 1286 2050 1286 2013 1346 c 0,37,38
 1962 1429 1962 1429 1871 1429 c 0,39,40
 1782 1429 1782 1429 1722 1380 c 0,41,42
 1640 1313 1640 1313 1640 1182 c 2,43,-1
 1640 774 l 1,44,-1
 1554 745 l 1,0,1
534 726 m 0,45,46
 354 726 354 726 229 838 c 128,-1,47
 104 950 104 950 104 1123 c 0,48,49
 104 1295 104 1295 216 1400 c 1,50,-1
 146 1400 l 2,51,52
 111 1400 111 1400 80 1346 c 1,53,-1
 50 1346 l 1,54,-1
 95 1480 l 2,55,56
 112 1530 112 1530 178 1530 c 2,57,-1
 814 1530 l 2,58,59
 849 1530 849 1530 880 1586 c 1,60,-1
 910 1586 l 1,61,-1
 865 1452 l 2,62,63
 848 1400 848 1400 782 1400 c 2,64,-1
 580 1400 l 2,65,66
 494 1399 494 1399 426 1349 c 0,67,68
 360 1299 360 1299 333 1224 c 0,69,70
 306 1144 306 1144 306 1078 c 0,71,72
 306 999 306 999 345 939 c 0,73,74
 401 854 401 854 495 854 c 0,75,76
 590 854 590 854 667 938 c 1,77,-1
 876 870 l 1,78,79
 730 726 730 726 534 726 c 0,45,46
EndSplineSet
Validated: 19457
EndChar

StartChar: uni2126
Encoding: 8486 8486 129
Width: 1986
GlyphClass: 2
Flags: W
HStem: 0 198<174.305 455 674.746 792 1478 1811.69> 1348 182<874.851 1265.94>
VStem: 170 327<510.184 921.987> 1489 327<588.462 1024.6>
LayerCount: 2
Fore
SplineSet
792 0 m 1,0,-1
 208 0 l 2,1,2
 96 0 96 0 70 98 c 1,3,-1
 149 334 l 1,4,-1
 183 324 l 1,5,6
 174 289 174 289 174 251 c 0,7,8
 174 198 174 198 224 198 c 2,9,-1
 455 198 l 1,10,11
 170 421 170 421 170 755 c 0,12,13
 170 1109 170 1109 410 1319 c 0,14,15
 651 1530 651 1530 992 1530 c 0,16,17
 1343 1530 1343 1530 1574 1319 c 0,18,19
 1816 1098 1816 1098 1816 755 c 0,20,21
 1816 383 1816 383 1478 198 c 1,22,-1
 1778 198 l 2,23,24
 1890 198 1890 198 1916 100 c 1,25,-1
 1837 -136 l 1,26,-1
 1803 -126 l 1,27,28
 1812 -91 1812 -91 1812 -53 c 0,29,30
 1812 0 1812 0 1762 0 c 2,31,-1
 1127 0 l 1,32,-1
 1194 198 l 1,33,34
 1365 332 1365 332 1445 586 c 0,35,36
 1489 724 1489 724 1489 874 c 0,37,38
 1489 1035 1489 1035 1410 1162 c 0,39,40
 1295 1348 1295 1348 1081 1348 c 0,41,42
 906 1348 906 1348 768 1240 c 0,43,44
 606 1114 606 1114 541 921 c 0,45,46
 497 792 497 792 497 631 c 0,47,48
 497 486 497 486 576 345 c 0,49,50
 658 198 658 198 859 198 c 1,51,-1
 792 0 l 1,0,-1
EndSplineSet
Validated: 19457
EndChar

StartChar: estimated
Encoding: 8494 8494 130
Width: 1261
GlyphClass: 2
Flags: W
HStem: -20 183<451.95 808.867> 491 189<403 855> 935 185<449.039 809.176>
VStem: 70 333<316.826 491 680 791.88>
LayerCount: 2
Fore
SplineSet
629 -20 m 4,0,1
 378 -20 378 -20 224 145 c 132,-1,2
 70 310 70 310 70 553 c 4,3,4
 70 802 70 802 226 960 c 4,5,6
 384 1120 384 1120 626 1120 c 4,7,8
 869 1120 869 1120 1017 974 c 4,9,10
 1191 802 1191 802 1191 491 c 5,11,-1
 403 491 l 5,12,-1
 403 239 l 5,13,14
 498 163 498 163 629 163 c 4,15,16
 837 163 837 163 955 351 c 5,17,-1
 1119 255 l 5,18,19
 995 85 995 85 876 32.5 c 132,-1,20
 757 -20 757 -20 629 -20 c 4,0,1
855 680 m 5,21,-1
 855 862 l 5,22,23
 757 935 757 935 627 935 c 4,24,25
 495 935 495 935 403 861 c 5,26,-1
 403 680 l 5,27,-1
 855 680 l 5,21,-1
EndSplineSet
Validated: 19457
EndChar

StartChar: partialdiff
Encoding: 8706 8706 131
Width: 1345
GlyphClass: 2
Flags: W
HStem: -20 273<462.903 676.396> 823 260<587.1 836.76> 1257 273<512.596 836.913>
VStem: 120 305<291.814 617.824> 916 309<1024 1178.17>
LayerCount: 2
Fore
SplineSet
542 -20 m 4,0,1
 272 -20 272 -20 173 171 c 4,2,3
 120 273 120 273 120 416 c 4,4,5
 120 673 120 673 274 878 c 132,-1,6
 428 1083 428 1083 700 1083 c 4,7,8
 819 1083 819 1083 916 1024 c 5,9,10
 913 1115 913 1115 875 1173 c 4,11,12
 818 1257 818 1257 696 1257 c 4,13,14
 541 1257 541 1257 390 1132 c 5,15,-1
 390 1443 l 5,16,17
 536 1530 536 1530 733 1530 c 4,18,19
 1050 1530 1050 1530 1166 1271 c 4,20,21
 1225 1139 1225 1139 1225 950 c 4,22,23
 1225 563 1225 563 1042 272 c 4,24,25
 861 -20 861 -20 542 -20 c 4,0,1
889 699 m 5,26,27
 868 756 868 756 825 788 c 4,28,29
 778 823 778 823 710 823 c 4,30,31
 601 823 601 823 520 706 c 4,32,33
 425 567 425 567 425 431 c 4,34,35
 425 344 425 344 463 295 c 4,36,37
 495 253 495 253 555 253 c 4,38,39
 662 253 662 253 757 376 c 132,-1,40
 852 499 852 499 889 699 c 5,26,27
EndSplineSet
Validated: 19457
EndChar

StartChar: uni2206
Encoding: 8710 8710 132
Width: 1624
GlyphClass: 2
Flags: W
HStem: 0 172<304 1221> 1510 20G<813.796 1110.5>
LayerCount: 2
Fore
SplineSet
304 172 m 1,0,-1
 1221 174 l 1,1,2
 1056 717 1056 717 731 1183 c 1,3,4
 437 671 437 671 304 172 c 1,0,-1
5 0 m 1,5,6
 218 809 218 809 593 1427 c 1,7,-1
 867 1530 l 1,8,9
 1354 833 1354 833 1619 0 c 1,10,-1
 5 0 l 1,5,6
EndSplineSet
Validated: 19457
EndChar

StartChar: product
Encoding: 8719 8719 133
Width: 1609
GlyphClass: 2
Flags: W
HStem: -430 21G<263 415.556 1212 1364.56> 1360 174<490 1119>
VStem: 170 320<-339.886 1360> 1119 320<-336.889 1360>
LayerCount: 2
Fore
SplineSet
356 -430 m 1,0,1
 170 -380 170 -380 170 -185 c 2,2,-1
 170 1534 l 1,3,-1
 1439 1534 l 1,4,-1
 1439 -385 l 1,5,-1
 1305 -430 l 1,6,7
 1119 -374 1119 -374 1119 -185 c 2,8,-1
 1119 1360 l 1,9,-1
 490 1360 l 1,10,-1
 490 -385 l 1,11,-1
 356 -430 l 1,0,1
EndSplineSet
Validated: 19457
EndChar

StartChar: summation
Encoding: 8721 8721 134
Width: 1350
GlyphClass: 2
Flags: W
HStem: -410 179<515 1230.38> 1331 179<450 1109.65>
LayerCount: 2
Fore
SplineSet
164 -410 m 1,0,-1
 120 -281 l 1,1,2
 457 123 457 123 529 509 c 1,3,4
 225 880 225 880 120 1381 c 1,5,-1
 163 1510 l 1,6,-1
 956 1510 l 2,7,8
 1112 1510 1112 1510 1144 1414 c 10,9,-1
 1209 1220 l 1,10,-1
 1179 1220 l 1,11,12
 1099 1331 1099 1331 963 1331 c 2,13,14
 450 1331 l 1,15,16
 527 909 527 909 847 559 c 1,17,18
 793 131 793 131 515 -231 c 1,19,-1
 1084 -231 l 2,20,21
 1223 -231 1223 -231 1300 -120 c 1,22,-1
 1330 -120 l 1,23,-1
 1265 -314 l 2,24,25
 1233 -410 1233 -410 1077 -410 c 2,26,-1
 164 -410 l 1,0,-1
EndSplineSet
Validated: 19457
EndChar

StartChar: uni2215
Encoding: 8725 8725 135
Width: 791
GlyphClass: 2
Flags: W
HStem: 0 21G<110.5 256.289>
VStem: 70 651
DStem2: 541 1510 249 0 0.342417 0.939548<-1423.41 -93.0426>
LayerCount: 2
Fore
SplineSet
151 0 m 1,0,1
 70 44 70 44 70 165 c 0,2,3
 70 218 70 218 92 278 c 2,4,-1
 541 1510 l 1,5,-1
 640 1510 l 1,6,7
 721 1467 721 1467 721 1347 c 0,8,9
 721 1295 721 1295 698 1232 c 2,10,-1
 249 0 l 1,11,-1
 151 0 l 1,0,1
EndSplineSet
Validated: 19457
EndChar

StartChar: uni2219
Encoding: 8729 8729 136
Width: 404
GlyphClass: 2
Flags: W
HStem: 569 370<83.1396 320.86>
VStem: 20 364<631.578 876.422>
LayerCount: 2
Fore
SplineSet
202 939 m 128,-1,1
 278 939 278 939 331 885 c 128,-1,2
 384 831 384 831 384 754 c 128,-1,3
 384 677 384 677 331 623 c 128,-1,4
 278 569 278 569 202 569 c 128,-1,5
 126 569 126 569 73 623 c 128,-1,6
 20 677 20 677 20 754 c 128,-1,7
 20 831 20 831 73 885 c 128,-1,0
 126 939 126 939 202 939 c 128,-1,1
EndSplineSet
Validated: 19457
EndChar

StartChar: radical
Encoding: 8730 8730 137
Width: 1441
GlyphClass: 2
Flags: W
HStem: -20 21G<502 589.111> 1510 20G<1177.5 1274.5>
LayerCount: 2
Fore
SplineSet
534 -20 m 1,0,1
 470 4 470 4 448 67 c 0,2,3
 339 383 339 383 162 621 c 0,4,5
 128 667 128 667 68 667 c 0,6,7
 30 667 30 667 -5 658 c 1,8,-1
 -15 692 l 1,9,-1
 289 792 l 1,10,11
 381 779 381 779 437 705 c 0,12,13
 558 545 558 545 631 342 c 1,14,15
 770 965 770 965 1098 1446 c 0,16,17
 1141 1509 1141 1509 1214 1530 c 1,18,-1
 1456 1450 l 1,19,-1
 1446 1416 l 1,20,21
 1411 1425 1411 1425 1373 1425 c 0,22,23
 1310 1425 1310 1425 1279 1379 c 0,24,25
 962 897 962 897 782 70 c 1,26,-1
 534 -20 l 1,0,1
EndSplineSet
Validated: 19457
EndChar

StartChar: infinity
Encoding: 8734 8734 138
Width: 1496
GlyphClass: 2
Flags: W
HStem: 384 173<373.113 557.864 897.322 1079.72> 958 166<414.103 595.309 936.916 1118.95>
VStem: 120 219<589.976 876.379> 631 231<636.106 876.523> 1154 222<636.129 925.235>
LayerCount: 2
Fore
SplineSet
983 557 m 0,0,1
 1034 557 1034 557 1078 599 c 0,2,3
 1121 639 1121 639 1141 705 c 0,4,5
 1154 747 1154 747 1154 797 c 0,6,7
 1154 850 1154 850 1132 893 c 0,8,9
 1099 958 1099 958 1033 958 c 0,10,11
 982 958 982 958 939 916 c 0,12,13
 898 878 898 878 876 810 c 0,14,15
 862 768 862 768 862 718 c 0,16,17
 862 664 862 664 884 621 c 0,18,19
 916 557 916 557 983 557 c 0,0,1
460 557 m 0,20,21
 511 557 511 557 555 599 c 0,22,23
 598 639 598 639 618 705 c 0,24,25
 631 747 631 747 631 797 c 0,26,27
 631 850 631 850 609 893 c 0,28,29
 576 958 576 958 510 958 c 0,30,31
 459 958 459 958 416 916 c 0,32,33
 375 878 375 878 353 810 c 0,34,35
 339 768 339 768 339 718 c 0,36,37
 339 664 339 664 361 621 c 0,38,39
 393 557 393 557 460 557 c 0,20,21
488 1124 m 0,40,41
 636 1124 636 1124 748 1010 c 1,42,43
 860 1124 860 1124 1010 1124 c 0,44,45
 1163 1124 1163 1124 1269.5 1016 c 128,-1,46
 1376 908 1376 908 1376 754 c 128,-1,47
 1376 600 1376 600 1269 492 c 128,-1,48
 1162 384 1162 384 1010 384 c 0,49,50
 860 384 860 384 748 498 c 1,51,52
 636 384 636 384 485 384 c 0,53,54
 333 384 333 384 226.5 492 c 128,-1,55
 120 600 120 600 120 754 c 128,-1,56
 120 908 120 908 228 1016 c 128,-1,57
 336 1124 336 1124 488 1124 c 0,40,41
EndSplineSet
Validated: 19457
EndChar

StartChar: approxequal
Encoding: 8776 8776 139
Width: 1307
GlyphClass: 2
Flags: W
HStem: 272 237<735.537 960.178> 518 237<344.954 569.15> 721 237<735.537 960.178> 967 237<344.954 569.15>
LayerCount: 2
Fore
SplineSet
1187 727 m 1,0,-1
 1058 340 l 1,1,2
 962 272 962 272 855 272 c 0,3,4
 729 272 729 272 633 443 c 2,5,-1
 624 459 l 2,6,7
 591 518 591 518 514 518 c 256,8,9
 304 518 304 518 192 300 c 1,10,-1
 120 300 l 1,11,-1
 250 688 l 1,12,13
 337 755 337 755 448 755 c 0,14,15
 576 755 576 755 676 577 c 2,16,-1
 685 561 l 2,17,18
 714 509 714 509 791 509 c 256,19,20
 1000 509 1000 509 1115 727 c 1,21,-1
 1187 727 l 1,0,-1
1187 1176 m 1,22,-1
 1058 789 l 1,23,24
 962 721 962 721 855 721 c 0,25,26
 729 721 729 721 633 892 c 2,27,-1
 624 908 l 2,28,29
 591 967 591 967 514 967 c 256,30,31
 304 967 304 967 192 749 c 1,32,-1
 120 749 l 1,33,-1
 250 1137 l 1,34,35
 337 1204 337 1204 448 1204 c 0,36,37
 576 1204 576 1204 676 1026 c 2,38,-1
 685 1010 l 2,39,40
 714 958 714 958 791 958 c 256,41,42
 1000 958 1000 958 1115 1176 c 1,43,-1
 1187 1176 l 1,22,-1
EndSplineSet
Validated: 19457
EndChar

StartChar: notequal
Encoding: 8800 8800 140
Width: 1219
GlyphClass: 2
Flags: W
HStem: 438 211<172.985 417 653 1048.9> 840 211<172.985 564 800 1048.9>
DStem2: 417 438 490 201 0.342547 0.939501<-138.918 0 279.076 428.034 707.109 848.22>
LayerCount: 2
Fore
SplineSet
728 1291 m 1,0,-1
 784 1291 l 1,1,2
 841 1245 841 1245 841 1187 c 0,3,4
 841 1163 841 1163 832 1137 c 2,5,-1
 800 1051 l 1,6,-1
 1072 1051 l 1,7,-1
 1099 966 l 1,8,9
 1067 840 1067 840 889 840 c 2,10,-1
 723 840 l 1,11,-1
 653 649 l 1,12,-1
 1072 649 l 1,13,-1
 1099 564 l 1,14,15
 1067 438 1067 438 889 438 c 2,16,-1
 576 438 l 1,17,-1
 490 201 l 1,18,-1
 434 201 l 1,19,20
 377 246 377 246 377 304 c 0,21,22
 377 327 377 327 386 353 c 2,23,-1
 417 438 l 1,24,-1
 146 438 l 1,25,-1
 120 520 l 1,26,27
 152 649 152 649 330 649 c 2,28,-1
 494 649 l 1,29,-1
 564 840 l 1,30,-1
 146 840 l 1,31,-1
 120 922 l 1,32,33
 152 1051 152 1051 330 1051 c 2,34,-1
 641 1051 l 1,35,-1
 728 1291 l 1,0,-1
EndSplineSet
Validated: 19457
EndChar

StartChar: lessequal
Encoding: 8804 8804 141
Width: 1311
GlyphClass: 2
Flags: W
HStem: 118 211<172.985 1048.9>
DStem2: 516 889 120 822 0.906252 -0.422738<0 596.09> 285 1033 516 889 0.906273 0.422693<148.481 829.307>
LayerCount: 2
Fore
SplineSet
1072 329 m 1,0,-1
 1099 244 l 1,1,2
 1067 118 1067 118 889 118 c 2,3,-1
 146 118 l 1,4,-1
 120 200 l 1,5,6
 152 329 152 329 330 329 c 2,7,-1
 1072 329 l 1,0,-1
1059 1394 m 1,8,-1
 1140 1308 l 1,9,10
 1140 1180 1140 1180 975 1103 c 2,11,-1
 516 889 l 1,12,-1
 1141 598 l 1,13,-1
 1132 523 l 1,14,15
 1076 467 1076 467 980 467 c 0,16,17
 881 467 881 467 791 509 c 2,18,-1
 120 822 l 1,19,20
 120 956 120 956 285 1033 c 2,21,-1
 1059 1394 l 1,8,-1
EndSplineSet
Validated: 19457
EndChar

StartChar: greaterequal
Encoding: 8805 8805 142
Width: 1311
GlyphClass: 2
Flags: W
HStem: 118 211<222.985 1098.9>
DStem2: 1191 1017 170 1241 0.906252 -0.422738<-925.286 -331.459> 336 736 252 445 0.906273 0.422693<-174.39 505.529>
LayerCount: 2
Fore
SplineSet
1122 329 m 1,0,-1
 1149 244 l 1,1,2
 1117 118 1117 118 939 118 c 2,3,-1
 196 118 l 1,4,-1
 170 200 l 1,5,6
 202 329 202 329 380 329 c 2,7,-1
 1122 329 l 1,0,-1
332 1371 m 0,8,9
 432 1371 432 1371 520 1330 c 2,10,-1
 1191 1017 l 1,11,12
 1191 883 1191 883 1026 806 c 2,13,-1
 252 445 l 1,14,-1
 171 531 l 1,15,16
 171 659 171 659 336 736 c 2,17,-1
 794 950 l 1,18,-1
 170 1241 l 1,19,-1
 179 1316 l 1,20,21
 234 1371 234 1371 332 1371 c 0,8,9
EndSplineSet
Validated: 19457
EndChar

StartChar: lozenge
Encoding: 9674 9674 143
Width: 1198
GlyphClass: 2
Flags: W
HStem: -20 21G<585.042 612.903> 1510 20G<585.641 612.409>
DStem2: 70 738 364 801 0.555427 0.831565<215.684 555.993> 364 801 70 738 0.5723 -0.820044<0 496.043> 599 1530 553 1084 0.556885 -0.83059<344.826 844.071> 649 395 599 -20 0.57078 0.821103<0 333.611>
LayerCount: 2
Fore
SplineSet
649 395 m 1,0,-1
 835 672 l 1,1,-1
 553 1084 l 1,2,-1
 364 801 l 1,3,-1
 649 395 l 1,0,-1
599 -20 m 1,4,-1
 70 738 l 1,5,-1
 599 1530 l 1,6,-1
 1128 741 l 1,7,-1
 599 -20 l 1,4,-1
EndSplineSet
Validated: 19457
EndChar

StartChar: four
Encoding: 52 52 144
Width: 1267
Flags: W
HStem: -20 21G<878.5 1027.73> 334 177<402 787 1097 1189> 1100 20G<856.273 1005.5>
VStem: 787 310<67.3501 334 511 1032.65>
LayerCount: 2
Fore
SplineSet
970 -20 m 1,0,1
 787 25 787 25 787 224 c 2,2,-1
 787 334 l 1,3,-1
 55 334 l 1,4,-1
 10 464 l 1,5,6
 392 888 392 888 515 1440 c 1,7,-1
 847 1550 l 1,8,9
 702 893 702 893 402 511 c 1,10,-1
 787 511 l 1,11,-1
 787 1076 l 1,12,-1
 914 1120 l 1,13,14
 1097 1075 1097 1075 1097 876 c 2,15,-1
 1097 511 l 1,16,-1
 1248 511 l 1,17,-1
 1189 334 l 1,18,-1
 1097 334 l 1,19,-1
 1097 24 l 1,20,-1
 970 -20 l 1,0,1
EndSplineSet
Validated: 19457
EndChar

StartChar: ampersand
Encoding: 38 38 145
Width: 1847
Flags: W
HStem: -20 180<617.356 1029.75> 623 178<401 896.351> 1348 182<765.449 1165.33>
VStem: 70 317<484.38 623> 1429 287<602.438 885>
LayerCount: 2
Fore
SplineSet
892 -20 m 0,0,1
 546 -20 546 -20 310 191 c 0,2,3
 70 406 70 406 70 755 c 0,4,5
 70 1109 70 1109 310 1319 c 0,6,7
 551 1530 551 1530 892 1530 c 0,8,9
 1238 1530 1238 1530 1476 1319 c 1,10,-1
 1372 1014 l 1,11,12
 1273 1348 1273 1348 981 1348 c 0,13,14
 796 1348 796 1348 658 1240 c 0,15,16
 496 1114 496 1114 431 921 c 0,17,18
 412 864 412 864 401 801 c 1,19,-1
 1006 801 l 1,20,21
 1131 583 1131 583 1294 417 c 1,22,23
 1351 497 1351 497 1385 597 c 0,24,25
 1429 727 1429 727 1429 885 c 1,26,-1
 1691 962 l 1,27,28
 1716 865 1716 865 1716 755 c 0,29,30
 1716 436 1716 436 1513 228 c 1,31,32
 1576 183 1576 183 1643 144 c 0,33,34
 1730 92 1730 92 1765 92 c 0,35,36
 1805 92 1805 92 1852 108 c 1,37,-1
 1862 74 l 1,38,-1
 1583 -20 l 1,39,40
 1465 37 1465 37 1361 106 c 1,41,42
 1158 -20 1158 -20 892 -20 c 0,0,1
1151 273 m 1,43,44
 988 426 988 426 870 623 c 1,45,-1
 387 623 l 1,46,47
 389 466 389 466 466 345 c 0,48,49
 584 160 584 160 805 160 c 0,50,51
 998 160 998 160 1151 273 c 1,43,44
EndSplineSet
Validated: 19457
EndChar

StartChar: afii61352
Encoding: 8470 8470 146
Width: 2460
Flags: W
HStem: -20 21G<221.5 337 1024 1368.55> 0 174<1713.63 2300.91> 210 115<1896.06 2068.68> 705 115<1948.12 2120.14> 1510 20G<240.566 344.5 1403.51 1518.5>
VStem: 166 210<22.9844 954> 1364 210<289 1424.62> 1675 194<356.432 622.348> 2146 194<404.927 675.593>
LayerCount: 2
Fore
SplineSet
277 -20 m 1,0,1
 166 24 166 24 166 139 c 2,2,-1
 166 1304 l 1,3,4
 124 1399 124 1399 68 1399 c 0,5,6
 30 1399 30 1399 -5 1390 c 1,7,-1
 -15 1424 l 1,8,-1
 300 1530 l 1,9,10
 389 1519 389 1519 438 1423 c 0,11,12
 822 667 822 667 1364 289 c 1,13,-1
 1364 1367 l 2,14,15
 1364 1426 1364 1426 1311 1426 c 0,16,17
 1273 1426 1273 1426 1238 1417 c 1,18,-1
 1228 1451 l 1,19,-1
 1463 1530 l 1,20,21
 1574 1486 1574 1486 1574 1372 c 2,22,-1
 1574 69 l 1,23,-1
 1309 -20 l 1,24,25
 739 338 739 338 376 954 c 1,26,-1
 376 13 l 1,27,-1
 277 -20 l 1,0,1
2319 174 m 1,28,-1
 2340 109 l 1,29,30
 2307 0 2307 0 2155 0 c 2,31,-1
 1696 0 l 1,32,-1
 1675 65 l 1,33,34
 1707 174 1707 174 1860 174 c 2,35,-1
 2319 174 l 1,28,-1
2047.5 705 m 128,-1,37
 2000 705 2000 705 1953.5 666.5 c 128,-1,38
 1907 628 1907 628 1885 566 c 0,39,40
 1869 519 1869 519 1869 475 c 0,41,42
 1869 420 1869 420 1895 371 c 0,43,44
 1919 325 1919 325 1967.5 325 c 128,-1,45
 2016 325 2016 325 2063 364 c 0,46,47
 2146 432 2146 432 2146 558 c 0,48,49
 2146 616 2146 616 2120.5 660.5 c 128,-1,36
 2095 705 2095 705 2047.5 705 c 128,-1,37
2009 820 m 0,50,51
 2150 820 2150 820 2245 734 c 128,-1,52
 2340 648 2340 648 2340 514 c 0,53,54
 2340 379 2340 379 2243 295 c 0,55,56
 2146 210 2146 210 2006 210 c 0,57,58
 1867 210 1867 210 1771 296 c 128,-1,59
 1675 382 1675 382 1675 515 c 128,-1,60
 1675 648 1675 648 1773 735 c 0,61,62
 1869 820 1869 820 2009 820 c 0,50,51
EndSplineSet
Validated: 1
EndChar

StartChar: uni2117
Encoding: 8471 8471 147
Width: 1341
Flags: W
HStem: 386 73<484.363 848.202> 796 120<673 751.895> 1218 124<640.108 788.539> 1453 77<486.855 854.866>
VStem: 120 74<768.815 1151.31> 427 188<560.703 1183.96> 801 196<964.767 1208.49> 1146 75<757.376 1158.43>
LayerCount: 2
Fore
SplineSet
673 796 m 1,0,1
 620 916 l 1,2,3
 697 916 697 916 731 941 c 0,4,5
 801 994 801 994 801 1104 c 0,6,7
 801 1218 801 1218 716 1218 c 0,8,9
 672 1218 672 1218 643.5 1185 c 128,-1,10
 615 1152 615 1152 615 1088 c 2,11,-1
 615 553 l 1,12,-1
 539 527 l 1,13,14
 427 556 427 556 427 670 c 2,15,-1
 427 1198 l 2,16,17
 427 1261 427 1261 388 1261 c 0,18,19
 360 1261 360 1261 337 1252 c 1,20,-1
 328 1282 l 1,21,-1
 510 1343 l 1,22,23
 546 1333 546 1333 568 1314 c 1,24,25
 627 1342 627 1342 697 1342 c 0,26,27
 827 1342 827 1342 911 1266 c 0,28,29
 997 1185 997 1185 997 1059 c 0,30,31
 997 936 997 936 905 866 c 128,-1,32
 813 796 813 796 673 796 c 1,0,1
671 1530 m 0,33,34
 913 1530 913 1530 1069 1357 c 0,35,36
 1221 1188 1221 1188 1221 953 c 0,37,38
 1221 701 1221 701 1060 549 c 0,39,40
 889 386 889 386 669 386 c 0,41,42
 446 386 446 386 281 549 c 0,43,44
 120 708 120 708 120 953 c 0,45,46
 120 1197 120 1197 278 1362 c 0,47,48
 439 1530 439 1530 671 1530 c 0,33,34
669 1453 m 0,49,50
 479 1453 479 1453 337 1312 c 0,51,52
 194 1170 194 1170 194 953 c 0,53,54
 194 760 194 760 334 605 c 0,55,56
 465 459 465 459 671 459 c 0,57,58
 862 459 862 459 1007 605 c 0,59,60
 1146 745 1146 745 1146 953 c 0,61,62
 1146 1174 1146 1174 1009 1309 c 0,63,64
 863 1453 863 1453 669 1453 c 0,49,50
EndSplineSet
Validated: 19457
EndChar

StartChar: integral
Encoding: 8747 8747 148
Width: 1550
Flags: W
HStem: -430 149<199.283 473.357> 1381 149<1076.64 1350.72>
VStem: 625 300<-115.25 1215.25>
LayerCount: 2
Fore
SplineSet
401 -430 m 0,0,1
 173 -430 173 -430 5 -308 c 1,2,-1
 94 -46 l 1,3,4
 150 -281 150 -281 336 -281 c 0,5,6
 434 -281 434 -281 519 -202 c 0,7,8
 625 -104 625 -104 625 109 c 2,9,-1
 625 991 l 2,10,11
 625 1246 625 1246 749 1378 c 0,12,13
 892 1530 892 1530 1149 1530 c 0,14,15
 1377 1530 1377 1530 1545 1408 c 1,16,-1
 1456 1146 l 1,17,18
 1400 1381 1400 1381 1214 1381 c 0,19,20
 1116 1381 1116 1381 1031 1302 c 0,21,22
 925 1204 925 1204 925 991 c 2,23,-1
 925 109 l 2,24,25
 925 -146 925 -146 801 -278 c 0,26,27
 658 -430 658 -430 401 -430 c 0,0,1
EndSplineSet
Validated: 19457
EndChar

StartChar: caron
Encoding: 711 711 149
Width: 682
Flags: W
HStem: 1160 400
VStem: 20 642
LayerCount: 2
Fore
SplineSet
246 1560 m 1,0,1
 337 1444 337 1444 358 1306 c 1,2,3
 374 1447 374 1447 445 1560 c 1,4,-1
 662 1486 l 1,5,6
 535 1395 535 1395 495 1243 c 1,7,-1
 244 1160 l 1,8,9
 189 1375 189 1375 20 1484 c 1,10,-1
 246 1560 l 1,0,1
EndSplineSet
Validated: 19457
EndChar

StartChar: circumflex
Encoding: 710 710 150
Width: 682
Flags: W
HStem: 1160 400
VStem: 20 642
LayerCount: 2
Fore
SplineSet
438 1560 m 1,0,1
 493 1345 493 1345 662 1236 c 1,2,-1
 436 1160 l 1,3,4
 345 1276 345 1276 324 1414 c 1,5,6
 308 1273 308 1273 237 1160 c 1,7,-1
 20 1234 l 1,8,9
 147 1325 147 1325 187 1477 c 1,10,-1
 438 1560 l 1,0,1
EndSplineSet
Validated: 19457
EndChar

StartChar: uni02C9
Encoding: 713 713 151
Width: 698
Flags: W
HStem: 1230 174<58.6272 638.912>
VStem: 20 658
LayerCount: 2
Fore
SplineSet
657 1404 m 1,0,-1
 678 1339 l 1,1,2
 645 1230 645 1230 493 1230 c 2,3,-1
 41 1230 l 1,4,-1
 20 1295 l 1,5,6
 52 1404 52 1404 205 1404 c 2,7,-1
 657 1404 l 1,0,-1
EndSplineSet
Validated: 19457
EndChar

StartChar: dotaccent
Encoding: 729 729 152
Width: 404
Flags: W
HStem: 1170 370<83.1396 320.86>
VStem: 20 364<1232.58 1477.42>
LayerCount: 2
Fore
SplineSet
202 1540 m 128,-1,1
 278 1540 278 1540 331 1486 c 128,-1,2
 384 1432 384 1432 384 1355 c 128,-1,3
 384 1278 384 1278 331 1224 c 128,-1,4
 278 1170 278 1170 202 1170 c 128,-1,5
 126 1170 126 1170 73 1224 c 128,-1,6
 20 1278 20 1278 20 1355 c 128,-1,7
 20 1432 20 1432 73 1486 c 128,-1,0
 126 1540 126 1540 202 1540 c 128,-1,1
EndSplineSet
Validated: 19457
EndChar

StartChar: ring
Encoding: 730 730 153
Width: 480
Flags: W
HStem: 1140 114<165.833 299.428> 1468 116<180.644 315.875>
VStem: 20 135<1273.65 1445.39> 326 134<1277.38 1447.76>
LayerCount: 2
Fore
SplineSet
243 1584 m 0,0,1
 332 1584 332 1584 395 1520 c 0,2,3
 460 1454 460 1454 460 1363 c 0,4,5
 460 1271 460 1271 395 1206 c 0,6,7
 329 1140 329 1140 240 1140 c 128,-1,8
 151 1140 151 1140 85 1206 c 0,9,10
 20 1271 20 1271 20 1363 c 0,11,12
 20 1454 20 1454 85 1520 c 0,13,14
 149 1584 149 1584 243 1584 c 0,0,1
226 1254 m 0,15,16
 255 1254 255 1254 281 1277 c 0,17,18
 306 1299 306 1299 318 1332 c 0,19,20
 326 1354 326 1354 326 1382 c 0,21,22
 326 1411 326 1411 314 1434 c 0,23,24
 296 1468 296 1468 255 1468 c 0,25,26
 225 1468 225 1468 199.5 1445.5 c 128,-1,27
 174 1423 174 1423 163 1390 c 0,28,29
 155 1366 155 1366 155 1340 c 0,30,31
 155 1312 155 1312 167 1288 c 0,32,33
 186 1254 186 1254 226 1254 c 0,15,16
EndSplineSet
Validated: 19457
EndChar

StartChar: breve
Encoding: 728 728 154
Width: 739
Flags: W
HStem: 1174 160<197.596 534.586>
LayerCount: 2
Fore
SplineSet
92 1506 m 1,0,-1
 122 1506 l 1,1,2
 160 1334 160 1334 352.5 1334 c 128,-1,3
 545 1334 545 1334 689 1506 c 1,4,-1
 719 1506 l 9,5,-1
 645 1288 l 1,6,7
 507 1174 507 1174 332 1174 c 0,8,9
 158 1174 158 1174 20 1288 c 1,10,-1
 92 1506 l 1,0,-1
EndSplineSet
Validated: 19457
EndChar

StartChar: hungarumlaut
Encoding: 733 733 155
Width: 826
Flags: W
HStem: 1160 400
LayerCount: 2
Fore
SplineSet
549 1560 m 1,0,1
 806 1473 l 1,2,3
 624 1337 624 1337 544 1160 c 1,4,-1
 368 1219 l 1,5,6
 418 1403 418 1403 549 1560 c 1,0,1
201 1560 m 1,7,-1
 458 1473 l 1,8,9
 276 1337 276 1337 196 1160 c 1,10,-1
 20 1219 l 1,11,12
 70 1403 70 1403 201 1560 c 1,7,-1
EndSplineSet
Validated: 19457
EndChar

StartChar: tilde
Encoding: 732 732 156
Width: 727
Flags: W
HStem: 1174 179<389.281 595.913> 1322 178<131.219 339.318>
LayerCount: 2
Fore
SplineSet
707 1485 m 1,0,-1
 625 1237 l 1,1,2
 564 1174 564 1174 488 1174 c 0,3,4
 400 1174 400 1174 346 1283 c 0,5,6
 327 1322 327 1322 280 1322 c 256,7,8
 133 1322 133 1322 50 1189 c 1,9,-1
 20 1189 l 1,10,-1
 104 1438 l 1,11,12
 164 1500 164 1500 240 1500 c 0,13,14
 329 1500 329 1500 382 1392 c 0,15,16
 401 1353 401 1353 448 1353 c 256,17,18
 595 1353 595 1353 677 1485 c 1,19,-1
 707 1485 l 1,0,-1
EndSplineSet
Validated: 19457
EndChar

StartChar: ogonek
Encoding: 731 731 157
Width: 430
Flags: W
HStem: -486 189<252.796 347>
VStem: 20 206<-267.678 -91.355>
LayerCount: 2
Fore
SplineSet
245 93 m 1,0,-1
 317 0 l 1,1,2
 226 -80 226 -80 226 -188 c 0,3,4
 226 -297 226 -297 410 -297 c 1,5,-1
 347 -486 l 1,6,7
 20 -486 20 -486 20 -253 c 0,8,9
 20 -62 20 -62 245 93 c 1,0,-1
EndSplineSet
Validated: 19457
EndChar

StartChar: uni1E9E
Encoding: 7838 7838 158
Width: 1345
Flags: W
HStem: -20 169<699 778.697> 1360 170<580.573 830.094>
VStem: 170 295<66.488 1232.44> 951 324<333.716 680.225>
LayerCount: 2
Fore
SplineSet
357 -20 m 1,0,1
 170 27 170 27 170 217 c 2,2,-1
 170 1284 l 2,3,4
 170 1399 170 1399 63 1399 c 0,5,6
 22 1399 22 1399 -8 1391 c 1,7,-1
 -18 1425 l 1,8,-1
 295 1530 l 1,9,10
 367 1510 367 1510 411 1458 c 1,11,12
 535 1530 535 1530 667 1530 c 0,13,14
 917 1530 917 1530 1073 1386 c 0,15,16
 1139 1325 1139 1325 1179 1245 c 1,17,18
 945 1149 945 1149 920 939 c 1,19,20
 1035 904 1035 904 1123 825 c 0,21,22
 1275 687 1275 687 1275 473 c 0,23,24
 1275 256 1275 256 1123 122 c 0,25,26
 962 -20 962 -20 699 -20 c 1,27,-1
 642 149 l 1,28,29
 733 157 733 157 796 202 c 0,30,31
 889 268 889 268 926 381 c 0,32,33
 951 458 951 458 951 545 c 0,34,35
 951 648 951 648 903 711 c 0,36,37
 832 803 832 803 713 803 c 1,38,-1
 663 952 l 1,39,40
 677 1170 677 1170 858 1285 c 1,41,42
 808 1360 808 1360 719 1360 c 0,43,44
 620 1360 620 1360 554 1292 c 0,45,46
 465 1200 465 1200 465 1052 c 2,47,-1
 465 17 l 1,48,-1
 357 -20 l 1,0,1
EndSplineSet
Validated: 19457
EndChar

StartChar: uni203D
Encoding: 8253 8253 159
Width: 1374
Flags: W
HStem: -20 370<544.14 781.86> 1360 170<608.022 864.222>
VStem: 120 324<968 1175.52> 481 364<42.5779 287.422> 556 211<703.408 1087> 930 324<885.219 1243.99>
LayerCount: 2
Fore
SplineSet
696 1530 m 0,0,1
 946 1530 946 1530 1102 1388 c 0,2,3
 1254 1250 1254 1250 1254 1037 c 0,4,5
 1254 672 1254 672 844 444 c 1,6,-1
 485 444 l 1,7,8
 515 467 515 467 543 490 c 1,9,10
 556 654 556 654 556 826 c 0,11,12
 556 978 556 978 551 1087 c 1,13,-1
 779 1136 l 1,14,15
 779 911 779 911 767 703 c 1,16,17
 870 824 870 824 905 936 c 0,18,19
 930 1015 930 1015 930 1121 c 128,-1,20
 930 1227 930 1227 891 1284 c 0,21,22
 840 1360 840 1360 749 1360 c 0,23,24
 666 1360 666 1360 599 1309 c 0,25,26
 504 1237 504 1237 470 1131 c 0,27,28
 444 1050 444 1050 444 968 c 1,29,-1
 147 868 l 1,30,31
 120 949 120 949 120 1035 c 0,32,33
 120 1254 120 1254 272 1388 c 0,34,35
 433 1530 433 1530 696 1530 c 0,0,1
663 -20 m 128,-1,37
 587 -20 587 -20 534 34 c 128,-1,38
 481 88 481 88 481 165 c 128,-1,39
 481 242 481 242 534 296 c 128,-1,40
 587 350 587 350 663 350 c 128,-1,41
 739 350 739 350 792 296 c 128,-1,42
 845 242 845 242 845 165 c 128,-1,43
 845 88 845 88 792 34 c 128,-1,36
 739 -20 739 -20 663 -20 c 128,-1,37
EndSplineSet
Validated: 19457
EndChar

StartChar: minus
Encoding: 8722 8722 160
Width: 1219
Flags: W
HStem: 639 211<172.985 1048.9>
LayerCount: 2
Fore
SplineSet
1072 850 m 1,0,-1
 1099 765 l 1,1,2
 1067 639 1067 639 889 639 c 2,3,-1
 146 639 l 1,4,-1
 120 721 l 1,5,6
 152 850 152 850 330 850 c 2,7,-1
 1072 850 l 1,0,-1
EndSplineSet
Validated: 19457
EndChar

StartChar: W
Encoding: 87 87 161
Width: 2561
Flags: W
HStem: -20 21G<908 1019.62 1608 1719.62> 1379 34<-14.2165 24.1108 685.784 724.111> 1480 30<1724 1771.19> 1510 20G<278.462 397 978.462 1097>
VStem: 2148 343<770.59 1224.02>
LayerCount: 2
Fore
SplineSet
1658 -20 m 1,0,1
 1558 -20 1558 -20 1475 84 c 0,2,3
 1070 589 1070 589 871 1319 c 0,4,5
 852 1389 852 1389 753 1389 c 0,6,7
 718 1389 718 1389 690 1379 c 1,8,-1
 680 1413 l 1,9,-1
 1040 1530 l 1,10,11
 1154 1505 1154 1505 1191 1363 c 0,12,13
 1367 700 1367 700 1886 54 c 1,14,-1
 1658 -20 l 1,0,1
958 -20 m 1,15,16
 858 -20 858 -20 775 84 c 0,17,18
 370 589 370 589 171 1319 c 0,19,20
 152 1389 152 1389 53 1389 c 0,21,22
 18 1389 18 1389 -10 1379 c 1,23,-1
 -20 1413 l 1,24,-1
 340 1530 l 1,25,26
 454 1505 454 1505 491 1363 c 0,27,28
 667 700 667 700 1186 54 c 1,29,-1
 958 -20 l 1,15,16
1724 1510 m 1,30,31
 2491 1510 2491 1510 2491 1023 c 0,32,33
 2491 544 2491 544 1897 131 c 1,34,-1
 1879 155 l 1,35,36
 2148 640 2148 640 2148 1011 c 0,37,38
 2148 1399 2148 1399 1724 1480 c 1,39,-1
 1724 1510 l 1,30,31
EndSplineSet
Validated: 19457
EndChar

StartChar: u
Encoding: 117 117 162
Width: 1388
Flags: W
HStem: -20 149<492.118 777.656> 971 149<614.812 694>
VStem: 70 308<327.128 695.522> 928 290<293.29 1029.32>
LayerCount: 2
Fore
SplineSet
694 -20 m 0,0,1
 426 -20 426 -20 253 136 c 0,2,3
 70 301 70 301 70 550 c 0,4,5
 70 804 70 804 253 964 c 0,6,7
 431 1120 431 1120 694 1120 c 1,8,-1
 744 971 l 1,9,10
 665 971 665 971 567 892 c 0,11,12
 457 802 457 802 410 665 c 0,13,14
 378 571 378 571 378 464 c 0,15,16
 378 339 378 339 426 252 c 0,17,18
 494 129 494 129 629 129 c 0,19,20
 737 129 737 129 822 208 c 0,21,22
 928 306 928 306 928 519 c 2,23,-1
 928 1084 l 1,24,-1
 1035 1120 l 1,25,26
 1218 1071 1218 1071 1218 871 c 2,27,-1
 1218 222 l 2,28,29
 1218 104 1218 104 1323 104 c 0,30,31
 1361 104 1361 104 1396 113 c 1,32,-1
 1406 79 l 1,33,-1
 1111 -20 l 1,34,35
 1033 1 1033 1 988 49 c 1,36,37
 867 -20 867 -20 694 -20 c 0,0,1
EndSplineSet
Validated: 19457
EndChar

StartChar: q
Encoding: 113 113 163
Width: 1388
Flags: W
HStem: -430 24<1132.81 1158.75> -20 153<484.007 583> 971 149<618.61 895.882>
VStem: 70 308<325.076 698.828> 658 272<-255.496 -22.4156> 1010 308<401.578 772.872>
LayerCount: 2
Fore
SplineSet
634 -20 m 1,0,1
 428 -20 428 -20 253 136 c 0,2,3
 70 299 70 299 70 550 c 0,4,5
 70 803 70 803 253 964 c 0,6,7
 430 1120 430 1120 694 1120 c 0,8,9
 962 1120 962 1120 1135 964 c 0,10,11
 1318 799 1318 799 1318 550 c 0,12,13
 1318 299 1318 299 1135 136 c 0,14,15
 1026 39 1026 39 998 7 c 0,16,17
 930 -69 930 -69 930 -146 c 0,18,19
 931 -352 931 -352 1166 -406 c 1,20,-1
 1148 -430 l 1,21,22
 658 -403 658 -403 658 -101 c 0,23,24
 658 1 658 1 712 90 c 0,25,26
 740 137 740 137 821 205 c 24,27,28
 932 298 932 298 978 435 c 0,29,30
 1010 529 1010 529 1010 636 c 0,31,32
 1010 761 1010 761 962 848 c 0,33,34
 894 971 894 971 759 971 c 0,35,36
 665 971 665 971 567 892 c 0,37,38
 457 802 457 802 410 665 c 0,39,40
 378 571 378 571 378 464 c 0,41,42
 378 346 378 346 426 252 c 0,43,44
 478 151 478 151 583 133 c 1,45,-1
 634 -20 l 1,0,1
EndSplineSet
Validated: 19457
EndChar

StartChar: d
Encoding: 100 100 164
Width: 1388
Flags: W
HStem: -20 149<492.118 777.656> 971 149<614.812 694> 1510 20G<975.404 1126.5>
VStem: 70 308<327.128 695.522> 928 290<293.29 1390.76>
LayerCount: 2
Fore
SplineSet
694 -20 m 0,0,1
 426 -20 426 -20 253 136 c 0,2,3
 70 301 70 301 70 550 c 0,4,5
 70 804 70 804 253 964 c 0,6,7
 431 1120 431 1120 694 1120 c 1,8,-1
 744 971 l 1,9,10
 665 971 665 971 567 892 c 0,11,12
 457 802 457 802 410 665 c 0,13,14
 378 571 378 571 378 464 c 0,15,16
 378 339 378 339 426 252 c 0,17,18
 494 129 494 129 629 129 c 0,19,20
 737 129 737 129 822 208 c 0,21,22
 928 306 928 306 928 519 c 2,23,-1
 928 1288 l 2,24,25
 928 1406 928 1406 823 1406 c 0,26,27
 785 1406 785 1406 750 1397 c 1,28,-1
 740 1431 l 1,29,-1
 1035 1530 l 1,30,31
 1218 1481 1218 1481 1218 1281 c 2,32,-1
 1218 222 l 2,33,34
 1218 104 1218 104 1323 104 c 0,35,36
 1361 104 1361 104 1396 113 c 1,37,-1
 1406 79 l 1,38,-1
 1111 -20 l 1,39,40
 1033 1 1033 1 988 49 c 1,41,42
 867 -20 867 -20 694 -20 c 0,0,1
EndSplineSet
Validated: 19457
EndChar

StartChar: f
Encoding: 102 102 165
Width: 1070
Flags: W
HStem: -430 21G<261.5 413> 435 158<470 768.942> 1381 149<621.643 895.717>
VStem: 170 300<-339.323 435 593 1215.25>
LayerCount: 2
Fore
SplineSet
353 -430 m 1,0,1
 170 -381 170 -381 170 -181 c 2,2,-1
 170 991 l 2,3,4
 170 1246 170 1246 294 1378 c 0,5,6
 437 1530 437 1530 694 1530 c 0,7,8
 922 1530 922 1530 1090 1408 c 1,9,-1
 1001 1146 l 1,10,11
 945 1381 945 1381 759 1381 c 0,12,13
 661 1381 661 1381 576 1302 c 0,14,15
 470 1204 470 1204 470 991 c 2,16,-1
 470 593 l 1,17,-1
 673 593 l 2,18,19
 764 593 764 593 829 704 c 1,20,-1
 850 704 l 1,21,-1
 785 509 l 2,22,23
 760 435 760 435 656 435 c 2,24,-1
 470 435 l 1,25,-1
 470 -391 l 1,26,-1
 353 -430 l 1,0,1
EndSplineSet
Validated: 19457
EndChar

StartChar: g
Encoding: 103 103 166
Width: 1378
Flags: W
HStem: -430 21G<1006 1157.33> -20 149<491.395 776.228> 971 149<618.423 895.717>
VStem: 70 308<325.076 698.828> 918 290<-347.25 16 240 418.25>
LayerCount: 2
Fore
SplineSet
694 -20 m 0,0,1
 428 -20 428 -20 253 136 c 0,2,3
 70 299 70 299 70 550 c 0,4,5
 70 803 70 803 253 964 c 0,6,7
 430 1120 430 1120 694 1120 c 0,8,9
 922 1120 922 1120 1090 998 c 1,10,-1
 1001 736 l 1,11,12
 945 971 945 971 759 971 c 0,13,14
 664 971 664 971 567 892 c 0,15,16
 457 802 457 802 410 665 c 0,17,18
 378 571 378 571 378 464 c 0,19,20
 378 346 378 346 426 252 c 0,21,22
 489 129 489 129 629 129 c 0,23,24
 767 129 767 129 865 257 c 1,25,-1
 918 240 l 1,26,-1
 918 465 l 1,27,-1
 1032 501 l 1,28,29
 1208 455 1208 455 1208 262 c 2,30,-1
 1208 -394 l 1,31,-1
 1094 -430 l 1,32,33
 918 -384 918 -384 918 -191 c 2,34,-1
 918 16 l 1,35,36
 812 -20 812 -20 694 -20 c 0,0,1
EndSplineSet
Validated: 19457
EndChar

StartChar: k
Encoding: 107 107 167
Width: 1455
Flags: W
HStem: -20 21G<261.5 412.444 914.5 1177.68> 1100 20G<937.939 978.129> 1510 20G<217.404 368.5>
VStem: 170 290<70.6775 1390.76>
DStem2: 488 726 761 743 0.769019 0.639226<209.852 614.008>
LayerCount: 2
Fore
SplineSet
353 -20 m 1,0,1
 170 29 170 29 170 229 c 2,2,-1
 170 1288 l 2,3,4
 170 1406 170 1406 65 1406 c 0,5,6
 27 1406 27 1406 -8 1397 c 1,7,-1
 -18 1431 l 1,8,-1
 277 1530 l 1,9,10
 460 1481 460 1481 460 1281 c 2,11,-1
 460 16 l 17,12,-1
 353 -20 l 1,0,1
1117 -20 m 1,13,14
 712 210 712 210 488 726 c 1,15,-1
 962 1120 l 1,16,-1
 1062 996 l 1,17,-1
 761 743 l 1,18,19
 913 413 913 413 1254 176 c 0,20,21
 1330 123 1330 123 1395 123 c 0,22,23
 1430 123 1430 123 1465 132 c 1,24,-1
 1475 98 l 1,25,-1
 1117 -20 l 1,13,14
EndSplineSet
Validated: 1
EndChar

StartChar: r
Encoding: 114 114 168
Width: 1070
Flags: W
HStem: -20 21G<261.5 412.444> 971 149<610.344 895.717>
VStem: 170 290<70.6775 806.71>
LayerCount: 2
Fore
SplineSet
353 -20 m 1,0,1
 170 29 170 29 170 229 c 2,2,-1
 170 878 l 2,3,4
 170 996 170 996 65 996 c 0,5,6
 27 996 27 996 -8 987 c 1,7,-1
 -18 1021 l 1,8,-1
 277 1120 l 1,9,10
 355 1099 355 1099 400 1051 c 1,11,12
 521 1120 521 1120 694 1120 c 0,13,14
 922 1120 922 1120 1090 998 c 1,15,-1
 1001 736 l 1,16,17
 945 971 945 971 759 971 c 0,18,19
 651 971 651 971 566 892 c 0,20,21
 460 794 460 794 460 581 c 2,22,-1
 460 16 l 1,23,-1
 353 -20 l 1,0,1
EndSplineSet
Validated: 19457
EndChar

StartChar: t
Encoding: 116 116 169
Width: 1268
Flags: W
HStem: -20 149<539.395 823.246> 942 158<61.0583 324 622.977 1166.94>
VStem: 118 308<325.076 697.609>
LayerCount: 2
Fore
SplineSet
742 -20 m 0,0,1
 476 -20 476 -20 301 136 c 0,2,3
 118 299 118 299 118 550 c 0,4,5
 118 787 118 787 324 942 c 1,6,-1
 157 942 l 2,7,8
 66 942 66 942 1 831 c 1,9,-1
 -20 831 l 1,10,-1
 45 1026 l 2,11,12
 70 1100 70 1100 174 1100 c 2,13,-1
 1071 1100 l 2,14,15
 1162 1100 1162 1100 1227 1211 c 1,16,-1
 1248 1211 l 1,17,-1
 1183 1016 l 2,18,19
 1158 942 1158 942 1054 942 c 2,20,-1
 797 942 l 2,21,22
 677 942 677 942 615 892 c 0,23,24
 505 802 505 802 458 665 c 0,25,26
 426 571 426 571 426 464 c 0,27,28
 426 346 426 346 474 252 c 0,29,30
 537 129 537 129 677 129 c 0,31,32
 815 129 815 129 913 257 c 1,33,-1
 1210 161 l 1,34,35
 1007 -20 1007 -20 742 -20 c 0,0,1
EndSplineSet
Validated: 19457
EndChar

StartChar: y
Encoding: 121 121 170
Width: 1443
Flags: W
HStem: -430 21G<299 843.5> 1070 30<739 778.006> 1100 20G<265.826 376.5>
VStem: 1048 325<446.099 871.613>
LayerCount: 2
Fore
SplineSet
326 1120 m 1,0,1
 427 1087 427 1087 449 975 c 0,2,3
 522 608 522 608 824 198 c 1,4,-1
 628 132 l 1,5,6
 522 132 522 132 475 196 c 0,7,8
 235 520 235 520 167 897 c 0,9,10
 152 980 152 980 63 980 c 0,11,12
 25 980 25 980 -10 971 c 1,13,-1
 -20 1005 l 1,14,-1
 326 1120 l 1,0,1
739 1100 m 1,15,16
 1373 1100 1373 1100 1373 679 c 0,17,18
 1373 104 1373 104 314 -430 c 1,19,-1
 296 -406 l 1,20,21
 1048 177 1048 177 1048 689 c 0,22,23
 1048 991 1048 991 739 1070 c 1,24,-1
 739 1100 l 1,15,16
EndSplineSet
Validated: 19457
EndChar

StartChar: z
Encoding: 122 122 171
Width: 1185
Flags: W
HStem: 0 178<79 965.688> 214 24<174.248 183.929> 942 158<198.699 644.954>
VStem: 713 340<619.897 879.237>
LayerCount: 2
Fore
SplineSet
20 0 m 1,0,-1
 79 178 l 1,1,-1
 943 178 l 2,2,3
 1038 178 1038 178 1065 82 c 1,4,-1
 993 -136 l 1,5,-1
 959 -126 l 1,6,7
 968 -91 968 -91 968 -53 c 0,8,9
 968 0 968 0 918 0 c 2,10,-1
 20 0 l 1,0,-1
312 1100 m 2,11,-1
 458 1100 l 2,12,13
 1053 1100 1053 1100 1053 749 c 0,14,15
 1053 355 1053 355 185 214 c 1,16,-1
 167 238 l 1,17,18
 713 500 713 500 713 770 c 0,19,20
 713 942 713 942 442 942 c 2,21,-1
 296 942 l 2,22,23
 203 942 203 942 140 832 c 1,24,-1
 119 832 l 1,25,-1
 183 1026 l 2,26,27
 207 1100 207 1100 312 1100 c 2,11,-1
EndSplineSet
Validated: 19457
EndChar

StartChar: x
Encoding: 120 120 172
Width: 1198
Flags: W
HStem: -20 21G<857 965.777> 0 30<502.607 533> 1070 30<646 691.227> 1100 20G<259.286 363>
VStem: 39 310<106.964 311.855> 830 310<754.562 992.634>
LayerCount: 2
Fore
SplineSet
905 -20 m 1,0,1
 809 -12 809 -12 754 45 c 0,2,3
 430 374 430 374 178 924 c 0,4,5
 151 983 151 983 63 983 c 0,6,7
 25 983 25 983 -10 974 c 1,8,-1
 -20 1008 l 1,9,-1
 320 1120 l 1,10,11
 406 1096 406 1096 437 1013 c 0,12,13
 610 548 610 548 1010 156 c 0,14,15
 1058 108 1058 108 1135 108 c 0,16,17
 1173 108 1173 108 1208 117 c 1,18,-1
 1218 83 l 1,19,-1
 905 -20 l 1,0,1
646 1100 m 1,20,21
 1140 1100 1140 1100 1140 892 c 0,22,23
 1140 668 1140 668 743 545 c 1,24,-1
 724 569 l 1,25,26
 830 708 830 708 830 862 c 0,27,28
 830 1026 830 1026 646 1070 c 1,29,-1
 646 1100 l 1,20,21
533 0 m 1,30,31
 39 0 39 0 39 191 c 0,32,33
 39 376 39 376 368 464 c 1,34,-1
 387 440 l 1,35,36
 349 336 349 336 349 220 c 0,37,38
 349 82 349 82 533 30 c 1,39,-1
 533 0 l 1,30,31
EndSplineSet
Validated: 1
EndChar

StartChar: U
Encoding: 85 85 173
Width: 1786
Flags: W
HStem: -20 182<620.058 1023.48> 1350 180<770.04 894>
VStem: 70 327<485.404 922.549> 1306 310<448 1442.65>
LayerCount: 2
Fore
SplineSet
894 -20 m 0,0,1
 543 -20 543 -20 312 191 c 0,2,3
 70 412 70 412 70 755 c 0,4,5
 70 1104 70 1104 312 1319 c 0,6,7
 550 1530 550 1530 894 1530 c 1,8,-1
 955 1350 l 1,9,10
 810 1350 810 1350 667 1242 c 0,11,12
 508 1122 508 1122 441 924 c 0,13,14
 397 794 397 794 397 636 c 0,15,16
 397 475 397 475 476 348 c 0,17,18
 591 162 591 162 805 162 c 0,19,20
 993 162 993 162 1128 270 c 0,21,22
 1306 413 1306 413 1306 696 c 2,23,-1
 1306 1486 l 1,24,-1
 1433 1530 l 1,25,26
 1616 1485 1616 1485 1616 1286 c 2,27,-1
 1616 229 l 2,28,29
 1616 111 1616 111 1721 111 c 0,30,31
 1759 111 1759 111 1794 120 c 1,32,-1
 1804 86 l 1,33,-1
 1489 -20 l 1,34,35
 1376 10 1376 10 1332 99 c 1,36,37
 1145 -20 1145 -20 894 -20 c 0,0,1
EndSplineSet
Validated: 19457
EndChar

StartChar: D
Encoding: 68 68 174
Width: 1786
Flags: W
HStem: -20 180<892 1015.96> 1348 182<762.524 1165.94>
VStem: 170 310<67.3501 1062> 1389 327<587.451 1024.6>
LayerCount: 2
Fore
SplineSet
353 -20 m 1,0,1
 170 25 170 25 170 224 c 2,2,-1
 170 1281 l 2,3,4
 170 1399 170 1399 65 1399 c 0,5,6
 27 1399 27 1399 -8 1390 c 1,7,-1
 -18 1424 l 1,8,-1
 297 1530 l 1,9,10
 410 1500 410 1500 454 1411 c 1,11,12
 641 1530 641 1530 892 1530 c 0,13,14
 1243 1530 1243 1530 1474 1319 c 0,15,16
 1716 1098 1716 1098 1716 755 c 0,17,18
 1716 406 1716 406 1474 191 c 0,19,20
 1236 -20 1236 -20 892 -20 c 1,21,-1
 831 160 l 1,22,23
 976 160 976 160 1119 268 c 0,24,25
 1278 388 1278 388 1345 586 c 0,26,27
 1389 716 1389 716 1389 874 c 0,28,29
 1389 1035 1389 1035 1310 1162 c 0,30,31
 1195 1348 1195 1348 981 1348 c 0,32,33
 793 1348 793 1348 658 1240 c 0,34,35
 480 1097 480 1097 480 814 c 2,36,-1
 480 24 l 1,37,-1
 353 -20 l 1,0,1
EndSplineSet
Validated: 19457
EndChar

StartChar: M
Encoding: 77 77 175
Width: 2912
Flags: W
HStem: -20 180<629.326 831 2018 2141.96> 1348 182<774.851 1143.37 1899.09 2291.94>
VStem: 70 327<481.44 921.987> 1296 320<67.3501 1059.78> 2515 327<587.451 1024.6>
CounterMasks: 1 38
LayerCount: 2
Fore
SplineSet
1482 -20 m 1,0,1
 1296 25 1296 25 1296 224 c 2,2,-1
 1296 814 l 2,3,4
 1296 1076 1296 1076 1255 1167 c 0,5,6
 1174 1348 1174 1348 981 1348 c 0,7,8
 806 1348 806 1348 668 1240 c 0,9,10
 506 1114 506 1114 441 921 c 0,11,12
 397 792 397 792 397 631 c 0,13,14
 397 469 397 469 476 345 c 0,15,16
 594 160 594 160 831 160 c 1,17,-1
 892 -20 l 1,18,19
 546 -20 546 -20 310 191 c 0,20,21
 70 406 70 406 70 755 c 0,22,23
 70 1109 70 1109 310 1319 c 0,24,25
 551 1530 551 1530 892 1530 c 0,26,27
 1245 1530 1245 1530 1449 1306 c 1,28,29
 1673 1530 1673 1530 2018 1530 c 0,30,31
 2369 1530 2369 1530 2600 1319 c 0,32,33
 2842 1098 2842 1098 2842 755 c 0,34,35
 2842 406 2842 406 2600 191 c 0,36,37
 2362 -20 2362 -20 2018 -20 c 1,38,-1
 1957 160 l 1,39,40
 2102 160 2102 160 2245 268 c 0,41,42
 2404 388 2404 388 2471 586 c 0,43,44
 2515 716 2515 716 2515 874 c 0,45,46
 2515 1035 2515 1035 2436 1162 c 0,47,48
 2321 1348 2321 1348 2107 1348 c 0,49,50
 1926 1348 1926 1348 1794 1240 c 0,51,52
 1616 1097 1616 1097 1616 814 c 2,53,-1
 1616 26 l 1,54,-1
 1482 -20 l 1,0,1
EndSplineSet
Validated: 19457
EndChar

StartChar: P
Encoding: 80 80 176
Width: 1786
Flags: W
HStem: -430 21G<261.5 410.727> -20 180<892 1015.96> 1348 182<762.524 1165.94>
VStem: 170 310<-342.65 1062> 1389 327<587.451 1024.6>
LayerCount: 2
Fore
SplineSet
353 -430 m 1,0,1
 170 -385 170 -385 170 -186 c 2,2,-1
 170 1281 l 2,3,4
 170 1399 170 1399 65 1399 c 0,5,6
 27 1399 27 1399 -8 1390 c 1,7,-1
 -18 1424 l 1,8,-1
 297 1530 l 1,9,10
 410 1500 410 1500 454 1411 c 1,11,12
 641 1530 641 1530 892 1530 c 0,13,14
 1243 1530 1243 1530 1474 1319 c 0,15,16
 1716 1098 1716 1098 1716 755 c 0,17,18
 1716 406 1716 406 1474 191 c 0,19,20
 1236 -20 1236 -20 892 -20 c 1,21,-1
 831 160 l 1,22,23
 976 160 976 160 1119 268 c 0,24,25
 1278 388 1278 388 1345 586 c 0,26,27
 1389 716 1389 716 1389 874 c 0,28,29
 1389 1035 1389 1035 1310 1162 c 0,30,31
 1195 1348 1195 1348 981 1348 c 0,32,33
 793 1348 793 1348 658 1240 c 0,34,35
 480 1097 480 1097 480 814 c 2,36,-1
 480 -386 l 1,37,-1
 353 -430 l 1,0,1
EndSplineSet
Validated: 19457
EndChar

StartChar: R
Encoding: 82 82 177
Width: 1570
Flags: W
HStem: -20 21G<261.5 410.436 1028.5 1281> 1361 169<571.218 835.202>
VStem: 170 295<67.3501 1245.01> 916 308<873.088 1237.35>
LayerCount: 2
Fore
SplineSet
353 -20 m 1,0,1
 170 25 170 25 170 224 c 2,2,-1
 170 1281 l 2,3,4
 170 1399 170 1399 65 1399 c 0,5,6
 27 1399 27 1399 -8 1390 c 1,7,-1
 -18 1424 l 1,8,-1
 297 1530 l 1,9,10
 365 1510 365 1510 405 1465 c 1,11,12
 520 1530 520 1530 669 1530 c 0,13,14
 916 1530 916 1530 1073 1385 c 0,15,16
 1224 1245 1224 1245 1224 1021 c 0,17,18
 1224 801 1224 801 1073 657 c 0,19,20
 1028 614 1028 614 955 574 c 1,21,22
 1123 314 1123 314 1395 162 c 0,23,24
 1454 128 1454 128 1507 128 c 0,25,26
 1545 128 1545 128 1580 137 c 1,27,-1
 1590 103 l 1,28,-1
 1221 -20 l 1,29,30
 836 192 836 192 559 678 c 1,31,32
 688 678 688 678 761 735 c 0,33,34
 916 856 916 856 916 1091 c 0,35,36
 916 1202 916 1202 873 1272 c 0,37,38
 818 1361 818 1361 708 1361 c 0,39,40
 610 1361 610 1361 547 1295 c 0,41,42
 465 1209 465 1209 465 1062 c 2,43,-1
 465 19 l 1,44,-1
 353 -20 l 1,0,1
EndSplineSet
Validated: 1
EndChar

StartChar: Z
Encoding: 90 90 178
Width: 1478
Flags: W
HStem: 0 198<87 1253.69> 1330 180<251.835 844.101>
VStem: 985 361<864.827 1207.49>
LayerCount: 2
Fore
SplineSet
20 0 m 1,0,-1
 87 198 l 1,1,-1
 1220 198 l 2,2,3
 1332 198 1332 198 1358 100 c 1,4,-1
 1279 -136 l 1,5,-1
 1245 -126 l 1,6,7
 1254 -91 1254 -91 1254 -53 c 0,8,9
 1254 0 1254 0 1204 0 c 2,10,-1
 20 0 l 1,0,-1
364 1510 m 2,11,-1
 641 1510 l 2,12,13
 1346 1510 1346 1510 1346 1032 c 0,14,15
 1346 522 1346 522 218 241 c 1,16,-1
 200 266 l 1,17,18
 985 684 985 684 985 1034 c 0,19,20
 985 1330 985 1330 640 1330 c 2,21,-1
 339 1330 l 2,22,23
 247 1330 247 1330 184 1221 c 1,24,-1
 163 1221 l 1,25,-1
 235 1436 l 2,26,27
 260 1510 260 1510 364 1510 c 2,11,-1
EndSplineSet
Validated: 19457
EndChar

StartChar: K
Encoding: 75 75 179
Width: 1715
Flags: W
HStem: -20 21G<266.5 415.727 1062.5 1406.69> 1510 20G<242.566 393.5 1146.12 1186.76>
VStem: 175 310<67.3501 1381.56>
DStem2: 518 984 828 1001 0.766677 0.642033<238.221 850.423>
LayerCount: 2
Fore
SplineSet
358 -20 m 1,0,1
 175 25 175 25 175 224 c 2,2,-1
 175 1281 l 2,3,4
 175 1399 175 1399 70 1399 c 0,5,6
 32 1399 32 1399 -3 1390 c 1,7,-1
 -13 1424 l 1,8,-1
 302 1530 l 1,9,10
 485 1481 485 1481 485 1281 c 2,11,-1
 485 24 l 1,12,-1
 358 -20 l 1,0,1
1347 -20 m 1,13,14
 778 300 778 300 518 984 c 1,15,-1
 1170 1530 l 1,16,-1
 1289 1388 l 1,17,-1
 828 1001 l 1,18,19
 1029 494 1029 494 1541 174 c 0,20,21
 1601 135 1601 135 1654 135 c 0,22,23
 1690 135 1690 135 1725 144 c 1,24,-1
 1735 110 l 1,25,-1
 1347 -20 l 1,13,14
EndSplineSet
Validated: 1
EndChar

StartChar: H
Encoding: 72 72 180
Width: 1786
Flags: W
HStem: -430 180<892 1015.96> -20 21G<261.5 410.727> 938 182<763.34 1165.94> 1510 20G<237.566 388.5>
VStem: 170 310<67.3501 652 1017 1381.56> 1389 327<177.451 614.596>
LayerCount: 2
Fore
SplineSet
353 -20 m 1,0,1
 170 25 170 25 170 224 c 2,2,-1
 170 1281 l 2,3,4
 170 1399 170 1399 65 1399 c 0,5,6
 27 1399 27 1399 -8 1390 c 1,7,-1
 -18 1424 l 1,8,-1
 297 1530 l 1,9,10
 480 1481 480 1481 480 1281 c 2,11,-1
 480 1017 l 1,12,13
 658 1120 658 1120 892 1120 c 0,14,15
 1243 1120 1243 1120 1474 909 c 0,16,17
 1716 688 1716 688 1716 345 c 0,18,19
 1716 -4 1716 -4 1474 -219 c 0,20,21
 1236 -430 1236 -430 892 -430 c 1,22,-1
 831 -250 l 1,23,24
 976 -250 976 -250 1119 -142 c 0,25,26
 1278 -22 1278 -22 1345 176 c 0,27,28
 1389 306 1389 306 1389 464 c 0,29,30
 1389 625 1389 625 1310 752 c 0,31,32
 1195 938 1195 938 981 938 c 0,33,34
 793 938 793 938 658 830 c 0,35,36
 480 687 480 687 480 404 c 2,37,-1
 480 24 l 1,38,-1
 353 -20 l 1,0,1
EndSplineSet
Validated: 19457
EndChar

StartChar: B
Encoding: 66 66 181
Width: 1299
Flags: W
HStem: -20 170<672 768.844> 734 166<638 735.109> 1364 166<531.588 776.044>
VStem: 170 295<67.3501 1298.72> 833 288<1003.32 1303.54> 921 308<311.899 635.193>
LayerCount: 2
Fore
SplineSet
353 -20 m 1,0,1
 170 25 170 25 170 224 c 2,2,-1
 170 1281 l 2,3,4
 170 1399 170 1399 65 1399 c 0,5,6
 27 1399 27 1399 -8 1390 c 1,7,-1
 -18 1424 l 1,8,-1
 297 1530 l 1,9,10
 366 1510 366 1510 407 1459 c 1,11,12
 520 1530 520 1530 668 1530 c 0,13,14
 867 1530 867 1530 989 1415 c 0,15,16
 1121 1289 1121 1289 1121 1131 c 0,17,18
 1121 969 1121 969 999 857 c 0,19,20
 988 847 988 847 977 838 c 1,21,22
 1026 813 1026 813 1069 778 c 0,23,24
 1229 646 1229 646 1229 444 c 0,25,26
 1229 241 1229 241 1078 103 c 0,27,28
 943 -20 943 -20 672 -20 c 1,29,-1
 615 150 l 1,30,31
 744 150 744 150 824 236 c 0,32,33
 921 340 921 340 921 513 c 0,34,35
 921 613 921 613 878 670 c 0,36,37
 830 734 830 734 718 734 c 2,38,-1
 638 734 l 1,39,-1
 584 900 l 1,40,41
 670 905 670 905 726 938 c 0,42,43
 775 967 775 967 805 1035 c 0,44,45
 833 1097 833 1097 833 1174 c 0,46,47
 833 1257 833 1257 784 1313 c 0,48,49
 739 1364 739 1364 660 1364 c 0,50,51
 580 1364 580 1364 527 1317 c 0,52,53
 465 1262 465 1262 465 1164 c 2,54,-1
 465 19 l 1,55,-1
 353 -20 l 1,0,1
EndSplineSet
Validated: 19457
EndChar

StartChar: X
Encoding: 88 88 182
Width: 1487
Flags: W
HStem: -20 131<1184 1424> 0 30<567.962 601> 1384 34<-14.2165 23.776> 1480 30<872 904.977> 1510 20G<260.929 373>
VStem: 64 327<124.155 379.23> 1082 326<1107.14 1379.19>
LayerCount: 2
Fore
SplineSet
1184 -20 m 1,0,1
 1091 -20 1091 -20 1027 43 c 0,2,3
 430 628 430 628 193 1320 c 0,4,5
 167 1393 167 1393 63 1393 c 0,6,7
 25 1393 25 1393 -10 1384 c 1,8,-1
 -20 1418 l 1,9,-1
 322 1530 l 1,10,11
 424 1508 424 1508 464 1402 c 0,12,13
 714 719 714 719 1279 160 c 0,14,15
 1328 111 1328 111 1424 111 c 0,16,17
 1462 111 1462 111 1497 120 c 1,18,-1
 1507 86 l 1,19,-1
 1184 -20 l 1,0,1
601 0 m 1,20,21
 64 0 64 0 64 231 c 0,22,23
 64 468 64 468 472 637 c 1,24,-1
 491 613 l 1,25,26
 391 426 391 426 391 239 c 0,27,28
 391 93 391 93 601 30 c 1,29,-1
 601 0 l 1,20,21
872 1510 m 1,30,31
 1408 1510 1408 1510 1408 1256 c 0,32,33
 1408 981 1408 981 882 777 c 1,34,-1
 863 801 l 1,35,36
 1082 996 1082 996 1082 1256 c 0,37,38
 1082 1420 1082 1420 872 1480 c 1,39,-1
 872 1510 l 1,30,31
EndSplineSet
Validated: 1
EndChar

StartChar: ae
Encoding: 230 230 183
Width: 2002
Flags: W
HStem: -20 149<1259.21 1545.25> 0 30<604.932 640> 435 158<1161 1678.94> 971 149<1388.42 1665.72> 980 34<367.784 406.09>
VStem: 70 315<162.526 451.387>
LayerCount: 2
Fore
SplineSet
1464 -20 m 0,0,1
 1330 -20 1330 -20 1220 19 c 1,2,-1
 1098 -20 l 1,3,4
 980 6 980 6 953 104 c 0,5,6
 828 564 828 564 539 943 c 0,7,8
 504 989 504 989 445 989 c 0,9,10
 407 989 407 989 372 980 c 1,11,-1
 362 1014 l 1,12,-1
 688 1120 l 1,13,14
 763 1106 763 1106 823 1024 c 0,15,16
 879 947 879 947 931 861 c 1,17,18
 969 916 969 916 1023 964 c 0,19,20
 1200 1120 1200 1120 1464 1120 c 0,21,22
 1692 1120 1692 1120 1860 998 c 1,23,-1
 1771 736 l 1,24,25
 1715 971 1715 971 1529 971 c 0,26,27
 1434 971 1434 971 1337 892 c 0,28,29
 1227 802 1227 802 1180 665 c 0,30,31
 1168 630 1168 630 1161 593 c 1,32,-1
 1583 593 l 2,33,34
 1674 593 1674 593 1739 704 c 1,35,-1
 1760 704 l 1,36,-1
 1695 509 l 2,37,38
 1670 435 1670 435 1566 435 c 2,39,-1
 1149 435 l 1,40,41
 1154 334 1154 334 1196 252 c 0,42,43
 1259 129 1259 129 1399 129 c 0,44,45
 1537 129 1537 129 1635 257 c 1,46,-1
 1932 161 l 1,47,48
 1729 -20 1729 -20 1464 -20 c 0,0,1
640 0 m 1,49,50
 70 0 70 0 70 300 c 0,51,52
 70 559 70 559 560 815 c 1,53,-1
 578 791 l 1,54,55
 385 568 385 568 385 304 c 0,56,57
 385 106 385 106 640 30 c 1,58,-1
 640 0 l 1,49,50
EndSplineSet
Validated: 19457
EndChar

StartChar: N
Encoding: 78 78 184
Width: 1744
Flags: W
HStem: -20 21G<221.5 337 1024 1368.55> 1510 20G<240.566 344.5 1403.51 1518.5>
VStem: 166 210<22.9844 954> 1364 210<289 1424.62>
LayerCount: 2
Fore
SplineSet
277 -20 m 1,0,1
 166 24 166 24 166 139 c 2,2,-1
 166 1304 l 1,3,4
 124 1399 124 1399 68 1399 c 0,5,6
 30 1399 30 1399 -5 1390 c 1,7,-1
 -15 1424 l 1,8,-1
 300 1530 l 1,9,10
 389 1519 389 1519 438 1423 c 0,11,12
 822 667 822 667 1364 289 c 1,13,-1
 1364 1367 l 2,14,15
 1364 1426 1364 1426 1311 1426 c 0,16,17
 1273 1426 1273 1426 1238 1417 c 1,18,-1
 1228 1451 l 1,19,-1
 1463 1530 l 1,20,21
 1574 1486 1574 1486 1574 1372 c 2,22,-1
 1574 69 l 1,23,-1
 1309 -20 l 1,24,25
 739 338 739 338 376 954 c 1,26,-1
 376 13 l 1,27,-1
 277 -20 l 1,0,1
EndSplineSet
Validated: 1
EndChar

StartChar: Dcroat
Encoding: 272 272 185
Width: 1786
Flags: W
HStem: -20 180<892 1015.96> 612 150<12.6753 170 480 717.884> 1348 182<762.524 1165.94>
VStem: 170 310<67.3501 612 762 1062> 1389 327<587.451 1024.6>
LayerCount: 2
Fore
SplineSet
353 -20 m 1,0,1
 170 25 170 25 170 224 c 2,2,-1
 170 612 l 1,3,-1
 2 612 l 1,4,-1
 -15 665 l 1,5,6
 17 762 17 762 111 762 c 2,7,-1
 170 762 l 1,8,-1
 170 1281 l 2,9,10
 170 1399 170 1399 65 1399 c 0,11,12
 27 1399 27 1399 -8 1390 c 1,13,-1
 -18 1424 l 1,14,-1
 297 1530 l 1,15,16
 410 1500 410 1500 454 1411 c 1,17,18
 641 1530 641 1530 892 1530 c 0,19,20
 1243 1530 1243 1530 1474 1319 c 0,21,22
 1716 1098 1716 1098 1716 755 c 0,23,24
 1716 406 1716 406 1474 191 c 0,25,26
 1236 -20 1236 -20 892 -20 c 1,27,-1
 831 160 l 1,28,29
 976 160 976 160 1119 268 c 0,30,31
 1278 388 1278 388 1345 586 c 0,32,33
 1389 716 1389 716 1389 874 c 0,34,35
 1389 1035 1389 1035 1310 1162 c 0,36,37
 1195 1348 1195 1348 981 1348 c 0,38,39
 793 1348 793 1348 658 1240 c 0,40,41
 480 1097 480 1097 480 814 c 2,42,-1
 480 762 l 1,43,-1
 729 762 l 1,44,-1
 746 709 l 1,45,46
 713 612 713 612 620 612 c 2,47,-1
 480 612 l 1,48,-1
 480 24 l 1,49,-1
 353 -20 l 1,0,1
EndSplineSet
Validated: 19457
EndChar

StartChar: dcroat
Encoding: 273 273 186
Width: 1388
VWidth: 2458
Flags: W
HStem: -20 149<492.118 777.656> 544 150<670.675 928 1218 1375.88> 971 149<614.812 694> 1510 20G<975.404 1126.5>
VStem: 70 308<327.128 695.522> 928 290<293.29 544 694 1390.76>
LayerCount: 2
Fore
SplineSet
694 -20 m 0,0,1
 426 -20 426 -20 253 136 c 0,2,3
 70 301 70 301 70 550 c 0,4,5
 70 804 70 804 253 964 c 0,6,7
 431 1120 431 1120 694 1120 c 1,8,-1
 744 971 l 1,9,10
 665 971 665 971 567 892 c 0,11,12
 457 802 457 802 410 665 c 0,13,14
 378 571 378 571 378 464 c 0,15,16
 378 339 378 339 426 252 c 0,17,18
 494 129 494 129 629 129 c 0,19,20
 737 129 737 129 822 208 c 0,21,22
 928 306 928 306 928 519 c 2,23,-1
 928 544 l 1,24,-1
 660 544 l 1,25,-1
 643 597 l 1,26,27
 675 694 675 694 769 694 c 2,28,-1
 928 694 l 1,29,-1
 928 1288 l 2,30,31
 928 1406 928 1406 823 1406 c 0,32,33
 785 1406 785 1406 750 1397 c 1,34,-1
 740 1431 l 1,35,-1
 1035 1530 l 1,36,37
 1218 1481 1218 1481 1218 1281 c 2,38,-1
 1218 694 l 1,39,-1
 1387 694 l 1,40,-1
 1404 641 l 1,41,42
 1371 544 1371 544 1278 544 c 2,43,-1
 1218 544 l 1,44,-1
 1218 222 l 2,45,46
 1218 104 1218 104 1323 104 c 0,47,48
 1361 104 1361 104 1396 113 c 1,49,-1
 1406 79 l 1,50,-1
 1111 -20 l 1,51,52
 1033 1 1033 1 988 49 c 1,53,54
 867 -20 867 -20 694 -20 c 0,0,1
EndSplineSet
Validated: 19457
EndChar

StartChar: oslash
Encoding: 248 248 187
Width: 1388
Flags: W
HStem: -20 149<620 766.288> 971 149<621.47 767>
VStem: 70 308<327.182 698.828> 1010 308<404.478 772.872>
DStem2: 425 29 518 -152 0.342225 0.939618<-79.4579 3.08602 161.644 1000.62 1160.44 1241.72>
LayerCount: 2
Fore
SplineSet
694 -20 m 0,0,1
 629 -20 629 -20 569 -11 c 1,2,-1
 518 -152 l 1,3,-1
 462 -152 l 1,4,5
 405 -107 405 -107 405 -49 c 0,6,7
 405 -26 405 -26 414 0 c 2,8,-1
 425 29 l 1,9,10
 330 67 330 67 253 136 c 0,11,12
 70 301 70 301 70 550 c 0,13,14
 70 803 70 803 253 964 c 0,15,16
 430 1120 430 1120 694 1120 c 0,17,18
 759 1120 759 1120 818 1111 c 1,19,-1
 869 1252 l 1,20,-1
 925 1252 l 1,21,22
 983 1205 983 1205 983 1148 c 0,23,24
 983 1125 983 1125 974 1100 c 2,25,-1
 964 1071 l 1,26,27
 1059 1033 1059 1033 1135 964 c 0,28,29
 1318 799 1318 799 1318 550 c 0,30,31
 1318 296 1318 296 1135 136 c 0,32,33
 957 -20 957 -20 694 -20 c 0,0,1
620 129 m 1,34,35
 723 129 723 129 821 208 c 0,36,37
 931 298 931 298 978 435 c 0,38,39
 1010 529 1010 529 1010 636 c 0,40,41
 1010 761 1010 761 962 848 c 0,42,43
 939 890 939 890 908 918 c 1,44,-1
 620 129 l 1,34,35
767 971 m 17,45,46
 665 971 665 971 567 892 c 0,47,48
 457 802 457 802 410 665 c 0,49,50
 378 571 378 571 378 464 c 0,51,52
 378 346 378 346 426 252 c 0,53,54
 448 209 448 209 480 181 c 1,55,-1
 767 971 l 17,45,46
EndSplineSet
Validated: 19457
EndChar

StartChar: kgreenlandic
Encoding: 312 312 188
Width: 1455
Flags: W
HStem: -20 21G<261.5 412.444 914.5 1177.68> 1100 20G<217.404 368.5 937.939 978.129>
VStem: 170 290<70.6775 980.76>
DStem2: 488 726 761 743 0.769019 0.639226<209.852 614.008>
LayerCount: 2
Fore
SplineSet
1117 -20 m 1,0,1
 712 210 712 210 488 726 c 1,2,-1
 962 1120 l 1,3,-1
 1062 996 l 1,4,-1
 761 743 l 1,5,6
 913 413 913 413 1254 176 c 0,7,8
 1330 123 1330 123 1395 123 c 0,9,10
 1430 123 1430 123 1465 132 c 1,11,-1
 1475 98 l 1,12,-1
 1117 -20 l 1,0,1
353 -20 m 1,13,14
 170 29 170 29 170 229 c 2,15,-1
 170 878 l 2,16,17
 170 996 170 996 65 996 c 0,18,19
 27 996 27 996 -8 987 c 1,20,-1
 -18 1021 l 1,21,-1
 277 1120 l 1,22,23
 460 1071 460 1071 460 871 c 2,24,-1
 460 16 l 17,25,-1
 353 -20 l 1,13,14
EndSplineSet
Validated: 1
EndChar

StartChar: S
Encoding: 83 83 189
Width: 1303
Flags: W
HStem: -20 175<320.172 685.603> 745 171<511.202 804.77> 1365 165<565.285 896.633>
VStem: 113 340<970.673 1253.7> 888 345<344.517 665.384>
LayerCount: 2
Fore
SplineSet
553 -20 m 0,0,1
 272 -20 272 -20 70 138 c 1,2,-1
 151 381 l 1,3,4
 270 155 270 155 494 155 c 0,5,6
 606 155 606 155 704 209 c 0,7,8
 822 274 822 274 863 388 c 0,9,10
 888 458 888 458 888 531 c 0,11,12
 888 635 888 635 815 695 c 0,13,14
 754 745 754 745 645 745 c 0,15,16
 406 745 406 745 259 855 c 0,17,18
 113 965 113 965 113 1132 c 0,19,20
 113 1307 113 1307 260 1412 c 0,21,22
 427 1530 427 1530 681 1530 c 0,23,24
 922 1530 922 1530 1105 1409 c 1,25,-1
 1018 1147 l 1,26,27
 947 1365 947 1365 738 1365 c 0,28,29
 660 1365 660 1365 603 1341 c 0,30,31
 524 1308 524 1308 485 1234 c 0,32,33
 453 1173 453 1173 453 1096 c 0,34,35
 453 1013 453 1013 503 964.5 c 128,-1,36
 553 916 553 916 651 916 c 0,37,38
 915 916 915 916 1064 805 c 0,39,40
 1233 680 1233 680 1233 480 c 0,41,42
 1233 261 1233 261 1048 126 c 0,43,44
 847 -20 847 -20 553 -20 c 0,0,1
EndSplineSet
Validated: 19457
EndChar

StartChar: Oslash
Encoding: 216 216 190
Width: 1786
Flags: W
HStem: -20 180<758.36 1009.86> 1348 182<774.851 1027.03>
VStem: 70 327<481.44 921.987> 1389 327<587.451 1024.6>
DStem2: 553 41 647 -140 0.341927 0.939726<-78.1789 2.30656 184.4 1388.76 1572.88 1651.68>
LayerCount: 2
Fore
SplineSet
892 -20 m 0,0,1
 790 -20 790 -20 697 -1 c 1,2,-1
 647 -140 l 1,3,-1
 592 -140 l 1,4,5
 534 -94 534 -94 534 -36 c 0,6,7
 534 -13 534 -13 543 12 c 2,8,-1
 553 41 l 1,9,10
 420 93 420 93 310 191 c 0,11,12
 70 406 70 406 70 755 c 0,13,14
 70 1109 70 1109 310 1319 c 0,15,16
 551 1530 551 1530 892 1530 c 0,17,18
 996 1530 996 1530 1089 1512 c 1,19,-1
 1139 1650 l 1,20,-1
 1194 1650 l 1,21,22
 1252 1603 1252 1603 1252 1545 c 0,23,24
 1252 1522 1252 1522 1243 1498 c 2,25,-1
 1233 1470 l 1,26,27
 1367 1417 1367 1417 1474 1319 c 0,28,29
 1716 1098 1716 1098 1716 755 c 0,30,31
 1716 406 1716 406 1474 191 c 0,32,33
 1236 -20 1236 -20 892 -20 c 0,0,1
805 160 m 0,34,35
 976 160 976 160 1119 268 c 0,36,37
 1278 388 1278 388 1345 586 c 0,38,39
 1389 716 1389 716 1389 874 c 0,40,41
 1389 1035 1389 1035 1310 1162 c 0,42,43
 1253 1254 1253 1254 1171 1301 c 1,44,-1
 757 163 l 1,45,46
 780 160 780 160 805 160 c 0,34,35
614 208 m 1,47,-1
 1028 1346 l 1,48,49
 1005 1348 1005 1348 981 1348 c 0,50,51
 806 1348 806 1348 668 1240 c 0,52,53
 506 1114 506 1114 441 921 c 0,54,55
 397 792 397 792 397 631 c 0,56,57
 397 469 397 469 476 345 c 0,58,59
 534 254 534 254 614 208 c 1,47,-1
EndSplineSet
Validated: 19457
EndChar

StartChar: s
Encoding: 115 115 191
Width: 1073
Flags: W
HStem: -20 151<283.074 569.097> 528 159<446.914 626.9> 977 143<472.671 719.112>
VStem: 103 309<710.722 916.285> 679 324<248.567 494.199>
LayerCount: 2
Fore
SplineSet
465 -20 m 0,0,1
 237 -20 237 -20 70 118 c 1,2,-1
 158 376 l 1,3,4
 232 131 232 131 423 131 c 0,5,6
 502 131 502 131 564 172 c 0,7,8
 620 210 620 210 654 284 c 0,9,10
 679 339 679 339 679 395 c 0,11,12
 679 461 679 461 628 501 c 0,13,14
 593 528 593 528 532 528 c 0,15,16
 331 528 331 528 215 614 c 0,17,18
 103 698 103 698 103 820 c 0,19,20
 103 946 103 946 215 1028 c 0,21,22
 340 1120 340 1120 558 1120 c 0,23,24
 737 1120 737 1120 882 1040 c 1,25,-1
 798 794 l 1,26,27
 747 977 747 977 600 977 c 0,28,29
 556 977 556 977 510 956 c 0,30,31
 466 936 466 936 442 899 c 0,32,33
 412 852 412 852 412 797 c 0,34,35
 412 743 412 743 446 713 c 0,36,37
 475 687 475 687 537 687 c 0,38,39
 753 687 753 687 874 599 c 0,40,41
 1003 505 1003 505 1003 361 c 0,42,43
 1003 202 1003 202 862 101 c 0,44,45
 694 -20 694 -20 465 -20 c 0,0,1
EndSplineSet
Validated: 19457
EndChar

StartChar: OE
Encoding: 338 338 192
Width: 2633
Flags: W
HStem: -20 180<621.515 1013.29 1692.85 2076.9> 622 178<1475 2314.94> 1348 182<774.851 1165.65 1834.6 2228.67>
VStem: 70 327<481.44 921.987> 1135 327<480.301 622>
LayerCount: 2
Fore
SplineSet
1956 -20 m 0,0,1
 1648 -20 1648 -20 1424 150 c 1,2,3
 1201 -20 1201 -20 892 -20 c 0,4,5
 548 -20 548 -20 310 191 c 0,6,7
 70 406 70 406 70 755 c 0,8,9
 70 1109 70 1109 310 1319 c 0,10,11
 551 1530 551 1530 892 1530 c 0,12,13
 1209 1530 1209 1530 1426 1360 c 1,14,15
 1651 1530 1651 1530 1957 1530 c 0,16,17
 2301 1530 2301 1530 2539 1319 c 1,18,-1
 2435 1014 l 1,19,20
 2336 1348 2336 1348 2044 1348 c 0,21,22
 1866 1348 1866 1348 1730 1239 c 0,23,24
 1570 1111 1570 1111 1506 921 c 0,25,26
 1486 863 1486 863 1475 800 c 1,27,-1
 2226 800 l 2,28,29
 2317 800 2317 800 2382 911 c 1,30,-1
 2403 911 l 1,31,-1
 2331 696 l 2,32,33
 2306 622 2306 622 2202 622 c 2,34,-1
 1462 622 l 1,35,36
 1467 472 1467 472 1546 347 c 0,37,38
 1665 160 1665 160 1870 160 c 0,39,40
 2087 160 2087 160 2235 319 c 1,41,-1
 2563 213 l 1,42,43
 2303 -20 2303 -20 1956 -20 c 0,0,1
805 160 m 0,44,45
 976 160 976 160 1119 268 c 0,46,47
 1180 314 1180 314 1228 372 c 1,48,49
 1135 537 1135 537 1135 755 c 0,50,51
 1135 1025 1135 1025 1275 1212 c 1,52,53
 1164 1348 1164 1348 981 1348 c 0,54,55
 806 1348 806 1348 668 1240 c 0,56,57
 506 1114 506 1114 441 921 c 0,58,59
 397 792 397 792 397 631 c 0,60,61
 397 469 397 469 476 345 c 0,62,63
 594 160 594 160 805 160 c 0,44,45
EndSplineSet
Validated: 19457
EndChar

StartChar: oe
Encoding: 339 339 193
Width: 1950
Flags: W
HStem: -20 149<491.395 770.648 1207.6 1493.25> 435 158<1109 1626.94> 971 149<618.61 895.453 1335.16 1613.72>
VStem: 70 308<327.182 698.828> 788 309<325.212 435>
LayerCount: 2
Fore
SplineSet
1412 -20 m 0,0,1
 1205 -20 1205 -20 1052 75 c 1,2,3
 899 -20 899 -20 694 -20 c 0,4,5
 428 -20 428 -20 253 136 c 0,6,7
 70 301 70 301 70 550 c 0,8,9
 70 803 70 803 253 964 c 0,10,11
 430 1120 430 1120 694 1120 c 0,12,13
 903 1120 903 1120 1054 1025 c 1,14,15
 1207 1120 1207 1120 1412 1120 c 0,16,17
 1640 1120 1640 1120 1808 998 c 1,18,-1
 1719 736 l 1,19,20
 1663 971 1663 971 1477 971 c 0,21,22
 1382 971 1382 971 1285 892 c 0,23,24
 1175 802 1175 802 1128 665 c 0,25,26
 1116 630 1116 630 1109 593 c 1,27,-1
 1531 593 l 2,28,29
 1622 593 1622 593 1687 704 c 1,30,-1
 1708 704 l 1,31,-1
 1643 509 l 2,32,33
 1618 435 1618 435 1514 435 c 2,34,-1
 1097 435 l 1,35,36
 1102 334 1102 334 1144 252 c 0,37,38
 1207 129 1207 129 1347 129 c 0,39,40
 1485 129 1485 129 1583 257 c 1,41,-1
 1880 161 l 1,42,43
 1677 -20 1677 -20 1412 -20 c 0,0,1
629 129 m 0,44,45
 723 129 723 129 821 208 c 0,46,47
 847 229 847 229 870 254 c 1,48,49
 788 383 788 383 788 550 c 0,50,51
 788 762 788 762 917 909 c 1,52,53
 855 971 855 971 759 971 c 0,54,55
 665 971 665 971 567 892 c 0,56,57
 457 802 457 802 410 665 c 0,58,59
 378 571 378 571 378 464 c 0,60,61
 378 346 378 346 426 252 c 0,62,63
 489 129 489 129 629 129 c 0,44,45
EndSplineSet
Validated: 19457
EndChar

StartChar: Tbar
Encoding: 358 358 194
Width: 1608
Flags: W
HStem: -20 180<628.113 1011.9> 692 150<419 717.884> 1330 180<68.8352 368 756.762 1497.93>
VStem: 72 325<477.641 692>
LayerCount: 2
Fore
SplineSet
891 -20 m 0,0,1
 548 -20 548 -20 310 191 c 0,2,3
 92 385 92 385 72 692 c 1,4,-1
 2 692 l 1,5,-1
 -15 745 l 1,6,7
 10 822 10 822 74 838 c 1,8,9
 102 1121 102 1121 331 1302 c 0,10,11
 349 1317 349 1317 368 1330 c 1,12,-1
 156 1330 l 2,13,14
 64 1330 64 1330 1 1221 c 1,15,-1
 -20 1221 l 1,16,-1
 52 1436 l 2,17,18
 77 1510 77 1510 181 1510 c 2,19,-1
 1411 1510 l 2,20,21
 1502 1510 1502 1510 1567 1621 c 1,22,-1
 1588 1621 l 1,23,-1
 1516 1406 l 2,24,25
 1491 1330 1491 1330 1387 1330 c 2,26,-1
 985 1330 l 2,27,28
 796 1330 796 1330 664 1232 c 0,29,30
 509 1117 509 1117 441 921 c 0,31,32
 428 882 428 882 419 842 c 1,33,-1
 729 842 l 1,34,-1
 746 789 l 1,35,36
 713 692 713 692 620 692 c 2,37,-1
 398 692 l 1,38,39
 397 667 397 667 397 641 c 0,40,41
 397 480 397 480 481 347 c 0,42,43
 600 160 600 160 805 160 c 0,44,45
 1022 160 1022 160 1170 319 c 1,46,-1
 1498 213 l 1,47,48
 1238 -20 1238 -20 891 -20 c 0,0,1
EndSplineSet
Validated: 19457
EndChar

StartChar: tbar
Encoding: 359 359 195
Width: 1268
Flags: W
HStem: -20 149<539.395 823.246> 481 150<12.6753 128.297 448 717.884> 942 158<61.0583 324 622.977 1166.94>
VStem: 122 304<319.6 481>
LayerCount: 2
Fore
SplineSet
742 -20 m 0,0,1
 476 -20 476 -20 301 136 c 0,2,3
 144 276 144 276 122 481 c 1,4,-1
 2 481 l 1,5,-1
 -15 534 l 1,6,7
 17 631 17 631 111 631 c 2,8,-1
 124 631 l 1,9,10
 154 814 154 814 324 942 c 1,11,-1
 157 942 l 2,12,13
 66 942 66 942 1 831 c 1,14,-1
 -20 831 l 1,15,-1
 45 1026 l 2,16,17
 70 1100 70 1100 174 1100 c 2,18,-1
 1071 1100 l 2,19,20
 1162 1100 1162 1100 1227 1211 c 1,21,-1
 1248 1211 l 1,22,-1
 1183 1016 l 2,23,24
 1158 942 1158 942 1054 942 c 2,25,-1
 797 942 l 2,26,27
 677 942 677 942 615 892 c 0,28,29
 505 802 505 802 458 665 c 0,30,31
 452 648 452 648 448 631 c 1,32,-1
 729 631 l 1,33,-1
 746 578 l 1,34,35
 713 481 713 481 620 481 c 2,36,-1
 426 481 l 1,37,38
 426 473 426 473 426 464 c 0,39,40
 426 346 426 346 474 252 c 0,41,42
 537 129 537 129 677 129 c 0,43,44
 815 129 815 129 913 257 c 1,45,-1
 1210 161 l 1,46,47
 1007 -20 1007 -20 742 -20 c 0,0,1
EndSplineSet
Validated: 19457
EndChar

StartChar: thorn
Encoding: 254 254 196
Width: 1388
Flags: W
HStem: -430 21G<261.5 412.444> -20 149<694 773.188> 971 149<610.271 895.882> 1510 20G<217.404 368.5>
VStem: 170 290<-339.323 806.71 1080 1390.76> 1010 308<404.478 772.872>
LayerCount: 2
Fore
SplineSet
353 -430 m 1,0,1
 170 -381 170 -381 170 -181 c 2,2,-1
 170 1288 l 2,3,4
 170 1406 170 1406 65 1406 c 0,5,6
 27 1406 27 1406 -8 1397 c 1,7,-1
 -18 1431 l 1,8,-1
 277 1530 l 1,9,10
 460 1481 460 1481 460 1281 c 2,11,-1
 460 1080 l 1,12,13
 562 1120 562 1120 694 1120 c 0,14,15
 962 1120 962 1120 1135 964 c 0,16,17
 1318 799 1318 799 1318 550 c 0,18,19
 1318 296 1318 296 1135 136 c 0,20,21
 957 -20 957 -20 694 -20 c 1,22,-1
 644 129 l 1,23,24
 723 129 723 129 821 208 c 0,25,26
 931 298 931 298 978 435 c 0,27,28
 1010 529 1010 529 1010 636 c 0,29,30
 1010 761 1010 761 962 848 c 0,31,32
 894 971 894 971 759 971 c 0,33,34
 651 971 651 971 566 892 c 0,35,36
 460 794 460 794 460 581 c 2,37,-1
 460 -394 l 1,38,-1
 353 -430 l 1,0,1
EndSplineSet
Validated: 19457
EndChar

StartChar: Thorn
Encoding: 222 222 197
Width: 1294
Flags: W
HStem: -20 21G<261.5 410.436> 255 168<678 742.369> 1106 169<571.979 835.202> 1510 20G<237.566 381>
VStem: 170 295<67.3501 990.009 1238 1383.76> 916 308<620.038 982.243>
LayerCount: 2
Fore
SplineSet
353 -20 m 1,0,1
 170 25 170 25 170 224 c 2,2,-1
 170 1281 l 2,3,4
 170 1399 170 1399 65 1399 c 0,5,6
 27 1399 27 1399 -8 1390 c 1,7,-1
 -18 1424 l 1,8,-1
 297 1530 l 1,9,10
 465 1481 465 1481 465 1276 c 2,11,-1
 465 1238 l 1,12,13
 558 1275 558 1275 669 1275 c 0,14,15
 916 1275 916 1275 1073 1130 c 0,16,17
 1224 990 1224 990 1224 765 c 128,-1,18
 1224 540 1224 540 1073 402 c 0,19,20
 912 255 912 255 678 255 c 1,21,-1
 559 423 l 1,22,23
 691 423 691 423 761 480 c 0,24,25
 916 603 916 603 916 836 c 0,26,27
 916 947 916 947 873 1017 c 0,28,29
 818 1106 818 1106 708 1106 c 0,30,31
 610 1106 610 1106 547 1040 c 0,32,33
 465 954 465 954 465 807 c 2,34,-1
 465 19 l 1,35,-1
 353 -20 l 1,0,1
EndSplineSet
Validated: 19457
EndChar

StartChar: AE
Encoding: 198 198 198
Width: 2592
Flags: W
HStem: -20 180<1651.91 2035.9> 0 30<728.811 772> 622 178<1434 2273.94> 1100 20G<406.5 758> 1348 182<1791.91 2187.67> 1391 34<489.784 527.964>
VStem: 70 343<227.456 570.089>
LayerCount: 2
Fore
SplineSet
1915 -20 m 0,0,1
 1740 -20 1740 -20 1592 35 c 1,2,-1
 1425 -20 l 1,3,4
 1311 -1 1311 -1 1279 96 c 0,5,6
 1054 776 1054 776 667 1336 c 0,7,8
 622 1401 622 1401 557 1401 c 0,9,10
 522 1401 522 1401 494 1391 c 1,11,-1
 484 1425 l 1,12,-1
 806 1530 l 1,13,14
 898 1514 898 1514 970 1420 c 0,15,16
 1078 1282 1078 1282 1175 1118 c 1,17,18
 1233 1231 1233 1231 1334 1319 c 0,19,20
 1575 1530 1575 1530 1916 1530 c 0,21,22
 2260 1530 2260 1530 2498 1319 c 1,23,-1
 2394 1014 l 1,24,25
 2295 1348 2295 1348 2003 1348 c 0,26,27
 1825 1348 1825 1348 1689 1239 c 0,28,29
 1529 1111 1529 1111 1465 921 c 0,30,31
 1445 863 1445 863 1434 800 c 1,32,-1
 2185 800 l 2,33,34
 2276 800 2276 800 2341 911 c 1,35,-1
 2362 911 l 1,36,-1
 2290 696 l 2,37,38
 2265 622 2265 622 2161 622 c 2,39,-1
 1421 622 l 1,40,41
 1426 472 1426 472 1505 347 c 0,42,43
 1624 160 1624 160 1829 160 c 0,44,45
 2046 160 2046 160 2194 319 c 1,46,-1
 2522 213 l 1,47,48
 2262 -20 2262 -20 1915 -20 c 0,0,1
772 0 m 1,49,50
 70 0 70 0 70 390 c 0,51,52
 70 751 70 751 743 1120 c 1,53,-1
 761 1096 l 1,54,55
 413 705 413 705 413 402 c 0,56,57
 413 110 413 110 772 30 c 1,58,-1
 772 0 l 1,49,50
EndSplineSet
Validated: 19457
EndChar

StartChar: longs
Encoding: 383 383 199
Width: 1178
Flags: W
HStem: -430 21G<369.5 521> 545 158<61.0583 278> 1381 149<729.643 1003.72>
VStem: 278 300<-339.323 545 703 1215.25>
LayerCount: 2
Fore
SplineSet
461 -430 m 1,0,1
 278 -381 278 -381 278 -181 c 2,2,-1
 278 545 l 1,3,-1
 157 545 l 2,4,5
 66 545 66 545 1 434 c 1,6,-1
 -20 434 l 1,7,-1
 45 629 l 2,8,9
 70 703 70 703 174 703 c 2,10,-1
 278 703 l 1,11,-1
 278 991 l 2,12,13
 278 1246 278 1246 402 1378 c 0,14,15
 545 1530 545 1530 802 1530 c 0,16,17
 1030 1530 1030 1530 1198 1408 c 1,18,-1
 1109 1146 l 1,19,20
 1053 1381 1053 1381 867 1381 c 0,21,22
 769 1381 769 1381 684 1302 c 0,23,24
 578 1204 578 1204 578 991 c 2,25,-1
 578 -391 l 1,26,-1
 461 -430 l 1,0,1
EndSplineSet
Validated: 19457
EndChar

StartChar: florin
Encoding: 402 402 200
Width: 1070
Flags: W
HStem: -430 21G<10 240> 435 158<470 768.942> 1381 149<621.643 895.717>
VStem: 170 300<-152.266 435 593 1215.25>
LayerCount: 2
Fore
SplineSet
10 -430 m 1,0,-1
 10 -420 l 1,1,2
 170 -263 170 -263 170 77 c 2,3,-1
 170 991 l 2,4,5
 170 1246 170 1246 294 1378 c 0,6,7
 437 1530 437 1530 694 1530 c 0,8,9
 922 1530 922 1530 1090 1408 c 1,10,-1
 1001 1146 l 1,11,12
 945 1381 945 1381 759 1381 c 0,13,14
 661 1381 661 1381 576 1302 c 0,15,16
 470 1204 470 1204 470 991 c 2,17,-1
 470 593 l 1,18,-1
 673 593 l 2,19,20
 764 593 764 593 829 704 c 1,21,-1
 850 704 l 1,22,-1
 785 509 l 2,23,24
 760 435 760 435 656 435 c 2,25,-1
 470 435 l 1,26,-1
 470 74 l 2,27,28
 470 -348 470 -348 10 -430 c 1,0,-1
EndSplineSet
Validated: 19457
EndChar

StartChar: Hbar
Encoding: 294 294 201
Width: 1786
Flags: W
HStem: -430 180<892 1015.96> -20 21G<261.5 410.727> 411 150<12.6753 170 495 717.884> 938 182<763.34 1165.94> 1510 20G<237.566 388.5>
VStem: 170 310<67.3501 411 1017 1381.56> 1389 327<177.451 614.596>
LayerCount: 2
Fore
SplineSet
353 -20 m 1,0,1
 170 25 170 25 170 224 c 2,2,-1
 170 411 l 1,3,-1
 2 411 l 1,4,-1
 -15 464 l 1,5,6
 17 561 17 561 111 561 c 2,7,-1
 170 561 l 1,8,-1
 170 1281 l 2,9,10
 170 1399 170 1399 65 1399 c 0,11,12
 27 1399 27 1399 -8 1390 c 1,13,-1
 -18 1424 l 1,14,-1
 297 1530 l 1,15,16
 480 1481 480 1481 480 1281 c 2,17,-1
 480 1017 l 1,18,19
 658 1120 658 1120 892 1120 c 0,20,21
 1243 1120 1243 1120 1474 909 c 0,22,23
 1716 688 1716 688 1716 345 c 0,24,25
 1716 -4 1716 -4 1474 -219 c 0,26,27
 1236 -430 1236 -430 892 -430 c 1,28,-1
 831 -250 l 1,29,30
 976 -250 976 -250 1119 -142 c 0,31,32
 1278 -22 1278 -22 1345 176 c 0,33,34
 1389 306 1389 306 1389 464 c 0,35,36
 1389 625 1389 625 1310 752 c 0,37,38
 1195 938 1195 938 981 938 c 0,39,40
 793 938 793 938 658 830 c 0,41,42
 532 729 532 729 495 561 c 1,43,-1
 729 561 l 1,44,-1
 746 508 l 1,45,46
 713 411 713 411 620 411 c 2,47,-1
 480 411 l 1,48,-1
 480 24 l 1,49,-1
 353 -20 l 1,0,1
EndSplineSet
Validated: 19457
EndChar

StartChar: hbar
Encoding: 295 295 202
Width: 1388
Flags: W
HStem: -20 149<694 773.188> 478 150<12.6753 170 461 717.884> 971 149<610.271 895.882> 1510 20G<217.404 368.5>
VStem: 170 290<70.6775 478 628 806.459 1080 1390.76> 1010 308<404.478 772.872>
LayerCount: 2
Fore
SplineSet
353 -20 m 1,0,1
 170 29 170 29 170 229 c 2,2,-1
 170 478 l 1,3,-1
 2 478 l 1,4,-1
 -15 531 l 1,5,6
 17 628 17 628 111 628 c 2,7,-1
 170 628 l 1,8,-1
 170 1288 l 2,9,10
 170 1406 170 1406 65 1406 c 0,11,12
 27 1406 27 1406 -8 1397 c 1,13,-1
 -18 1431 l 1,14,-1
 277 1530 l 1,15,16
 460 1481 460 1481 460 1281 c 2,17,-1
 460 1080 l 1,18,19
 562 1120 562 1120 694 1120 c 0,20,21
 962 1120 962 1120 1135 964 c 0,22,23
 1318 799 1318 799 1318 550 c 0,24,25
 1318 296 1318 296 1135 136 c 0,26,27
 957 -20 957 -20 694 -20 c 1,28,-1
 644 129 l 1,29,30
 723 129 723 129 821 208 c 0,31,32
 931 298 931 298 978 435 c 0,33,34
 1010 529 1010 529 1010 636 c 0,35,36
 1010 761 1010 761 962 848 c 0,37,38
 894 971 894 971 759 971 c 0,39,40
 651 971 651 971 566 892 c 0,41,42
 472 805 472 805 461 628 c 1,43,-1
 729 628 l 1,44,-1
 746 575 l 1,45,46
 713 478 713 478 620 478 c 2,47,-1
 460 478 l 1,48,-1
 460 16 l 1,49,-1
 353 -20 l 1,0,1
EndSplineSet
Validated: 19457
EndChar

StartChar: eth
Encoding: 240 240 203
Width: 1388
Flags: W
HStem: -20 149<491.395 769.269> 971 149<614.812 694> 1510 20G<524.765 623.5 1030.37 1100.91>
VStem: 70 308<325.076 698.828> 1010 308<403.508 902.325>
DStem2: 505 1318 454 1140 0.939225 0.343303<-97.5355 89.5373 418.046 606.058>
LayerCount: 2
Fore
SplineSet
694 -20 m 0,0,1
 428 -20 428 -20 253 136 c 0,2,3
 70 299 70 299 70 550 c 0,4,5
 70 803 70 803 253 964 c 0,6,7
 431 1120 431 1120 694 1120 c 1,8,-1
 744 971 l 1,9,10
 665 971 665 971 567 892 c 0,11,12
 457 802 457 802 410 665 c 0,13,14
 378 571 378 571 378 464 c 0,15,16
 378 346 378 346 426 252 c 0,17,18
 489 129 489 129 629 129 c 0,19,20
 723 129 723 129 821 208 c 0,21,22
 931 298 931 298 978 435 c 0,23,24
 1010 529 1010 529 1010 636 c 0,25,26
 1010 1001 1010 1001 734 1242 c 1,27,-1
 454 1140 l 1,28,-1
 419 1184 l 1,29,30
 419 1287 419 1287 505 1318 c 2,31,-1
 589 1349 l 1,32,33
 506 1401 506 1401 407 1445 c 1,34,-1
 561 1530 l 1,35,36
 686 1480 686 1480 790 1422 c 1,37,-1
 1085 1530 l 1,38,-1
 1120 1486 l 1,39,40
 1120 1383 1120 1383 1034 1352 c 2,41,-1
 949 1321 l 1,42,43
 1318 1049 1318 1049 1318 634 c 0,44,45
 1318 296 1318 296 1135 136 c 0,46,47
 957 -20 957 -20 694 -20 c 0,0,1
EndSplineSet
Validated: 19457
EndChar

StartChar: Lslash
Encoding: 321 321 204
Width: 1082
Flags: W
HStem: 0 178<518.005 1013.94> 1510 20G<275.566 426.5>
VStem: 208 310<179.69 446 642 706 902 1381.56>
DStem2: 69 525 208 446 0.766114 0.642705<-95.3304 55.7162 586.285 803.889>
LayerCount: 2
Fore
SplineSet
332 0 m 1,0,1
 208 59 208 59 208 224 c 2,2,-1
 208 446 l 1,3,-1
 82 340 l 1,4,-1
 35 370 l 1,5,6
 22 403 22 403 22 431 c 0,7,8
 22 485 22 485 69 525 c 2,9,-1
 208 642 l 1,10,-1
 208 1281 l 2,11,12
 208 1399 208 1399 103 1399 c 0,13,14
 65 1399 65 1399 30 1390 c 1,15,-1
 20 1424 l 1,16,-1
 335 1530 l 1,17,18
 518 1481 518 1481 518 1281 c 2,19,-1
 518 902 l 1,20,-1
 696 1051 l 1,21,-1
 743 1021 l 1,22,23
 753 994 753 994 753 969 c 0,24,25
 753 903 753 903 683 844 c 2,26,-1
 518 706 l 1,27,-1
 518 224 l 2,28,29
 518 178 518 178 539 178 c 2,30,-1
 925 178 l 2,31,32
 1016 178 1016 178 1081 289 c 1,33,-1
 1102 289 l 1,34,-1
 1030 74 l 2,35,36
 1005 0 1005 0 901 0 c 2,37,-1
 332 0 l 1,0,1
EndSplineSet
Validated: 19457
EndChar

StartChar: lslash
Encoding: 322 322 205
Width: 760
Flags: W
HStem: -20 21G<311.5 462.596> 1510 20G<267.404 418.5>
VStem: 220 290<119.24 473 669 716 912 1390.76>
DStem2: 77 549 220 473 0.766321 0.642458<-95.3174 60.7572 565.029 721.084>
LayerCount: 2
Fore
SplineSet
403 -20 m 1,0,1
 220 29 220 29 220 229 c 2,2,-1
 220 473 l 1,3,-1
 90 364 l 1,4,-1
 43 394 l 1,5,6
 30 427 30 427 30 455 c 0,7,8
 30 509 30 509 77 549 c 2,9,-1
 220 669 l 1,10,-1
 220 1288 l 2,11,12
 220 1406 220 1406 115 1406 c 0,13,14
 77 1406 77 1406 42 1397 c 1,15,-1
 32 1431 l 1,16,-1
 327 1530 l 1,17,18
 510 1481 510 1481 510 1281 c 2,19,-1
 510 912 l 1,20,-1
 640 1021 l 1,21,-1
 687 991 l 1,22,23
 700 958 700 958 700 930 c 0,24,25
 700 875 700 875 653 836 c 2,26,-1
 510 716 l 1,27,-1
 510 222 l 2,28,29
 510 104 510 104 615 104 c 0,30,31
 653 104 653 104 688 113 c 1,32,-1
 698 79 l 1,33,-1
 403 -20 l 1,0,1
EndSplineSet
Validated: 19457
EndChar

StartChar: Eng
Encoding: 330 330 206
Width: 1744
Flags: W
HStem: -430 21G<1229 1401.5> -20 21G<221.5 337> 1510 20G<261.531 599 1403.51 1518.5>
VStem: 166 210<22.9844 1144> 1364 210<423 1424.62>
LayerCount: 2
Fore
SplineSet
277 -20 m 1,0,1
 166 24 166 24 166 139 c 2,2,-1
 166 1293 l 1,3,4
 69 1386 69 1386 14 1386 c 0,5,6
 1 1386 1 1386 -5 1383 c 1,7,-1
 -15 1417 l 1,8,-1
 321 1530 l 1,9,10
 877 1186 877 1186 1364 423 c 1,11,-1
 1364 1367 l 2,12,13
 1364 1426 1364 1426 1311 1426 c 0,14,15
 1273 1426 1273 1426 1238 1417 c 1,16,-1
 1228 1451 l 1,17,-1
 1463 1530 l 1,18,19
 1574 1486 1574 1486 1574 1372 c 2,20,-1
 1574 78 l 2,21,22
 1574 -286 1574 -286 1229 -430 c 1,23,-1
 1229 -420 l 1,24,25
 1340 -272 1340 -272 1358 -118 c 1,26,27
 896 714 896 714 376 1144 c 1,28,-1
 376 13 l 1,29,-1
 277 -20 l 1,0,1
EndSplineSet
Validated: 1
EndChar

StartChar: eng
Encoding: 331 331 207
Width: 1432
Flags: W
HStem: -430 21G<917 1089.5> -20 21G<223 335.448> 975 34<-9.21647 28.7829> 1100 20G<262.919 526.5 1095 1208.5>
VStem: 174 190<17.9189 762> 1072 190<322 1019.02>
LayerCount: 2
Fore
SplineSet
272 -20 m 1,0,1
 174 24 174 24 174 152 c 2,2,-1
 174 900 l 1,3,4
 107 984 107 984 55 984 c 0,5,6
 30 984 30 984 -5 975 c 1,7,-1
 -15 1009 l 1,8,-1
 324 1120 l 1,9,10
 729 828 729 828 1072 322 c 1,11,-1
 1072 960 l 2,12,13
 1072 1021 1072 1021 1016 1021 c 0,14,15
 978 1021 978 1021 943 1012 c 1,16,-1
 933 1046 l 1,17,-1
 1155 1120 l 1,18,19
 1262 1072 1262 1072 1262 950 c 2,20,-1
 1262 78 l 2,21,22
 1262 -286 1262 -286 917 -430 c 1,23,-1
 917 -420 l 1,24,25
 1058 -214 1058 -214 1075 -119 c 1,26,27
 710 439 710 439 364 762 c 1,28,-1
 364 9 l 1,29,-1
 272 -20 l 1,0,1
EndSplineSet
Validated: 1
EndChar

StartChar: germandbls
Encoding: 223 223 208
Width: 1270
Flags: W
HStem: -20 159<613 726.736> 733 143<647 713.016> 1394 136<542.313 748.95>
VStem: 170 290<62.4919 1299.65> 813 289<977.005 1306.65> 886 314<305.917 631.958>
LayerCount: 2
Fore
SplineSet
356 -20 m 1,0,1
 170 19 170 19 170 217 c 2,2,-1
 170 1120 l 2,3,4
 170 1309 170 1309 294 1423 c 0,5,6
 410 1530 410 1530 629 1530 c 0,7,8
 832 1530 832 1530 962 1420 c 0,9,10
 1102 1301 1102 1301 1102 1132 c 0,11,12
 1102 962 1102 962 972 855 c 0,13,14
 955 841 955 841 937 828 c 1,15,16
 999 803 999 803 1047 764 c 0,17,18
 1200 640 1200 640 1200 437 c 0,19,20
 1199 234 1199 234 1047 111 c 0,21,22
 885 -20 885 -20 613 -20 c 1,23,-1
 560 139 l 1,24,25
 651 139 651 139 732 187 c 0,26,27
 823 241 823 241 861 350 c 0,28,29
 886 421 886 421 886 500 c 0,30,31
 886 588 886 588 838 652 c 0,32,33
 778 733 778 733 696 733 c 2,34,-1
 647 733 l 1,35,-1
 599 876 l 1,36,37
 649 884 649 884 696 910 c 0,38,39
 767 949 767 949 791 1023 c 0,40,41
 813 1089 813 1089 813 1171 c 0,42,43
 813 1276 813 1276 763.5 1335 c 128,-1,44
 714 1394 714 1394 643 1394 c 0,45,46
 582 1394 582 1394 536 1345 c 0,47,48
 460 1264 460 1264 460 1115 c 2,49,-1
 460 15 l 1,50,-1
 356 -20 l 1,0,1
EndSplineSet
Validated: 19457
EndChar

StartChar: Eth
Encoding: 208 208 209
Width: 1786
Flags: W
HStem: -20 180<892 1015.96> 612 150<12.6753 170 480 717.884> 1348 182<762.524 1165.94>
VStem: 170 310<67.3501 612 762 1062> 1389 327<587.451 1024.6>
LayerCount: 2
Fore
SplineSet
353 -20 m 1,0,1
 170 25 170 25 170 224 c 2,2,-1
 170 612 l 1,3,-1
 2 612 l 1,4,-1
 -15 665 l 1,5,6
 17 762 17 762 111 762 c 2,7,-1
 170 762 l 1,8,-1
 170 1281 l 2,9,10
 170 1399 170 1399 65 1399 c 0,11,12
 27 1399 27 1399 -8 1390 c 1,13,-1
 -18 1424 l 1,14,-1
 297 1530 l 1,15,16
 410 1500 410 1500 454 1411 c 1,17,18
 641 1530 641 1530 892 1530 c 0,19,20
 1243 1530 1243 1530 1474 1319 c 0,21,22
 1716 1098 1716 1098 1716 755 c 0,23,24
 1716 406 1716 406 1474 191 c 0,25,26
 1236 -20 1236 -20 892 -20 c 1,27,-1
 831 160 l 1,28,29
 976 160 976 160 1119 268 c 0,30,31
 1278 388 1278 388 1345 586 c 0,32,33
 1389 716 1389 716 1389 874 c 0,34,35
 1389 1035 1389 1035 1310 1162 c 0,36,37
 1195 1348 1195 1348 981 1348 c 0,38,39
 793 1348 793 1348 658 1240 c 0,40,41
 480 1097 480 1097 480 814 c 2,42,-1
 480 762 l 1,43,-1
 729 762 l 1,44,-1
 746 709 l 1,45,46
 713 612 713 612 620 612 c 2,47,-1
 480 612 l 1,48,-1
 480 24 l 1,49,-1
 353 -20 l 1,0,1
EndSplineSet
Validated: 19457
EndChar

StartChar: uni1E02
Encoding: 7682 7682 210
Width: 1299
Flags: W
HStem: -20 170<672 768.844> 734 166<638 735.109> 1364 166<531.588 776.044> 1580 370<499.14 736.86>
VStem: 170 295<67.3501 1298.72> 436 364<1642.58 1887.42> 833 288<1003.32 1303.54> 921 308<311.899 635.193>
LayerCount: 2
Fore
SplineSet
618 1950 m 128,-1,1
 694 1950 694 1950 747 1896 c 128,-1,2
 800 1842 800 1842 800 1765 c 128,-1,3
 800 1688 800 1688 747 1634 c 128,-1,4
 694 1580 694 1580 618 1580 c 128,-1,5
 542 1580 542 1580 489 1634 c 128,-1,6
 436 1688 436 1688 436 1765 c 128,-1,7
 436 1842 436 1842 489 1896 c 128,-1,0
 542 1950 542 1950 618 1950 c 128,-1,1
353 -20 m 1,8,9
 170 25 170 25 170 224 c 2,10,-1
 170 1281 l 2,11,12
 170 1399 170 1399 65 1399 c 0,13,14
 27 1399 27 1399 -8 1390 c 1,15,-1
 -18 1424 l 1,16,-1
 297 1530 l 1,17,18
 366 1510 366 1510 407 1459 c 1,19,20
 520 1530 520 1530 668 1530 c 0,21,22
 867 1530 867 1530 989 1415 c 0,23,24
 1121 1289 1121 1289 1121 1131 c 0,25,26
 1121 969 1121 969 999 857 c 0,27,28
 988 847 988 847 977 838 c 1,29,30
 1026 813 1026 813 1069 778 c 0,31,32
 1229 646 1229 646 1229 444 c 0,33,34
 1229 241 1229 241 1078 103 c 0,35,36
 943 -20 943 -20 672 -20 c 1,37,-1
 615 150 l 1,38,39
 744 150 744 150 824 236 c 0,40,41
 921 340 921 340 921 513 c 0,42,43
 921 613 921 613 878 670 c 0,44,45
 830 734 830 734 718 734 c 2,46,-1
 638 734 l 1,47,-1
 584 900 l 1,48,49
 670 905 670 905 726 938 c 0,50,51
 775 967 775 967 805 1035 c 0,52,53
 833 1097 833 1097 833 1174 c 0,54,55
 833 1257 833 1257 784 1313 c 0,56,57
 739 1364 739 1364 660 1364 c 0,58,59
 580 1364 580 1364 527 1317 c 0,60,61
 465 1262 465 1262 465 1164 c 2,62,-1
 465 19 l 1,63,-1
 353 -20 l 1,8,9
EndSplineSet
Validated: 19457
EndChar

StartChar: uni1E03
Encoding: 7683 7683 211
Width: 1388
Flags: W
HStem: -20 149<528.691 772.245> 971 149<643.208 897.088> 1510 20G<227.196 378.5> 1580 370<173.14 410.86>
VStem: 110 364<1642.58 1887.42> 170 300<259.814 1386.44> 1010 308<401.172 772.818>
LayerCount: 2
Fore
SplineSet
292 1950 m 128,-1,1
 368 1950 368 1950 421 1896 c 128,-1,2
 474 1842 474 1842 474 1765 c 128,-1,3
 474 1688 474 1688 421 1634 c 128,-1,4
 368 1580 368 1580 292 1580 c 128,-1,5
 216 1580 216 1580 163 1634 c 128,-1,6
 110 1688 110 1688 110 1765 c 128,-1,7
 110 1842 110 1842 163 1896 c 128,-1,0
 216 1950 216 1950 292 1950 c 128,-1,1
691 -20 m 0,8,9
 426 -20 426 -20 283 145 c 0,10,11
 170 275 170 275 170 519 c 2,12,-1
 170 1285 l 2,13,14
 170 1403 170 1403 65 1403 c 0,15,16
 27 1403 27 1403 -8 1394 c 1,17,-1
 -18 1428 l 1,18,-1
 287 1530 l 1,19,20
 470 1481 470 1481 470 1281 c 2,21,-1
 470 519 l 2,22,23
 470 341 470 341 486 264 c 0,24,25
 514 129 514 129 629 129 c 0,26,27
 723 129 723 129 821 208 c 0,28,29
 931 298 931 298 978 435 c 0,30,31
 1010 529 1010 529 1010 636 c 0,32,33
 1010 754 1010 754 962 848 c 0,34,35
 899 971 899 971 759 971 c 0,36,37
 717 971 717 971 673 954 c 1,38,-1
 525 1102 l 1,39,40
 604 1120 604 1120 694 1120 c 0,41,42
 962 1120 962 1120 1135 964 c 0,43,44
 1318 799 1318 799 1318 550 c 0,45,46
 1318 297 1318 297 1135 136 c 0,47,48
 958 -20 958 -20 691 -20 c 0,8,9
EndSplineSet
Validated: 19457
EndChar

StartChar: uni1E0A
Encoding: 7690 7690 212
Width: 1786
Flags: W
HStem: -20 180<892 1015.96> 1348 182<762.524 1165.94> 1580 370<774.14 1011.86>
VStem: 170 310<67.3501 1062> 711 364<1642.58 1887.42> 1389 327<587.451 1024.6>
LayerCount: 2
Fore
SplineSet
893 1950 m 128,-1,1
 969 1950 969 1950 1022 1896 c 128,-1,2
 1075 1842 1075 1842 1075 1765 c 128,-1,3
 1075 1688 1075 1688 1022 1634 c 128,-1,4
 969 1580 969 1580 893 1580 c 128,-1,5
 817 1580 817 1580 764 1634 c 128,-1,6
 711 1688 711 1688 711 1765 c 128,-1,7
 711 1842 711 1842 764 1896 c 128,-1,0
 817 1950 817 1950 893 1950 c 128,-1,1
353 -20 m 1,8,9
 170 25 170 25 170 224 c 2,10,-1
 170 1281 l 2,11,12
 170 1399 170 1399 65 1399 c 0,13,14
 27 1399 27 1399 -8 1390 c 1,15,-1
 -18 1424 l 1,16,-1
 297 1530 l 1,17,18
 410 1500 410 1500 454 1411 c 1,19,20
 641 1530 641 1530 892 1530 c 0,21,22
 1243 1530 1243 1530 1474 1319 c 0,23,24
 1716 1098 1716 1098 1716 755 c 0,25,26
 1716 406 1716 406 1474 191 c 0,27,28
 1236 -20 1236 -20 892 -20 c 1,29,-1
 831 160 l 1,30,31
 976 160 976 160 1119 268 c 0,32,33
 1278 388 1278 388 1345 586 c 0,34,35
 1389 716 1389 716 1389 874 c 0,36,37
 1389 1035 1389 1035 1310 1162 c 0,38,39
 1195 1348 1195 1348 981 1348 c 0,40,41
 793 1348 793 1348 658 1240 c 0,42,43
 480 1097 480 1097 480 814 c 2,44,-1
 480 24 l 1,45,-1
 353 -20 l 1,8,9
EndSplineSet
Validated: 19457
EndChar

StartChar: uni1E0B
Encoding: 7691 7691 213
Width: 1388
Flags: W
HStem: -20 149<492.118 777.656> 971 149<614.812 694> 1510 20G<975.404 1126.5> 1580 370<917.14 1154.86>
VStem: 70 308<327.128 695.522> 854 364<1642.58 1887.42> 928 290<293.29 1390.76>
LayerCount: 2
Fore
SplineSet
1036 1950 m 128,-1,1
 1112 1950 1112 1950 1165 1896 c 128,-1,2
 1218 1842 1218 1842 1218 1765 c 128,-1,3
 1218 1688 1218 1688 1165 1634 c 128,-1,4
 1112 1580 1112 1580 1036 1580 c 128,-1,5
 960 1580 960 1580 907 1634 c 128,-1,6
 854 1688 854 1688 854 1765 c 128,-1,7
 854 1842 854 1842 907 1896 c 128,-1,0
 960 1950 960 1950 1036 1950 c 128,-1,1
694 -20 m 0,8,9
 426 -20 426 -20 253 136 c 0,10,11
 70 301 70 301 70 550 c 0,12,13
 70 804 70 804 253 964 c 0,14,15
 431 1120 431 1120 694 1120 c 1,16,-1
 744 971 l 1,17,18
 665 971 665 971 567 892 c 0,19,20
 457 802 457 802 410 665 c 0,21,22
 378 571 378 571 378 464 c 0,23,24
 378 339 378 339 426 252 c 0,25,26
 494 129 494 129 629 129 c 0,27,28
 737 129 737 129 822 208 c 0,29,30
 928 306 928 306 928 519 c 2,31,-1
 928 1288 l 2,32,33
 928 1406 928 1406 823 1406 c 0,34,35
 785 1406 785 1406 750 1397 c 1,36,-1
 740 1431 l 1,37,-1
 1035 1530 l 1,38,39
 1218 1481 1218 1481 1218 1281 c 2,40,-1
 1218 222 l 2,41,42
 1218 104 1218 104 1323 104 c 0,43,44
 1361 104 1361 104 1396 113 c 1,45,-1
 1406 79 l 1,46,-1
 1111 -20 l 1,47,48
 1033 1 1033 1 988 49 c 1,49,50
 867 -20 867 -20 694 -20 c 0,8,9
EndSplineSet
Validated: 19457
EndChar

StartChar: uni1E1E
Encoding: 7710 7710 214
Width: 1454
Flags: W
HStem: -430 21G<261.5 410.727> 309 178<480 1146.94> 1348 182<762.524 1164.08> 1580 370<708.14 945.86>
VStem: 170 310<-342.65 309 487 1062> 645 364<1642.58 1887.42>
LayerCount: 2
Fore
SplineSet
827 1950 m 128,-1,1
 903 1950 903 1950 956 1896 c 128,-1,2
 1009 1842 1009 1842 1009 1765 c 128,-1,3
 1009 1688 1009 1688 956 1634 c 128,-1,4
 903 1580 903 1580 827 1580 c 128,-1,5
 751 1580 751 1580 698 1634 c 128,-1,6
 645 1688 645 1688 645 1765 c 128,-1,7
 645 1842 645 1842 698 1896 c 128,-1,0
 751 1950 751 1950 827 1950 c 128,-1,1
353 -430 m 1,8,9
 170 -385 170 -385 170 -186 c 2,10,-1
 170 1281 l 2,11,12
 170 1399 170 1399 65 1399 c 0,13,14
 27 1399 27 1399 -8 1390 c 1,15,-1
 -18 1424 l 1,16,-1
 297 1530 l 1,17,18
 410 1500 410 1500 454 1411 c 1,19,20
 641 1530 641 1530 892 1530 c 0,21,22
 1236 1530 1236 1530 1474 1319 c 1,23,-1
 1370 1014 l 1,24,25
 1271 1348 1271 1348 981 1348 c 0,26,27
 793 1348 793 1348 658 1240 c 0,28,29
 480 1097 480 1097 480 814 c 2,30,-1
 480 487 l 1,31,-1
 1058 487 l 2,32,33
 1149 487 1149 487 1214 598 c 1,34,-1
 1235 598 l 1,35,-1
 1163 383 l 2,36,37
 1138 309 1138 309 1034 309 c 2,38,-1
 480 309 l 1,39,-1
 480 -386 l 1,40,-1
 353 -430 l 1,8,9
EndSplineSet
Validated: 19457
EndChar

StartChar: uni1E1F
Encoding: 7711 7711 215
Width: 1070
Flags: W
HStem: -430 21G<261.5 413> 435 158<470 768.942> 1381 149<621.643 895.717> 1580 370<459.14 696.86>
VStem: 170 300<-339.323 435 593 1215.25> 396 364<1642.58 1887.42>
LayerCount: 2
Fore
SplineSet
578 1950 m 128,-1,1
 654 1950 654 1950 707 1896 c 128,-1,2
 760 1842 760 1842 760 1765 c 128,-1,3
 760 1688 760 1688 707 1634 c 128,-1,4
 654 1580 654 1580 578 1580 c 128,-1,5
 502 1580 502 1580 449 1634 c 128,-1,6
 396 1688 396 1688 396 1765 c 128,-1,7
 396 1842 396 1842 449 1896 c 128,-1,0
 502 1950 502 1950 578 1950 c 128,-1,1
353 -430 m 1,8,9
 170 -381 170 -381 170 -181 c 2,10,-1
 170 991 l 2,11,12
 170 1246 170 1246 294 1378 c 0,13,14
 437 1530 437 1530 694 1530 c 0,15,16
 922 1530 922 1530 1090 1408 c 1,17,-1
 1001 1146 l 1,18,19
 945 1381 945 1381 759 1381 c 0,20,21
 661 1381 661 1381 576 1302 c 0,22,23
 470 1204 470 1204 470 991 c 2,24,-1
 470 593 l 1,25,-1
 673 593 l 2,26,27
 764 593 764 593 829 704 c 1,28,-1
 850 704 l 1,29,-1
 785 509 l 2,30,31
 760 435 760 435 656 435 c 2,32,-1
 470 435 l 1,33,-1
 470 -391 l 1,34,-1
 353 -430 l 1,8,9
EndSplineSet
Validated: 19457
EndChar

StartChar: uni1E40
Encoding: 7744 7744 216
Width: 2912
Flags: W
HStem: -20 180<629.326 831 2018 2141.96> 1348 182<774.851 1143.37 1899.09 2291.94> 1580 370<1339.14 1576.86>
VStem: 70 327<481.44 921.987> 1276 364<1642.58 1887.42> 1296 320<67.3501 1059.78> 2515 327<587.451 1024.6>
LayerCount: 2
Fore
SplineSet
1458 1950 m 128,-1,1
 1534 1950 1534 1950 1587 1896 c 128,-1,2
 1640 1842 1640 1842 1640 1765 c 128,-1,3
 1640 1688 1640 1688 1587 1634 c 128,-1,4
 1534 1580 1534 1580 1458 1580 c 128,-1,5
 1382 1580 1382 1580 1329 1634 c 128,-1,6
 1276 1688 1276 1688 1276 1765 c 128,-1,7
 1276 1842 1276 1842 1329 1896 c 128,-1,0
 1382 1950 1382 1950 1458 1950 c 128,-1,1
1482 -20 m 1,8,9
 1296 25 1296 25 1296 224 c 2,10,-1
 1296 814 l 2,11,12
 1296 1076 1296 1076 1255 1167 c 0,13,14
 1174 1348 1174 1348 981 1348 c 0,15,16
 806 1348 806 1348 668 1240 c 0,17,18
 506 1114 506 1114 441 921 c 0,19,20
 397 792 397 792 397 631 c 0,21,22
 397 469 397 469 476 345 c 0,23,24
 594 160 594 160 831 160 c 1,25,-1
 892 -20 l 1,26,27
 546 -20 546 -20 310 191 c 0,28,29
 70 406 70 406 70 755 c 0,30,31
 70 1109 70 1109 310 1319 c 0,32,33
 551 1530 551 1530 892 1530 c 0,34,35
 1245 1530 1245 1530 1449 1306 c 1,36,37
 1673 1530 1673 1530 2018 1530 c 0,38,39
 2369 1530 2369 1530 2600 1319 c 0,40,41
 2842 1098 2842 1098 2842 755 c 0,42,43
 2842 406 2842 406 2600 191 c 0,44,45
 2362 -20 2362 -20 2018 -20 c 1,46,-1
 1957 160 l 1,47,48
 2102 160 2102 160 2245 268 c 0,49,50
 2404 388 2404 388 2471 586 c 0,51,52
 2515 716 2515 716 2515 874 c 0,53,54
 2515 1035 2515 1035 2436 1162 c 0,55,56
 2321 1348 2321 1348 2107 1348 c 0,57,58
 1926 1348 1926 1348 1794 1240 c 0,59,60
 1616 1097 1616 1097 1616 814 c 2,61,-1
 1616 26 l 1,62,-1
 1482 -20 l 1,8,9
EndSplineSet
Validated: 19457
EndChar

StartChar: uni1E41
Encoding: 7745 7745 217
Width: 2136
Flags: W
HStem: -20 149<492.894 644 1442 1521.19> 971 149<615.755 859.385 1369.24 1643.88> 1170 370<968.14 1205.86>
VStem: 70 308<327.182 698.828> 905 364<1232.58 1477.42> 918 300<66.5203 806.71> 1758 308<404.478 772.872>
LayerCount: 2
Fore
SplineSet
1087 1540 m 128,-1,1
 1163 1540 1163 1540 1216 1486 c 128,-1,2
 1269 1432 1269 1432 1269 1355 c 128,-1,3
 1269 1278 1269 1278 1216 1224 c 128,-1,4
 1163 1170 1163 1170 1087 1170 c 128,-1,5
 1011 1170 1011 1170 958 1224 c 128,-1,6
 905 1278 905 1278 905 1355 c 128,-1,7
 905 1432 905 1432 958 1486 c 128,-1,0
 1011 1540 1011 1540 1087 1540 c 128,-1,1
1104 -20 m 1,8,9
 918 26 918 26 918 219 c 2,10,-1
 918 581 l 2,11,12
 918 759 918 759 902 836 c 0,13,14
 874 971 874 971 759 971 c 0,15,16
 665 971 665 971 567 892 c 0,17,18
 457 802 457 802 410 665 c 0,19,20
 378 571 378 571 378 464 c 0,21,22
 378 346 378 346 426 252 c 0,23,24
 489 129 489 129 644 129 c 1,25,-1
 694 -20 l 1,26,27
 428 -20 428 -20 253 136 c 0,28,29
 70 301 70 301 70 550 c 0,30,31
 70 803 70 803 253 964 c 0,32,33
 430 1120 430 1120 697 1120 c 0,34,35
 929 1120 929 1120 1068 993 c 1,36,37
 1208 1120 1208 1120 1442 1120 c 0,38,39
 1710 1120 1710 1120 1883 964 c 0,40,41
 2066 799 2066 799 2066 550 c 0,42,43
 2066 296 2066 296 1883 136 c 0,44,45
 1705 -20 1705 -20 1442 -20 c 1,46,-1
 1392 129 l 1,47,48
 1471 129 1471 129 1569 208 c 0,49,50
 1679 298 1679 298 1726 435 c 0,51,52
 1758 529 1758 529 1758 636 c 0,53,54
 1758 761 1758 761 1710 848 c 0,55,56
 1642 971 1642 971 1507 971 c 0,57,58
 1409 971 1409 971 1324 892 c 0,59,60
 1218 794 1218 794 1218 581 c 2,61,-1
 1218 16 l 1,62,-1
 1104 -20 l 1,8,9
EndSplineSet
Validated: 19457
EndChar

StartChar: uni1E56
Encoding: 7766 7766 218
Width: 1786
Flags: W
HStem: -430 21G<261.5 410.727> -20 180<892 1015.96> 1348 182<762.524 1165.94> 1580 370<774.14 1011.86>
VStem: 170 310<-342.65 1062> 711 364<1642.58 1887.42> 1389 327<587.451 1024.6>
LayerCount: 2
Fore
SplineSet
893 1950 m 128,-1,1
 969 1950 969 1950 1022 1896 c 128,-1,2
 1075 1842 1075 1842 1075 1765 c 128,-1,3
 1075 1688 1075 1688 1022 1634 c 128,-1,4
 969 1580 969 1580 893 1580 c 128,-1,5
 817 1580 817 1580 764 1634 c 128,-1,6
 711 1688 711 1688 711 1765 c 128,-1,7
 711 1842 711 1842 764 1896 c 128,-1,0
 817 1950 817 1950 893 1950 c 128,-1,1
353 -430 m 1,8,9
 170 -385 170 -385 170 -186 c 2,10,-1
 170 1281 l 2,11,12
 170 1399 170 1399 65 1399 c 0,13,14
 27 1399 27 1399 -8 1390 c 1,15,-1
 -18 1424 l 1,16,-1
 297 1530 l 1,17,18
 410 1500 410 1500 454 1411 c 1,19,20
 641 1530 641 1530 892 1530 c 0,21,22
 1243 1530 1243 1530 1474 1319 c 0,23,24
 1716 1098 1716 1098 1716 755 c 0,25,26
 1716 406 1716 406 1474 191 c 0,27,28
 1236 -20 1236 -20 892 -20 c 1,29,-1
 831 160 l 1,30,31
 976 160 976 160 1119 268 c 0,32,33
 1278 388 1278 388 1345 586 c 0,34,35
 1389 716 1389 716 1389 874 c 0,36,37
 1389 1035 1389 1035 1310 1162 c 0,38,39
 1195 1348 1195 1348 981 1348 c 0,40,41
 793 1348 793 1348 658 1240 c 0,42,43
 480 1097 480 1097 480 814 c 2,44,-1
 480 -386 l 1,45,-1
 353 -430 l 1,8,9
EndSplineSet
Validated: 19457
EndChar

StartChar: uni1E57
Encoding: 7767 7767 219
Width: 1388
Flags: W
HStem: -430 21G<261.5 412.444> -20 149<694 773.188> 971 149<610.344 895.882> 1170 370<578.14 815.86>
VStem: 170 290<-339.323 806.71> 515 364<1232.58 1477.42> 1010 308<404.478 772.872>
LayerCount: 2
Fore
SplineSet
697 1540 m 128,-1,1
 773 1540 773 1540 826 1486 c 128,-1,2
 879 1432 879 1432 879 1355 c 128,-1,3
 879 1278 879 1278 826 1224 c 128,-1,4
 773 1170 773 1170 697 1170 c 128,-1,5
 621 1170 621 1170 568 1224 c 128,-1,6
 515 1278 515 1278 515 1355 c 128,-1,7
 515 1432 515 1432 568 1486 c 128,-1,0
 621 1540 621 1540 697 1540 c 128,-1,1
353 -430 m 1,8,9
 170 -381 170 -381 170 -181 c 2,10,-1
 170 878 l 2,11,12
 170 996 170 996 65 996 c 0,13,14
 27 996 27 996 -8 987 c 1,15,-1
 -18 1021 l 1,16,-1
 277 1120 l 1,17,18
 355 1099 355 1099 400 1051 c 1,19,20
 521 1120 521 1120 694 1120 c 0,21,22
 962 1120 962 1120 1135 964 c 0,23,24
 1318 799 1318 799 1318 550 c 0,25,26
 1318 296 1318 296 1135 136 c 0,27,28
 957 -20 957 -20 694 -20 c 1,29,-1
 644 129 l 1,30,31
 723 129 723 129 821 208 c 0,32,33
 931 298 931 298 978 435 c 0,34,35
 1010 529 1010 529 1010 636 c 0,36,37
 1010 761 1010 761 962 848 c 0,38,39
 894 971 894 971 759 971 c 0,40,41
 651 971 651 971 566 892 c 0,42,43
 460 794 460 794 460 581 c 2,44,-1
 460 -394 l 1,45,-1
 353 -430 l 1,8,9
EndSplineSet
Validated: 19457
EndChar

StartChar: uni1E60
Encoding: 7776 7776 220
Width: 1303
Flags: W
HStem: -20 175<320.172 685.603> 745 171<511.202 804.77> 1365 165<565.285 896.633> 1580 370<563.14 800.86>
VStem: 113 340<970.673 1253.7> 500 364<1642.58 1887.42> 888 345<344.517 665.384>
LayerCount: 2
Fore
SplineSet
682 1950 m 128,-1,1
 758 1950 758 1950 811 1896 c 128,-1,2
 864 1842 864 1842 864 1765 c 128,-1,3
 864 1688 864 1688 811 1634 c 128,-1,4
 758 1580 758 1580 682 1580 c 128,-1,5
 606 1580 606 1580 553 1634 c 128,-1,6
 500 1688 500 1688 500 1765 c 128,-1,7
 500 1842 500 1842 553 1896 c 128,-1,0
 606 1950 606 1950 682 1950 c 128,-1,1
553 -20 m 0,8,9
 272 -20 272 -20 70 138 c 1,10,-1
 151 381 l 1,11,12
 270 155 270 155 494 155 c 0,13,14
 606 155 606 155 704 209 c 0,15,16
 822 274 822 274 863 388 c 0,17,18
 888 458 888 458 888 531 c 0,19,20
 888 635 888 635 815 695 c 0,21,22
 754 745 754 745 645 745 c 0,23,24
 406 745 406 745 259 855 c 0,25,26
 113 965 113 965 113 1132 c 0,27,28
 113 1307 113 1307 260 1412 c 0,29,30
 427 1530 427 1530 681 1530 c 0,31,32
 922 1530 922 1530 1105 1409 c 1,33,-1
 1018 1147 l 1,34,35
 947 1365 947 1365 738 1365 c 0,36,37
 660 1365 660 1365 603 1341 c 0,38,39
 524 1308 524 1308 485 1234 c 0,40,41
 453 1173 453 1173 453 1096 c 0,42,43
 453 1013 453 1013 503 964.5 c 128,-1,44
 553 916 553 916 651 916 c 0,45,46
 915 916 915 916 1064 805 c 0,47,48
 1233 680 1233 680 1233 480 c 0,49,50
 1233 261 1233 261 1048 126 c 0,51,52
 847 -20 847 -20 553 -20 c 0,8,9
EndSplineSet
Validated: 19457
EndChar

